<!-- Generator: Adobe Illustrator 18.1.1, SVG Export Plug-In  -->
<svg version="1.0"
	 xmlns="http://www.w3.org/2000/svg" xmlns:xlink="http://www.w3.org/1999/xlink" xmlns:a="http://ns.adobe.com/AdobeSVGViewerExtensions/3.0/"
	 x="0px" y="0px" width="241.2px" height="273.8px" viewBox="0 0 241.2 273.8"
	 overflow="scroll" enable-background="new 0 0 241.2 273.8" xml:space="preserve">
<defs>
</defs>
<g>
	<rect x="4.4" y="4.5" fill="#4A3F29" width="231.4" height="264"/>
	<path fill="#CDB64E" d="M235.3,5l-13.9,0.6l-14.5,0.5c-9.6,0.3-19.3,0.7-28.9,0.9c-9.6,0.2-19.3,0.5-28.9,0.7l-28.9,0.5L91.2,8.6
		c-9.6,0.2-19.3,0.1-28.9,0.2L47.8,8.9C43,9,38.2,9,33.3,9c-9.6,0-19.3,0-28.9-0.1l4.4-4.4L8.6,21c-0.1,5.5-0.2,11-0.3,16.5
		c-0.2,11-0.5,22-0.8,33l-0.8,33c-0.1,5.5-0.3,11-0.3,16.5l-0.2,16.5C6,142,6,147.5,6,153l-0.1,16.5L6,186c0,5.5,0,11,0.1,16.5
		L6.2,219l0.3,16.5l0.7,33l-2.7-2.7c19.3-0.4,38.6-0.9,57.9-1.2c9.6-0.2,19.3-0.3,28.9-0.4l28.9-0.3l57.9-0.5l14.5-0.1l14.5-0.1
		l28.9,0l-5.3,5.3c0-5.5,0-11,0-16.5l0.1-16.5l0.2-33l0.4-33l0.2-16.5l0.3-16.5c0.2-11,0.4-22,0.6-33l0.4-16.5l0.4-16.5
		c0.3-11,0.6-22,1-33l0.6-16.5L235.3,5z M236.3,4l0.7,17l0.6,16.5c0.4,11,0.7,22,1,33l0.4,16.5l0.4,16.5c0.3,11,0.4,22,0.6,33
		l0.3,16.5l0.2,16.5l0.4,33l0.2,33l0.1,16.5c0.1,5.5,0,11,0,16.5l0,5.4l-5.4,0l-28.9,0l-14.5-0.1l-14.5-0.1l-57.9-0.5l-28.9-0.3
		c-9.6-0.1-19.3-0.2-28.9-0.4c-19.3-0.3-38.6-0.8-57.9-1.2l-2.8-0.1l0.1-2.7l0.7-33L2.6,219l0.2-16.5c0.1-5.5,0.1-11,0.1-16.5
		l0.1-16.5L2.8,153c0-5.5,0-11-0.1-16.5L2.5,120c-0.1-5.5-0.2-11-0.3-16.5l-0.8-33c-0.3-11-0.6-22-0.8-33C0.5,32,0.3,26.5,0.3,21
		L0.1,4.5L0,0.2l4.4-0.1C14.1,0,23.7,0.1,33.3,0c4.8,0,9.6,0,14.5,0l14.5,0.1c9.6,0.1,19.3,0.1,28.9,0.2l28.9,0.4l28.9,0.5
		c9.6,0.2,19.3,0.5,28.9,0.7c9.6,0.2,19.3,0.6,28.9,0.9l14.5,0.5L236.3,4z"/>
</g>
</svg>
