<!-- Generator: Adobe Illustrator 18.1.1, SVG Export Plug-In  -->
<svg version="1.0"
	 xmlns="http://www.w3.org/2000/svg" xmlns:xlink="http://www.w3.org/1999/xlink" xmlns:a="http://ns.adobe.com/AdobeSVGViewerExtensions/3.0/"
	 x="0px" y="0px" width="135.7px" height="135.7px" viewBox="0 0 135.7 135.7"
	 overflow="scroll" enable-background="new 0 0 135.7 135.7" xml:space="preserve">
<defs>
</defs>
<g>
	<g>
		<circle fill="#221910" cx="65.7" cy="65.7" r="64.8"/>
		<g>
			<path fill="#CDB64E" d="M19.8,19.8c0,0,0.3-0.3,0.8-0.8c0.6-0.5,1.4-1.4,2.5-2.3c2.2-2,5.7-4.7,10.5-7.5c2.4-1.4,5.2-2.8,8.3-4.1
				c3.1-1.3,6.6-2.4,10.4-3.3C60,0,68.9-0.7,78.6,0.8c9.6,1.5,19.9,5.3,29.1,12c1.2,0.8,2.3,1.7,3.4,2.6c1.1,1,2.2,1.8,3.3,2.9
				l1.5,1.5c0.5,0.5,1,1.1,1.6,1.6c1.1,1.1,2,2.3,3,3.4c1.9,2.4,3.7,4.8,5.3,7.5c0.8,1.3,1.6,2.7,2.3,4.1c0.4,0.7,0.7,1.4,1,2.1
				c0.4,0.7,0.7,1.4,1,2.2c5.1,11.7,6.9,25.4,4.5,38.8c-0.6,3.4-1.5,6.7-2.5,9.9c-1.1,3.3-2.5,6.4-4.1,9.5c-1.6,3.1-3.5,6-5.5,8.8
				c-1.1,1.4-2.1,2.8-3.3,4.1c-0.6,0.7-1.1,1.3-1.7,1.9l-1.9,2l-1.7,1.6c-0.3,0.3-0.5,0.5-0.9,0.8l-1,0.9c-1.4,1.2-2.8,2.3-4.1,3.3
				c-2.8,2-5.7,3.9-8.8,5.5c-3.1,1.6-6.2,3-9.5,4.1c-3.3,1.1-6.6,2-9.9,2.6c-6.7,1.2-13.5,1.3-20.1,0.6c-6.6-0.8-12.9-2.5-18.8-5.1
				c-1.5-0.6-2.9-1.3-4.3-2c-1.4-0.8-2.8-1.5-4.1-2.3c-2.7-1.6-5.1-3.4-7.5-5.3c-1.2-1-2.3-1.9-3.4-3c-0.5-0.5-1.1-1-1.6-1.5
				l-1.5-1.6l-0.8-0.8l-0.7-0.8c-0.5-0.5-0.9-1.1-1.4-1.6c-0.9-1.2-1.9-2.3-2.7-3.5c-6.7-9.2-10.5-19.5-12-29.1
				C-0.7,68.9,0,59.9,1.8,52.3c0.9-3.8,2-7.3,3.3-10.4c1.3-3.1,2.6-5.9,4.1-8.3c2.8-4.8,5.6-8.3,7.5-10.5c1-1.1,1.8-1.9,2.3-2.5
				C19.6,20.1,19.8,19.8,19.8,19.8z M19.8,19.8c0,0-0.3,0.3-0.8,0.9c-0.5,0.6-1.3,1.4-2.3,2.5c-1.9,2.3-4.7,5.7-7.4,10.6
				C6.7,38.6,4,44.9,2.7,52.5c-1.4,7.6-1.5,16.4,0.7,25.5c1.1,4.6,2.8,9.1,5,13.6c2.3,4.5,5.2,8.7,8.7,12.7c0.9,1,1.8,1.9,2.7,2.8
				l1.5,1.4l0.8,0.7l0.7,0.6l1.5,1.3c0.5,0.4,1.1,0.8,1.6,1.2c1,0.9,2.2,1.6,3.3,2.4c4.5,3,9.5,5.5,14.8,7.2
				c10.6,3.5,22.4,4.2,33.5,1.6c5.6-1.3,11-3.3,16.1-6.1c2.5-1.4,4.9-3,7.3-4.7c1.1-0.9,2.3-1.8,3.3-2.7l0.8-0.7
				c0.3-0.2,0.6-0.5,0.8-0.8l1.7-1.6l1.4-1.5c0.5-0.5,1-1.1,1.5-1.6c1-1.1,1.8-2.2,2.7-3.4c0.4-0.6,0.8-1.2,1.3-1.8
				c0.4-0.6,0.8-1.2,1.2-1.8c0.4-0.6,0.8-1.2,1.2-1.8l1.1-1.9c2.8-5,4.8-10.5,6.1-16.1c2.6-11.2,1.9-23-1.6-33.6
				c-1.7-5.3-4.2-10.3-7.2-14.8c-0.8-1.1-1.5-2.3-2.4-3.3c-0.4-0.5-0.8-1-1.2-1.6l-1.4-1.6c-0.8-1-1.8-1.9-2.7-2.9
				c-1-0.9-1.9-1.9-2.9-2.7c-4-3.5-8.2-6.4-12.7-8.7c-4.5-2.2-9.1-3.9-13.6-5c-9.1-2.2-18-2.1-25.5-0.7c-7.6,1.4-13.9,4-18.8,6.7
				c-4.9,2.7-8.3,5.4-10.6,7.4c-1.2,0.9-1.9,1.8-2.5,2.3C20.1,19.6,19.8,19.8,19.8,19.8z"/>
		</g>
	</g>
	<g>
		<polygon fill="#EFDB65" points="29.5,56.2 63.2,24.6 88,26.1 49.9,56.2 86.2,88.5 55.2,90.1 		"/>
		<polygon fill="#CDB64E" points="29.5,56.2 39.3,54.6 49.9,56.2 86.2,88.5 55.2,90.1 		"/>
		<linearGradient id="SVGID_1_" gradientUnits="userSpaceOnUse" x1="87.9567" y1="57.4249" x2="39.2576" y2="57.4249">
			<stop  offset="0" style="stop-color:#EFDB65"/>
			<stop  offset="0.2463" style="stop-color:#ECD763"/>
			<stop  offset="0.4896" style="stop-color:#E2CB5F"/>
			<stop  offset="0.7319" style="stop-color:#D2B757"/>
			<stop  offset="0.9722" style="stop-color:#BB9C4B"/>
			<stop  offset="1" style="stop-color:#B8984A"/>
		</linearGradient>
		<polygon fill="url(#SVGID_1_)" points="88,26.1 75.2,25.3 39.3,54.6 65.7,89.6 86.2,88.5 49.9,56.2 		"/>
	</g>
	<g>
		
			<text transform="matrix(1 0 0 1 27.6885 127.2956)" fill="#4A3F29" stroke="#CDB64E" stroke-width="2" stroke-miterlimit="10" font-family="'Meposa-Regular'" font-size="32.1641">BACK</text>
	</g>
</g>
</svg>
