<!-- Generator: Adobe Illustrator 18.1.1, SVG Export Plug-In  -->
<svg version="1.0"
	 xmlns="http://www.w3.org/2000/svg" xmlns:xlink="http://www.w3.org/1999/xlink" xmlns:a="http://ns.adobe.com/AdobeSVGViewerExtensions/3.0/"
	 x="0px" y="0px" width="65.7px" height="58.8px" viewBox="0 0 65.7 58.8" enable-background="new 0 0 65.7 58.8"
	 xml:space="preserve">
<defs>
</defs>
<g>
	<circle fill="#4E381A" cx="39.1" cy="32.1" r="24.5"/>
	<g>
		<path fill="#CEB64F" d="M21.7,14.7c0,0,0.4-0.4,1.3-1.2c0.4-0.4,1-0.8,1.6-1.3c0.3-0.2,0.7-0.5,1.1-0.8c0.4-0.2,0.8-0.5,1.3-0.8
			c1.8-1,4.2-2.2,7.1-2.8C36.9,7.2,40.3,7,44,7.5c3.6,0.6,7.5,2,11.1,4.5c0.5,0.3,0.9,0.7,1.3,1c0.4,0.4,0.8,0.6,1.3,1.1
			c0.8,0.8,1.5,1.4,2.3,2.4c1.6,1.8,2.7,3.8,3.7,6c1,2.2,1.6,4.6,2,7.1c0.3,2.5,0.2,5.1-0.2,7.6c-0.4,2.6-1.3,5.1-2.5,7.4
			c-1.2,2.4-2.9,4.5-4.7,6.4l-1.4,1.3c-0.4,0.4-1,0.8-1.5,1.2c-1.1,0.9-2.3,1.5-3.4,2.2c-2.4,1.2-4.9,2.1-7.4,2.5
			c-2.6,0.4-5.1,0.5-7.6,0.2c-2.5-0.4-4.9-1-7.1-2c-2.2-1-4.3-2.2-6-3.7c-0.9-0.7-1.7-1.5-2.5-2.3L21,50.4l-0.1-0.1l0,0l-0.1-0.1
			l-0.3-0.3L20,49.3c-0.3-0.4-0.7-0.8-1-1.2c-0.6-0.9-1.3-1.8-1.7-2.8c-0.2-0.5-0.5-0.9-0.7-1.4c-0.2-0.5-0.4-0.9-0.6-1.4
			c-0.8-1.9-1.2-3.8-1.6-5.6c-0.5-3.7-0.3-7.1,0.4-9.9c0.7-2.9,1.8-5.2,2.8-7.1c0.3-0.5,0.5-0.9,0.8-1.3c0.3-0.4,0.5-0.7,0.8-1.1
			c0.5-0.7,0.9-1.2,1.3-1.6C21.3,15.2,21.7,14.7,21.7,14.7z M21.7,14.7c0,0-0.4,0.4-1.2,1.3c-0.4,0.4-0.8,1-1.3,1.6
			c-0.2,0.3-0.5,0.7-0.8,1.1c-0.2,0.4-0.5,0.8-0.7,1.3c-1,1.8-2.1,4.2-2.5,7.1c-0.5,2.9-0.6,6.2,0.3,9.6c0.5,1.7,1,3.5,1.9,5.1
			c0.2,0.4,0.4,0.8,0.7,1.3c0.3,0.4,0.5,0.8,0.8,1.2c0.5,0.8,1.2,1.5,1.8,2.3c0.3,0.4,0.7,0.7,1.1,1.1l0.6,0.6l0.3,0.3
			c0.1,0.1,0,0,0,0l0,0l0.1,0.1l0.1,0.1c0.8,0.6,1.5,1.3,2.4,1.8c1.7,1.2,3.6,2,5.6,2.7c2,0.7,4.1,1,6.2,1.1
			c2.1,0.1,4.3-0.1,6.4-0.6c2.1-0.5,4.1-1.3,6-2.3c0.9-0.6,1.9-1.1,2.6-1.7c0.4-0.3,0.8-0.6,1.3-1l1.2-1.1c1.5-1.6,2.8-3.3,3.9-5.2
			c0.3-0.5,0.5-1,0.7-1.4c0.3-0.5,0.4-1,0.6-1.5c0.4-1,0.7-2,1-3.1c0.5-2.1,0.7-4.2,0.6-6.4c-0.1-2.1-0.5-4.2-1.1-6.2
			c-0.7-2-1.6-3.9-2.7-5.5c-0.5-0.8-1.2-1.7-1.9-2.5c-0.2-0.3-0.7-0.7-1-1.1c-0.4-0.3-0.7-0.7-1.1-1c-3-2.6-6.5-4.4-9.9-5.2
			c-3.4-0.9-6.8-0.8-9.6-0.3c-2.9,0.5-5.3,1.5-7.1,2.5c-0.5,0.3-0.9,0.5-1.3,0.7c-0.4,0.3-0.7,0.5-1.1,0.8c-0.7,0.5-1.2,0.9-1.6,1.3
			C22.2,14.3,21.7,14.7,21.7,14.7z"/>
	</g>
</g>
<g>
	<path fill="#4A3F29" stroke="#CEB64F" stroke-width="1.5" stroke-miterlimit="10" d="M0.8,18V0.8h5.3v11.5h4.5V18H0.8z"/>
	<path fill="#4A3F29" stroke="#CEB64F" stroke-width="1.5" stroke-miterlimit="10" d="M20.8,18h-4.9L10.9,0.8h5.6l2.2,9.6l2.2-9.6
		h5.1L20.8,18z"/>
	<path fill="#4A3F29" stroke="#CEB64F" stroke-width="1.5" stroke-miterlimit="10" d="M26.5,18V0.8h5.3v11.5h4.5V18H26.5z"/>
</g>
</svg>
