<!-- Generator: Adobe Illustrator 18.1.1, SVG Export Plug-In  -->
<svg version="1.0"
	 xmlns="http://www.w3.org/2000/svg" xmlns:xlink="http://www.w3.org/1999/xlink" xmlns:a="http://ns.adobe.com/AdobeSVGViewerExtensions/3.0/"
	 x="0px" y="0px" width="320.8px" height="33.1px" viewBox="0 0 320.8 33.1" enable-background="new 0 0 320.8 33.1"
	 xml:space="preserve">
<defs>
</defs>
<g>
	<path fill="#4A3F29" stroke="#CEB64F" stroke-width="3" stroke-miterlimit="10" d="M1.5,31.6V1.5h11.8c6.6,0,10,3.9,10,11.8v6.4
		c0,7.9-3.3,11.9-10,11.9H1.5z M13.3,21.1c1.5,0,2.2-0.9,2.2-2.8v-4.4c0-1.8-0.7-2.8-2.2-2.8h-4v9.9H13.3z"/>
	<path fill="#4A3F29" stroke="#CEB64F" stroke-width="3" stroke-miterlimit="10" d="M33.2,1.5h8.5l8.9,30.1h-9.3l-0.7-3h-6.2l-0.7,3
		h-9.4L33.2,1.5z M35.6,22h3.7l-1.8-7.9L35.6,22z"/>
	<path fill="#4A3F29" stroke="#CEB64F" stroke-width="3" stroke-miterlimit="10" d="M51.7,31.6V1.5H61v30.1H51.7z"/>
	<path fill="#4A3F29" stroke="#CEB64F" stroke-width="3" stroke-miterlimit="10" d="M63,31.6V1.5h9.3v20h7.8v10.1H63z"/>
	<path fill="#4A3F29" stroke="#CEB64F" stroke-width="3" stroke-miterlimit="10" d="M98.8,21.8v9.8h-9.5v-9.8L80.6,1.5h10.7l3.5,9.4
		l3.5-9.4h9.4L98.8,21.8z"/>
	<path fill="#4A3F29" stroke="#CEB64F" stroke-width="3" stroke-miterlimit="10" d="M129.3,1.5h8.5l8.9,30.1h-9.3l-0.7-3h-6.2
		l-0.7,3h-9.4L129.3,1.5z M131.7,22h3.7l-1.8-7.9L131.7,22z"/>
	<path fill="#4A3F29" stroke="#CEB64F" stroke-width="3" stroke-miterlimit="10" d="M157.5,11.3c-0.8,0-1.2,0.6-1.2,1.8v6.4
		c0,1.2,0.4,1.8,1.2,1.8h8.9v10.4H156c-1.2,0-2.4-0.3-3.4-0.9c-1-0.6-1.9-1.5-2.7-2.5c-0.8-1.1-1.3-2.3-1.8-3.8
		c-0.4-1.5-0.6-3-0.6-4.6v-6.4c0-1.6,0.2-3.2,0.6-4.6c0.4-1.4,1-2.7,1.8-3.8c0.8-1.1,1.6-1.9,2.7-2.5c1-0.6,2.2-0.9,3.4-0.9h10.4
		v9.8H157.5z"/>
	<path fill="#4A3F29" stroke="#CEB64F" stroke-width="3" stroke-miterlimit="10" d="M182.9,9.5v22.1h-9.4V9.5h-5.9v-8H189v8H182.9z"
		/>
	<path fill="#4A3F29" stroke="#CEB64F" stroke-width="3" stroke-miterlimit="10" d="M190.5,31.6V1.5h9.3v30.1H190.5z"/>
	<path fill="#4A3F29" stroke="#CEB64F" stroke-width="3" stroke-miterlimit="10" d="M218.3,31.6h-8.5l-8.9-30.1h9.8l3.8,16.7
		l3.8-16.7h8.9L218.3,31.6z"/>
	<path fill="#4A3F29" stroke="#CEB64F" stroke-width="3" stroke-miterlimit="10" d="M228.3,31.6V1.5h9.3v30.1H228.3z"/>
	<path fill="#4A3F29" stroke="#CEB64F" stroke-width="3" stroke-miterlimit="10" d="M254.4,9.5v22.1H245V9.5h-5.9v-8h21.3v8H254.4z"
		/>
	<path fill="#4A3F29" stroke="#CEB64F" stroke-width="3" stroke-miterlimit="10" d="M262,31.6V1.5h9.3v30.1H262z"/>
	<path fill="#4A3F29" stroke="#CEB64F" stroke-width="3" stroke-miterlimit="10" d="M273.3,31.6V1.5h20.8v7.4h-11V12h10.3v7.8h-10.3
		v3.3h11v8.5H273.3z"/>
	<path fill="#4A3F29" stroke="#CEB64F" stroke-width="3" stroke-miterlimit="10" d="M317.3,11.6h-12.4c-0.6,0-0.9,0.4-0.9,1.2
		c0,0.8,0.3,1.3,0.9,1.3h6.2c5.5,0,8.3,2.6,8.3,7.9c0,1.6-0.2,3-0.7,4.2c-0.4,1.2-1.1,2.2-1.8,3c-0.8,0.8-1.7,1.4-2.7,1.9
		c-1.1,0.4-2.2,0.6-3.4,0.6h-14.9l0.8-10.1h13.9c0.6,0,0.9-0.4,0.9-1.2c0-0.7-0.3-1.1-0.9-1.1h-6.3c-5.4,0-8-2.6-8-7.9
		c0-1.4,0.2-2.7,0.6-3.9c0.4-1.2,1-2.2,1.8-3.1c0.8-0.9,1.7-1.6,2.9-2.1c1.1-0.5,2.4-0.8,3.9-0.8h12.7L317.3,11.6z"/>
</g>
</svg>
