<!-- Generator: Adobe Illustrator 18.1.1, SVG Export Plug-In  -->
<svg version="1.0"
	 xmlns="http://www.w3.org/2000/svg" xmlns:xlink="http://www.w3.org/1999/xlink" xmlns:a="http://ns.adobe.com/AdobeSVGViewerExtensions/3.0/"
	 x="0px" y="0px" width="1065.6px" height="910.8px" viewBox="0 0 1065.6 910.8"
	 overflow="scroll" enable-background="new 0 0 1065.6 910.8" xml:space="preserve">
<defs>
</defs>
<g>
	<rect x="5.7" y="6.7" fill="#4A3F29" width="1052" height="896"/>
	<path fill="#CDB64E" d="M1057,7.5l-65,1.1l-65.8,0.9l-65.8,0.8l-65.8,0.6L729,11.5L663.2,12l-131.5,0.8l-131.5,0.5l-131.5,0.2
		l-65.8,0l-65.8-0.2l-65.8-0.3L5.7,12.4l5.7-5.7l-2.1,224l-0.8,112l-0.3,56l-0.2,56l0,112l0.1,56l0.2,56l0.3,56l0.4,56l0.9,112
		l-4.1-4.1l131.5-1.1l131.5-0.9l263-1.1l263-0.8l131.5-0.1l131.5,0.2l-7.9,7.9l0.4-112l0.5-112l0.6-112l0.7-112l0.9-112l1.1-112
		l1.3-112L1057,7.5z M1058.5,6l1.6,112.7l1.3,112l1.1,112l0.9,112l0.7,112l0.6,112l0.5,112l0.4,112l0,7.9l-7.9,0l-131.5,0.2
		l-131.5-0.1l-263-0.8l-263-1.1l-131.5-0.9L5.7,906.9l-4.1,0l0-4.1l0.9-112l0.4-56l0.3-56l0.2-56l0.1-56l0-112l-0.2-56l-0.3-56
		l-0.8-112L0.1,6.7L0,1.1l5.7,0l65.8-0.5l65.8-0.3L203,0l65.8,0l131.5,0.2l131.5,0.5l131.5,0.8L729,2l65.8,0.6l65.8,0.6L926.2,4
		L992,4.9L1058.5,6z"/>
</g>
</svg>
