<!-- Generator: Adobe Illustrator 18.1.1, SVG Export Plug-In  -->
<svg version="1.0"
	 xmlns="http://www.w3.org/2000/svg" xmlns:xlink="http://www.w3.org/1999/xlink" xmlns:a="http://ns.adobe.com/AdobeSVGViewerExtensions/3.0/"
	 x="0px" y="0px" width="39.8px" height="39.8px" viewBox="0 0 39.8 39.8" overflow="scroll" enable-background="new 0 0 39.8 39.8"
	 xml:space="preserve">
<defs>
</defs>
<g>
	<g>
		<circle fill="#221910" cx="19" cy="19" r="18.6"/>
		<g>
			<path fill="#CDB64E" d="M5.8,5.8c0,0,0.3-0.3,1-0.9c0.3-0.3,0.7-0.6,1.2-1c0.3-0.2,0.5-0.4,0.8-0.6c0.3-0.2,0.6-0.4,1-0.6
				c1.4-0.8,3.2-1.7,5.4-2.2c2.2-0.5,4.8-0.8,7.6-0.4c2.8,0.4,5.8,1.5,8.5,3.4c0.4,0.2,0.7,0.5,1,0.8c0.3,0.3,0.7,0.5,1,0.9
				c0.6,0.6,1.2,1.1,1.8,1.8c1.2,1.4,2.2,2.9,3,4.7c0.8,1.7,1.3,3.6,1.6,5.5c0.3,1.9,0.2,4-0.1,6c-0.3,2-1,4-1.9,5.8
				c-0.5,0.9-1,1.8-1.6,2.6c-0.3,0.4-0.6,0.8-1,1.2l-0.5,0.6l-0.3,0.3l-0.1,0.1L34,33.9l0,0c-0.1,0.1,0.1-0.1-0.1,0.1
				c-0.7,0.6-1.3,1.2-2.2,1.9c-0.9,0.7-1.8,1.2-2.7,1.7c-1.8,0.9-3.8,1.6-5.8,1.9c-2,0.3-4,0.4-6,0.1c-1.9-0.3-3.8-0.8-5.5-1.6
				c-3.4-1.5-6.2-4.1-8.1-6.7c-0.5-0.7-1-1.4-1.3-2.1c-0.2-0.4-0.4-0.7-0.5-1.1c-0.1-0.4-0.3-0.7-0.4-1.1c-0.6-1.4-0.9-2.9-1.1-4.3
				c-0.4-2.8-0.1-5.4,0.4-7.6c0.5-2.2,1.4-4,2.2-5.4c0.2-0.3,0.4-0.7,0.6-1C3.5,8.5,3.8,8.3,3.9,8c0.4-0.5,0.7-0.9,1-1.2
				C5.5,6.2,5.8,5.8,5.8,5.8z M5.8,5.8c0,0-0.3,0.3-0.9,1C4.6,7.1,4.3,7.5,4,8C3.8,8.3,3.6,8.6,3.4,8.9C3.2,9.2,3,9.5,2.8,9.8
				c-0.7,1.4-1.5,3.2-1.9,5.4c-0.4,2.2-0.4,4.7,0.3,7.3c0.4,1.3,0.8,2.6,1.5,3.8c0.2,0.3,0.3,0.6,0.5,0.9c0.2,0.3,0.4,0.6,0.6,0.9
				c0.4,0.6,0.9,1.1,1.3,1.7c2.1,2.3,4.7,3.9,7.7,4.9c1.5,0.5,3,0.7,4.6,0.8c1.6,0,3.1-0.2,4.7-0.5c1.5-0.4,3-1,4.4-1.7
				c0.7-0.4,1.4-0.8,1.9-1.3c0.6-0.3,1.3-1.1,2-1.7c-0.2,0.2,0,0-0.1,0.1l0,0l0-0.1l0.1-0.1l0.2-0.2l0.4-0.4
				c0.3-0.3,0.5-0.6,0.7-0.9c0.5-0.6,0.9-1.3,1.3-2c0.7-1.4,1.3-2.9,1.7-4.4c0.3-1.5,0.5-3.1,0.5-4.7c-0.1-1.6-0.3-3.1-0.8-4.6
				c-0.5-1.5-1.1-3-1.9-4.2c-0.3-0.6-0.9-1.3-1.4-1.9c-0.2-0.2-0.5-0.5-0.7-0.8c-0.3-0.3-0.5-0.6-0.8-0.8c-2.2-2-4.8-3.4-7.4-4
				c-2.6-0.7-5.1-0.7-7.3-0.3c-2.2,0.3-4,1.1-5.4,1.9C9.5,3,9.2,3.2,8.9,3.4C8.6,3.6,8.3,3.8,8,4c-0.5,0.4-0.9,0.7-1.2,1
				C6.2,5.5,5.8,5.8,5.8,5.8z"/>
		</g>
	</g>
	<polygon fill="#D1BC54" points="27.2,23.4 21.5,17.7 27.2,12.1 24.4,9.3 18.8,15 13.1,9.3 10.4,12.1 16,17.7 10.4,23.4 13.1,26.1 
		18.8,20.5 24.4,26.1 	"/>
</g>
</svg>
