<!-- Generator: Adobe Illustrator 18.1.1, SVG Export Plug-In  -->
<svg version="1.0"
	 xmlns="http://www.w3.org/2000/svg" xmlns:xlink="http://www.w3.org/1999/xlink" xmlns:a="http://ns.adobe.com/AdobeSVGViewerExtensions/3.0/"
	 x="0px" y="0px" width="177.6px" height="212.4px" viewBox="0 0 177.6 212.4" enable-background="new 0 0 177.6 212.4"
	 xml:space="preserve">
<defs>
</defs>
<g>
	<circle fill="#4E381A" cx="89.2" cy="124.6" r="82.5"/>
	<g>
		<path fill="#CEB64F" d="M30.8,66.3c0,0,0.4-0.4,1.1-1c0.7-0.7,1.7-1.7,3.2-2.9c2.8-2.5,7.2-6,13.4-9.6c3-1.8,6.6-3.5,10.6-5.2
			c4-1.6,8.4-3.1,13.2-4.2c9.7-2.2,21.1-3,33.3-1c12.2,2,25.1,7,36.6,15.6c1.5,1,2.8,2.2,4.3,3.4c0.7,0.6,1.4,1.2,2.1,1.8l1,0.9l1,1
			c0.6,0.6,1.3,1.3,1.9,1.9c0.6,0.6,1.3,1.4,1.9,2.1c1.3,1.4,2.5,2.9,3.7,4.3c2.4,3,4.6,6.1,6.6,9.5c1,1.7,1.9,3.4,2.9,5.1
			c0.4,0.9,0.9,1.8,1.3,2.7l0.6,1.4l0.6,1.4c3.1,7.4,5.2,15.3,6.2,23.6c0.9,8.2,0.7,16.7-0.8,25.1c-3,16.8-11.4,32.9-23.7,45.2
			l-2.3,2.2c-0.4,0.4-0.7,0.7-1.1,1.1l-1.3,1.1c-0.9,0.7-1.7,1.5-2.6,2.1l-2.6,2c-3.5,2.5-7.2,4.9-11,6.9c-3.8,2-7.8,3.7-11.9,5.1
			c-4.1,1.4-8.2,2.5-12.4,3.2c-8.4,1.6-16.9,1.8-25.1,0.9c-8.2-1-16.2-3.1-23.6-6.2l-1.4-0.6l-1.4-0.6c-0.9-0.4-1.8-0.8-2.7-1.3
			c-1.7-1-3.5-1.8-5.1-2.9c-3.4-2-6.5-4.3-9.5-6.6c-1.5-1.2-2.9-2.4-4.3-3.7c-0.7-0.6-1.4-1.3-2.1-1.9c-0.7-0.7-1.3-1.3-2-2l-1-1
			l-0.9-1c-0.6-0.7-1.2-1.3-1.8-2c-1.1-1.4-2.4-2.9-3.4-4.3C13.9,166.1,9,153.1,7,141c-2-12.2-1.2-23.6,1-33.3
			c1.1-4.8,2.5-9.3,4.2-13.2c1.6-4,3.3-7.5,5.2-10.6c3.6-6.1,7-10.5,9.6-13.4c1.2-1.5,2.3-2.5,2.9-3.2
			C30.5,66.7,30.8,66.3,30.8,66.3z M30.8,66.3c0,0-0.3,0.4-1,1.1c-0.7,0.7-1.7,1.7-2.9,3.2c-2.5,2.9-6,7.2-9.4,13.4
			c-3.4,6.2-6.8,14.2-8.6,23.9c-1.8,9.6-2.1,20.9,0.7,32.6c1.4,5.8,3.4,11.7,6.2,17.5c2.8,5.7,6.5,11.3,10.9,16.4
			c1.1,1.3,2.2,2.5,3.4,3.7c0.6,0.6,1.3,1.2,1.9,1.9l1,0.9l0.9,0.8c0.6,0.6,1.3,1.1,1.9,1.7c0.7,0.6,1.4,1.1,2,1.6
			c1.3,1.1,2.8,2.1,4.2,3.1c2.9,1.9,5.9,3.8,9.1,5.4c3.2,1.6,6.5,3,9.9,4.2c6.8,2.4,14,3.8,21.4,4.2c3.7,0.2,7.4,0.2,11.1-0.1
			l2.8-0.3c0.9-0.1,1.8-0.3,2.8-0.4c0.9-0.1,1.8-0.3,2.7-0.5c0.9-0.2,1.8-0.3,2.7-0.5c7.3-1.6,14.3-4.3,20.9-7.9
			c3.3-1.8,6.4-3.9,9.4-6.1l2.2-1.7c0.8-0.6,1.4-1.2,2.1-1.8l1-0.9c0.3-0.3,0.7-0.7,1.1-1l2.1-2c2.6-2.7,5.1-5.5,7.4-8.5
			c0.6-0.7,1.1-1.5,1.6-2.3l0.8-1.2l0.8-1.2c0.5-0.8,1-1.6,1.5-2.4l1.4-2.4c3.6-6.6,6.2-13.6,7.9-20.9c3.2-14.5,2.3-29.8-2.4-43.4
			l-0.4-1.3l-0.5-1.3c-0.3-0.8-0.7-1.7-1-2.5c-0.7-1.6-1.4-3.3-2.3-4.9c-1.6-3.2-3.4-6.2-5.4-9.1c-1-1.4-2-2.9-3.1-4.2
			c-0.5-0.7-1-1.3-1.6-2c-0.6-0.7-1.2-1.3-1.8-2l-0.8-0.9l-0.9-0.9c-0.6-0.6-1.2-1.2-1.8-1.8c-1.3-1.2-2.5-2.4-3.8-3.4
			c-5.1-4.4-10.6-8.1-16.4-10.9c-5.8-2.8-11.7-4.9-17.5-6.2c-11.7-2.7-23-2.5-32.6-0.7c-9.7,1.8-17.7,5.2-23.9,8.6
			c-6.2,3.4-10.6,6.9-13.4,9.4c-1.5,1.2-2.5,2.3-3.2,2.9C31.2,65.9,30.8,66.3,30.8,66.3z"/>
	</g>
</g>
<g>
	<path fill="#221910" d="M56.2,27.3c0,0-4.2-12.3,2.9-12.2c7.2,0.1,14.8,9.3,9.8,19.3S49.7,52,40.8,33.1S50.2-8.8,65.2,6.2
		s21.4,27.4,12.1,40s-14.5,19.1-10,30c4.5,10.8,8.8,18.2,4.4,28s7.4,28.5,7.4,28.5l-7.1,2.7c0,0-9.2-22.3-8.2-36.2
		c1-13.8-9.5-20.1-9.9-27.1c-1-21.1,10.5-20.8,11.1-31"/>
	<path fill="#CEB64F" d="M56,27.4c-0.5-1.3-0.9-2.7-1.2-4.1c-0.3-1.4-0.5-2.8-0.4-4.4c0.1-0.8,0.2-1.5,0.6-2.3
		c0.3-0.8,0.9-1.5,1.7-1.9c0.8-0.4,1.7-0.6,2.5-0.6c0.1,0,0,0,0.2,0l0.1,0l0.1,0l0.3,0l0.5,0c0.3,0,0.8,0.1,1.2,0.2
		c0.8,0.1,1.5,0.4,2.3,0.7c0.7,0.3,1.4,0.7,2,1.1c1.3,0.8,2.4,1.9,3.4,3.1l0.7,0.9c0.2,0.3,0.4,0.7,0.6,1c0.4,0.7,0.7,1.4,1,2.1
		c0.5,1.5,0.8,3,0.8,4.6c0.1,3.2-1,6.3-2.5,8.9c-1.6,2.7-3.6,5-6.1,6.8c-2.5,1.8-5.6,3.2-9,3.2c-1.7,0-3.4-0.3-4.9-0.9
		c-1.5-0.6-2.9-1.5-4.2-2.5c-2.5-2-4.2-4.6-5.7-7.2c-0.4-0.7-0.7-1.3-1-2l-0.5-1.1c-0.1-0.3-0.3-0.6-0.4-1c-0.2-0.8-0.5-1.5-0.7-2.3
		c-0.2-0.7-0.4-1.5-0.5-2.2c-1.1-6,0-12.4,3-17.7c1.5-2.6,3.5-5,6-6.9c1.2-0.9,2.6-1.7,4.1-2.2c1.5-0.6,3-0.9,4.6-0.9
		c3.2-0.1,6.2,1.1,8.6,2.8c0.6,0.5,1.2,0.9,1.7,1.4c0.5,0.5,1.1,1,1.6,1.6c1,1,1.9,2,2.9,3.1C70,10,71,11,71.9,12.1l1.4,1.6l1.3,1.7
		c0.9,1.1,1.7,2.3,2.5,3.5c0.4,0.6,0.7,1.2,1.1,1.8l0.6,0.9l0.5,1c1.4,2.5,2.4,5.2,2.9,8.1c0.5,2.9,0.4,5.9-0.3,8.7
		c-0.8,2.8-2.3,5.4-3.9,7.8c-1.6,2.3-3.2,4.6-4.7,6.9c-3,4.6-5.9,9.5-5.7,14.6c0.1,2.5,0.9,4.9,2,7.4c1.1,2.6,2.3,5.1,3.4,7.7
		c1.1,2.7,2.1,5.4,2.6,8.5c0.5,3,0.5,6.3-0.4,9.3c-0.2,0.7-0.4,1.5-0.7,2.2L74,105l-0.3,0.9c-0.1,0.3-0.1,0.5-0.2,0.7l-0.1,0.8
		c-0.1,0.6-0.1,1.2-0.1,1.8c0,2.4,0.6,5,1.4,7.5c1.6,5,4.1,10,6.8,14.6l1.6,2.8l-2.9,1.1l-7.1,2.7l-2.5,1l-1-2.4c-0.8-2-1.6-4-2.3-6
		c-0.7-2-1.3-4-1.9-6.1c-1.2-4.1-2.3-8.2-3-12.5c-0.4-2.1-0.6-4.3-0.8-6.5c-0.1-1.1-0.1-2.2-0.1-3.3l0.1-3.2c0-1,0.1-2.2,0-3
		c0-0.5,0-0.9-0.1-1.4L61.4,93c-0.4-1.9-0.9-3.7-1.7-5.5c-0.8-1.8-1.8-3.5-2.9-5.3c-1.1-1.8-2.2-3.6-3.2-5.7c-0.4-1.1-0.9-2.2-1-3.5
		c0-0.3-0.1-0.6-0.1-1l0-0.8l0-1.6c0-0.5,0-1,0-1.6l0.2-1.7c0.1-0.5,0.1-1.1,0.2-1.6l0.3-1.6c0.4-2.2,1.1-4.3,2-6.3
		c0.9-2,2.2-3.8,3.6-5.5c1.4-1.7,2.8-3.1,4-4.8c1.2-1.6,2-3.5,2.2-5.6l0.5,0c0,2.1-0.6,4.3-1.8,6.2c-1.1,1.9-2.5,3.5-3.6,5.2
		c-1.2,1.7-2.2,3.4-2.9,5.3c-0.7,1.9-1.2,3.8-1.4,5.8l-0.2,1.5c0,0.5,0,1-0.1,1.5l0,1.5c0,0.5,0,1,0,1.6l0.1,1.6l0,0.8l0.1,0.6
		c0.1,0.8,0.5,1.7,0.9,2.5c0.9,1.7,2.1,3.3,3.3,5.1c1.2,1.8,2.4,3.6,3.4,5.6c1,2,1.8,4.1,2.3,6.4l0.3,1.7c0.1,0.6,0.1,1.2,0.2,1.8
		c0.1,1.3,0.1,2.2,0.1,3.3l0,3.1c0.1,1,0.1,2,0.2,3c0.2,2,0.5,4,0.9,6c0.8,4,1.9,8,3.1,11.9c0.6,2,1.3,3.9,2,5.9
		c0.7,1.9,1.4,3.9,2.2,5.8l-3.4-1.5l7.1-2.7l-1.3,3.9c-1.6-2.6-2.9-5.1-4.1-7.7c-1.2-2.6-2.3-5.4-3.1-8.2c-0.8-2.9-1.4-5.8-1.4-9
		c0-0.8,0.1-1.6,0.2-2.4c0.1-0.4,0.1-0.8,0.2-1.2c0.1-0.4,0.3-0.9,0.4-1.3l0.8-2c0.3-0.6,0.4-1.2,0.6-1.8c1.5-4.8,0.3-9.9-1.7-15
		c-1-2.5-2.1-5.2-3.1-7.8c-0.3-0.6-0.5-1.4-0.8-2.1c-0.3-0.7-0.4-1.5-0.6-2.2c-0.4-1.5-0.5-3.1-0.5-4.6c0.1-3.1,1.1-6.1,2.4-8.7
		c1.3-2.6,3-5,4.7-7.3c1.7-2.3,3.4-4.5,5.1-6.7c1.6-2.2,3.1-4.5,3.9-7c0.8-2.6,0.9-5.3,0.5-7.9c-0.4-2.7-1.4-5.3-2.7-7.7
		c-0.3-0.6-0.6-1.2-1-1.8c-0.4-0.6-0.7-1.2-1.1-1.8c-0.8-1.1-1.6-2.3-2.5-3.4L72,14.8l-1.4-1.6c-0.9-1.1-1.9-2-2.8-3c-1-1-2-2-3-3
		c-0.5-0.5-1-0.9-1.5-1.3c-0.5-0.4-1.1-0.8-1.6-1.2c-2.2-1.4-4.7-2.2-7.2-1.9c-1.2,0.1-2.4,0.4-3.6,0.9c-1.1,0.5-2.2,1.2-3.2,2
		c-2,1.6-3.5,3.8-4.7,6c-1.1,2.3-1.9,4.8-2.2,7.4c-0.3,2.6-0.2,5.1,0.2,7.6c0.1,0.6,0.3,1.2,0.4,1.9c0.2,0.6,0.4,1.2,0.6,1.7
		c0.1,0.3,0.3,0.6,0.4,1l0.4,0.9c0.3,0.6,0.6,1.2,0.9,1.8c1.3,2.3,2.7,4.4,4.6,6c1.8,1.6,4,2.6,6.3,2.6c2.3,0,4.6-0.8,6.7-2.2
		c2.1-1.4,3.9-3.3,5.2-5.5c1.4-2.2,2.3-4.5,2.4-7c0.1-2.5-0.6-4.9-2.1-7c-0.7-1-1.6-2-2.6-2.7c-0.5-0.4-1-0.7-1.6-1
		c-0.6-0.2-1.2-0.6-1.7-0.7c-0.3-0.1-0.5-0.2-0.9-0.2l-1-0.1c-0.6,0-1.1,0-1.6,0.3c-0.9,0.4-1.5,1.5-1.7,2.8c-0.2,1.3-0.2,2.7,0,4
		c0.1,1.4,0.4,2.7,0.7,4.1L56,27.4z"/>
</g>
<g>
	<path fill="#221910" d="M116.6,38.5c0,0-16.6,28.7-50.5,20.6c0,0-3.9,37.5,19.7,62.6s25.2,21.3,31.6-3.7
		C123.7,93,133.2,84.9,116.6,38.5z"/>
	<g>
		<path fill="#CEB64F" d="M116.6,38.9c-1.1,2-2.5,4-4,5.8c-0.8,1-1.6,1.9-2.4,2.8c-0.8,0.9-1.7,1.8-2.6,2.6
			c-0.9,0.8-1.9,1.6-2.8,2.4c-1,0.8-2,1.5-3,2.2c-1,0.7-2.1,1.3-3.2,1.9c-1.1,0.6-2.2,1.1-3.3,1.7c-1.1,0.5-2.3,1-3.5,1.4
			c-0.6,0.2-1.2,0.4-1.8,0.6c-0.6,0.2-1.2,0.4-1.8,0.5L86.3,61c-0.6,0.1-1.2,0.2-1.8,0.3c-0.6,0.1-1.2,0.2-1.9,0.2
			c-0.6,0.1-1.2,0.1-1.9,0.2c-1.2,0-2.5,0.1-3.7,0.1l-1.9,0l-1.9-0.2c-1.3-0.1-2.5-0.3-3.7-0.5c-1.2-0.2-2.4-0.5-3.7-0.7l1.6-1.2
			c-0.4,4-0.4,8.2-0.2,12.4c0.2,4.1,0.6,8.3,1.3,12.4c0.7,4.1,1.6,8.2,2.9,12.1c1.3,4,2.9,7.8,4.9,11.5c2,3.7,4.3,7.1,7,10.3
			c2.7,3.2,5.7,6.1,8.7,9c3,2.9,6.1,5.8,9.4,8.1c1.7,1.1,3.5,2.2,5.2,2.5c0.8,0.1,1.6,0,2.2-0.4c0.7-0.4,1.2-1.1,1.7-1.9
			c1-1.6,1.7-3.6,2.3-5.5c0.6-2,1.2-4,1.7-6c1-4,2-8.1,3.1-12.2c1.1-4.1,2.4-8.1,3.6-12.1c1.1-4,2.1-8,2.7-12
			c0.5-4,0.6-8.2,0.4-12.3c-0.3-4.1-0.8-8.2-1.6-12.3c-0.7-4.1-1.7-8.2-2.8-12.2C118.9,46.7,117.7,42.8,116.6,38.9z M116.8,38.4
			c1.6,3.9,3.1,7.8,4.5,11.8c1.3,4,2.6,8,3.6,12.1c1,4.1,1.7,8.3,2.2,12.6c0.4,4.2,0.5,8.6,0,12.9c-0.2,2.1-0.6,4.3-1,6.4
			c-0.5,2.1-1,4.1-1.6,6.2c-1.2,4.1-2.6,8-3.8,12c-1.2,4-2.2,8-3.3,12.1c-0.6,2-1.2,4.1-1.9,6.1c-0.7,2-1.5,4.1-2.7,6
			c-0.6,1-1.4,1.9-2.6,2.6c-1.1,0.7-2.6,0.9-3.8,0.7c-2.4-0.5-4.3-1.8-6-3.1c-3.4-2.7-6.3-5.7-9.3-8.7c-1.5-1.5-2.9-3.1-4.3-4.6
			c-0.7-0.8-1.4-1.5-2.1-2.3c-0.7-0.8-1.4-1.6-2-2.4c-2.6-3.3-5-6.8-7-10.5c-2-3.7-3.7-7.6-5.2-11.5c-1.5-4-2.6-8-3.5-12.2
			c-0.9-4.1-1.5-8.3-1.9-12.6c-0.2-2.1-0.3-4.2-0.3-6.4c0-2.1,0-4.2,0.2-6.4l0.1-1.5l1.5,0.3c1.2,0.2,2.3,0.5,3.5,0.7
			c1.2,0.1,2.3,0.4,3.5,0.5l1.8,0.2l1.8,0.1c1.2,0.1,2.4,0,3.5,0c1.2-0.1,2.4-0.2,3.5-0.3l1.8-0.3l1.7-0.3c0.6-0.1,1.1-0.3,1.7-0.4
			c0.6-0.1,1.1-0.3,1.7-0.5c0.6-0.2,1.1-0.4,1.7-0.6l1.7-0.6c1.1-0.5,2.2-0.9,3.2-1.5c1.1-0.5,2.1-1.1,3.1-1.7c1-0.6,2-1.3,3-1.9
			c1-0.7,1.9-1.4,2.9-2.2c0.9-0.8,1.8-1.5,2.7-2.3c0.9-0.8,1.7-1.7,2.6-2.5c0.8-0.9,1.6-1.8,2.4-2.7c0.8-0.9,1.5-1.9,2.2-2.9
			l0.2-0.2L116.8,38.4z"/>
	</g>
</g>
<g>
	<g>
		<g>
			<polygon fill="#221910" points="14.9,20.6 28.7,67.7 38.6,62.7 19.5,17.8 			"/>
			<g>
				<path fill="#CEB64F" d="M15.1,20.6c0.8,1.9,1.5,3.7,2.2,5.6c0.7,1.9,1.4,3.9,2.1,5.8c0.3,1,0.6,1.9,1,2.9c0.3,1,0.7,1.9,0.9,2.9
					c0.6,2,1.2,3.9,1.8,5.9c1.1,3.9,2,7.9,2.9,11.9c0.5,2,0.9,4,1.5,6c0.5,2,1.1,3.9,1.7,5.9l-0.7-0.3c1.6-0.9,3.2-1.7,4.8-2.6
					l4.8-2.7l-0.5,1.3c-1.8-3.6-3.5-7.3-5.2-11.1L30,46.5c-0.8-1.9-1.6-3.7-2.4-5.6c-0.4-0.9-0.8-1.9-1.2-2.8l-1.1-2.8
					c-0.8-1.9-1.5-3.8-2.2-5.7c-1.4-3.8-2.8-7.6-4.1-11.5l0.9,0.3C18.2,19.1,16.7,19.9,15.1,20.6z M14.8,20.4
					c1.4-1.1,2.9-2.1,4.4-3.2l0.6-0.4l0.4,0.7c1.9,3.6,3.7,7.3,5.4,11c0.9,1.8,1.7,3.7,2.6,5.5l1.2,2.8c0.4,0.9,0.8,1.9,1.2,2.8
					c0.8,1.9,1.6,3.7,2.3,5.6l2.3,5.7c1.5,3.8,3,7.6,4.4,11.4l0.3,0.9L39,63.6l-5.1,2.2c-1.7,0.7-3.4,1.5-5,2.3l-0.5,0.2l-0.2-0.5
					c-0.5-2-1.1-3.9-1.7-5.9c-0.6-1.9-1.3-3.9-2-5.8c-1.4-3.8-2.9-7.7-4-11.6c-0.6-2-1.1-3.9-1.7-5.9c-0.3-1-0.5-2-0.8-3
					c-0.3-1-0.5-2-0.8-3c-0.5-2-1-4-1.4-6c-0.4-2-0.8-4-1.2-6.1L14.8,20.4L14.8,20.4z"/>
			</g>
		</g>
		<g>
			<path fill="#221910" d="M35.8,63.5L2.5,49l62.8,113.4c0,0,6.4,5.2,6.4-1.4c0-6.6-29.9-129-29.9-129L35.8,63.5z"/>
			<g>
				<path fill="#CEB64F" d="M35.8,63.7c-2.8-1.1-5.7-2.2-8.5-3.3L18.9,57C13.2,54.7,7.6,52.4,2,50l1.4-1.5l8,14.1l7.9,14.1
					c2.6,4.7,5.2,9.5,7.8,14.2l7.6,14.3l7.6,14.3c2.5,4.8,5.1,9.5,7.7,14.2l3.9,7.1l4,7.1c2.6,4.7,5.4,9.4,8.1,14.1l-0.2-0.2
					c1.1,0.8,2.4,1.6,3.5,1.7c0.6,0,0.9-0.1,1.1-0.5c0.2-0.4,0.3-1,0.3-1.7l0-0.2l0-0.1c0,0,0,0.1,0,0l0,0l0-0.1l-0.1-0.5l-0.2-1.1
					c-0.1-0.7-0.3-1.4-0.4-2.1c-0.3-1.4-0.6-2.8-0.9-4.2l-2-8.6l-2-8.6L61,118.5l-4.2-17.2L52.7,84l-4-17.2l-3.9-17.3l-2-8.6
					l-1.9-8.6l1.9-0.1l-3.3,15.7c-1.1,5.2-2.3,10.4-3.4,15.7l0,0.2L35.8,63.7z M35.7,63.3c0.8-5.2,1.6-10.4,2.4-15.6l2.6-15.8
					l0.7-4.5l1.2,4.5c0.8,2.9,1.5,5.7,2.3,8.6l2.2,8.6l4.4,17.2l4.2,17.2l4.1,17.2l3.9,17.3c1.3,5.8,2.6,11.5,3.8,17.3
					c1.2,5.8,2.5,11.5,3.6,17.4c0.3,1.4,0.5,3,0.8,4.4c0.1,0.7,0.3,1.5,0.3,2.2l0.1,1.1l0.1,0.5l0,0.1l0,0l0,0.1l0,0.1l0,0.3
					c-0.1,0.8-0.1,1.7-0.7,2.6c-0.3,0.4-0.7,0.8-1.2,1c-0.5,0.2-1,0.2-1.5,0.2c-0.9-0.1-1.7-0.5-2.4-0.8c-0.7-0.4-1.3-0.8-2-1.3
					l-0.1-0.1l-0.1-0.1c-2.5-4.8-5.1-9.5-7.6-14.3l-3.9-7.1l-3.9-7.1c-2.6-4.7-5.3-9.4-8-14.1l-8.1-14l-8.1-14
					c-2.7-4.7-5.3-9.4-7.9-14.1L9.2,63.8L1.5,49.6L0,46.7L2.9,48c5.5,2.5,11,5,16.5,7.6l8.2,3.9C30.4,60.7,33,62,35.7,63.3z"/>
			</g>
		</g>
		<g>
			<polygon fill="#221910" points="27.2,47.5 26.7,61.3 36.3,68.7 37.4,54.8 			"/>
			<g>
				<path fill="#CEB64F" d="M27.4,47.9c0.2,1,0.4,2,0.5,3c0.1,1.2,0.2,2.3,0.3,3.5c0.1,2.3,0.1,4.6-0.3,6.9l-0.5-1
					c1.5,1.4,2.8,3,4.4,4.3c0.4,0.3,0.8,0.6,1.2,0.9c0.4,0.3,0.8,0.6,1.2,0.9c0.8,0.6,1.7,1.1,2.6,1.6l-1.3,0.6
					c0-1.2-0.1-2.3-0.1-3.5c0-1.2,0-2.3,0-3.5c0.1-2.3,0.1-4.6,0.4-7l0.7,1.4c-1.7-1.3-3.3-2.6-4.8-4C30.2,50.8,28.8,49.4,27.4,47.9
					z M27.3,47.4c2,0.8,3.8,1.8,5.7,2.9c1.8,1,3.6,2.2,5.3,3.3L39,54l0,0.9c-0.1,2.3-0.4,4.6-0.7,6.9c-0.1,1.2-0.3,2.3-0.5,3.5
					c-0.2,1.1-0.5,2.3-0.7,3.4l-0.3,1.5l-1-1c-0.7-0.7-1.5-1.4-2.2-2.1c-0.4-0.3-0.8-0.6-1.2-1c-0.4-0.3-0.8-0.6-1.2-0.9
					c-1.6-1.2-3.5-2.1-5.2-3.2L25.6,62l-0.1-0.7c-0.2-2.3,0-4.6,0.2-6.9c0.1-1.1,0.3-2.3,0.5-3.4c0.2-1.1,0.4-2.3,0.8-3.4l0.1-0.2
					L27.3,47.4z"/>
			</g>
		</g>
		<g>
			<polygon fill="#221910" points="5.6,6.7 7.3,18.3 14.8,24.8 23,21.8 23.1,10.6 14.8,3.1 			"/>
			<g>
				<path fill="#CEB64F" d="M5.8,6.8c0.3,0.9,0.6,1.8,0.9,2.7c0.3,0.9,0.5,1.9,0.8,2.9c0.5,1.9,0.8,3.8,1.2,5.8l-0.4-0.8
					c1.3,1,2.5,2.2,3.6,3.4c1.1,1.2,2.2,2.5,3.4,3.7l-0.6-0.1c0.7-0.2,1.4-0.4,2.1-0.6c0.7-0.2,1.4-0.5,2.1-0.8
					c1.4-0.5,2.7-1.1,4-1.8l-0.5,0.7c-0.2-1.9-0.4-3.7-0.5-5.6c-0.1-1.9-0.1-3.7-0.2-5.6l0.5,1.1c-1.4-1.2-2.9-2.4-4.2-3.7
					c-1.4-1.3-2.7-2.6-4-3.9l1.4,0.3c-1.6,0.5-3.2,1-4.8,1.4C9,6.1,7.4,6.5,5.8,6.8z M5.5,6.6C7,5.7,8.4,4.9,9.9,4.1
					c1.5-0.8,2.9-1.5,4.4-2.2L15,1.5l0.7,0.6c1.5,1.2,2.9,2.3,4.3,3.6c1.4,1.2,2.8,2.5,4.1,3.8l0.5,0.5l0,0.6
					c-0.1,1.9-0.2,3.7-0.3,5.6c-0.1,1.9-0.4,3.7-0.6,5.6l-0.1,0.6l-0.4,0.1c-1.4,0.4-2.8,0.8-4.2,1.3c-0.7,0.2-1.4,0.5-2.1,0.8
					c-0.7,0.3-1.3,0.6-2,0.9l-0.3,0.1l-0.3-0.2c-1.3-1-2.8-1.9-4.1-2.8c-1.4-0.9-2.6-2-3.9-3.1L6,19L6,18.5
					c-0.2-1.9-0.4-3.9-0.5-5.8c-0.1-1-0.1-2-0.1-2.9c0-1,0-2,0.1-3L5.5,6.6L5.5,6.6z"/>
			</g>
		</g>
	</g>
</g>
<g>
	<g>
		<polygon fill="#221910" points="132.2,75.1 133.9,41.7 127,39.4 125.4,74.5 		"/>
		<g>
			<path fill="#CEB64F" d="M132.2,75.1c-0.1-2.8-0.2-5.6-0.2-8.4c0-2.8,0-5.6,0-8.4c0.1-2.8,0.1-5.6,0.2-8.4
				c0.1-2.8,0.2-5.6,0.3-8.4l1,1.5l-6.9-2.2l2-1.4l-0.2,4.4l-0.2,4.4c-0.1,1.5-0.2,2.9-0.3,4.4l-0.3,4.4c-0.1,1.5-0.2,2.9-0.3,4.4
				l-0.4,4.4l-0.4,4.4l-0.5,4.4l-0.5-0.5C127.7,74.3,129.9,74.7,132.2,75.1z M132.2,75.1c-2.3,0-4.6,0-6.8-0.1l-0.5,0l0-0.5l0-4.4
				l0-4.4l0-4.4c0-1.5,0-2.9,0.1-4.4l0.1-4.4c0-1.5,0.1-2.9,0.1-4.4l0.2-4.4l0.2-4.4l0.1-2l1.9,0.6l6.8,2.3l1.1,0.4l-0.1,1.1
				c-0.2,2.8-0.4,5.6-0.6,8.3c-0.2,2.8-0.5,5.6-0.7,8.3c-0.3,2.8-0.5,5.6-0.8,8.3C132.9,69.5,132.6,72.3,132.2,75.1z"/>
		</g>
	</g>
	<g>
		<polygon fill="#221910" points="119.2,112.7 110.7,56.8 132.2,75.1 127.6,112.1 		"/>
		<g>
			<path fill="#CEB64F" d="M119,112.7c-0.6-2.3-1.1-4.6-1.6-6.9c-0.5-2.3-1-4.6-1.4-6.9c-0.2-1.2-0.4-2.3-0.6-3.5
				c-0.2-1.2-0.4-2.3-0.6-3.5c-0.4-2.3-0.8-4.6-1.1-7c-0.3-2.3-0.6-4.7-0.9-7l-0.7-7c-0.1-1.2-0.2-2.3-0.4-3.5
				c-0.1-1.2-0.3-2.3-0.4-3.5c-0.2-1.2-0.3-2.3-0.5-3.5l-0.6-3.5l-0.2-1.3l1,0.8c3.6,3,7.4,5.8,11.1,8.7c3.7,2.9,7.4,5.9,11,8.8
				l0.6,0.5l-0.1,0.8c-0.3,3.1-0.6,6.2-1,9.3c-0.2,1.5-0.4,3.1-0.6,4.6l-0.6,4.6c-0.2,1.5-0.5,3.1-0.7,4.6c-0.2,1.5-0.5,3.1-0.7,4.6
				c-0.5,3.1-1,6.1-1.6,9.2l-0.1,0.7l-0.6,0c-1.4,0-2.8,0-4.3,0c-1.4,0-2.8,0-4.3,0l-0.1,0L119,112.7z M119.3,112.5
				c1.4-0.2,2.7-0.4,4.1-0.6c1.4-0.2,2.8-0.4,4.2-0.6l-0.7,0.7c0.2-3.1,0.4-6.2,0.7-9.3c0.1-1.5,0.3-3.1,0.4-4.6
				c0.2-1.5,0.3-3.1,0.4-4.6l0.5-4.6c0.2-1.5,0.4-3.1,0.6-4.6c0.4-3.1,0.8-6.2,1.2-9.2l0.5,1.3c-3.5-3.1-7.1-6.2-10.5-9.4
				c-3.4-3.2-6.8-6.5-10.4-9.6l0.8-0.5l0.5,3.5c0.2,1.2,0.4,2.3,0.6,3.5c0.2,1.2,0.4,2.3,0.6,3.5c0.2,1.2,0.5,2.3,0.7,3.5l1.5,6.9
				c0.5,2.3,0.9,4.6,1.3,6.9c0.4,2.3,0.7,4.7,1,7c0.2,1.2,0.3,2.3,0.4,3.5c0.1,1.2,0.3,2.3,0.4,3.5c0.3,2.3,0.5,4.7,0.7,7
				C119,107.9,119.2,110.2,119.3,112.5z"/>
		</g>
	</g>
</g>
<g>
	<path fill="#221910" d="M23.8,96.4l53,18.6l61.8-33.1c0,0-8.3,42.2-4.7,61.3l-43.4,44.9l-61.8-21.1L23.8,96.4z"/>
	<g>
		<path fill="#CEB64F" d="M23.9,96.2c4.5,1.3,9,2.6,13.5,4c4.5,1.4,9,2.8,13.4,4.2c4.5,1.4,8.9,2.9,13.4,4.3c4.5,1.4,8.9,3,13.3,4.4
			l-1.6,0.1c5.1-2.9,10.3-5.6,15.4-8.4c2.6-1.4,5.1-2.8,7.7-4.2l7.7-4.1l7.8-4c2.6-1.4,5.2-2.6,7.8-4l15.7-7.8l2.7-1.3l-0.6,2.8
			c-0.6,2.5-1.1,5-1.6,7.5l-0.7,3.8c-0.2,1.3-0.5,2.5-0.7,3.8c-0.4,2.5-0.8,5.1-1.2,7.6c-0.3,2.5-0.7,5.1-0.9,7.6
			c-0.3,2.6-0.5,5.1-0.6,7.7c-0.1,1.3-0.2,2.6-0.2,3.8c-0.1,1.3-0.1,2.6-0.1,3.8c0,2.6,0,5.1,0.2,7.7c0.1,1.3,0.2,2.5,0.4,3.8
			l0.3,1.9l0.4,1.8l0.1,0.6l-0.4,0.5l-10.6,11.5c-3.5,3.9-7,7.7-10.6,11.5l-5.3,5.7l-5.3,5.7l-10.7,11.3l-1,1.1l-1.5-0.5l-15.5-5.1
			l-7.7-2.6c-2.6-0.9-5.2-1.7-7.7-2.7l-7.7-2.7c-2.6-0.9-5.1-1.8-7.7-2.7c-5.1-1.9-10.2-3.7-15.3-5.6l-1.3-0.5l-0.1-1.3l-0.9-17.7
			l-0.8-17.7c-0.3-5.9-0.5-11.8-0.7-17.7c-0.2-5.9-0.5-11.8-0.6-17.7l0-0.4L23.9,96.2z M24.1,96.8c0.6,5.7,1.2,11.5,1.8,17.2
			c0.6,5.9,1.2,11.8,1.7,17.6l1.6,17.6l1.5,17.6l-1.4-1.8c5.2,1.6,10.4,3.3,15.6,4.9c2.6,0.8,5.2,1.7,7.8,2.5l7.8,2.6
			c2.6,0.8,5.2,1.7,7.7,2.6l7.7,2.7l15.4,5.5l-2.6,0.6l11-11.1l5.5-5.5l5.5-5.5c3.7-3.7,7.4-7.3,11.2-10.9l11.2-10.9l-0.3,1l-0.3-2
			l-0.2-2c-0.1-1.3-0.2-2.6-0.2-3.9c0-1.3,0-2.6,0-3.9c0-1.3,0-2.6,0.1-3.9c0.1-2.6,0.3-5.2,0.4-7.7c0.2-2.6,0.5-5.1,0.7-7.7
			c0.2-2.6,0.5-5.1,0.8-7.7l0.9-7.7c0.7-5.1,1.3-10.2,2.1-15.4l2,1.5L124,91.9c-2.5,1.4-5.1,2.9-7.6,4.3l-7.7,4.3l-7.7,4.2
			c-2.6,1.4-5.2,2.7-7.7,4.1c-5.2,2.7-10.3,5.5-15.5,8.1l-0.8,0.4l-0.8-0.3c-4.4-1.6-8.8-3.2-13.2-4.9c-4.4-1.7-8.8-3.3-13.1-5
			c-4.4-1.7-8.7-3.4-13.1-5.1C32.5,100.3,28.3,98.6,24.1,96.8z"/>
	</g>
</g>
<g>
	<path fill="#221910" stroke="#CEB64F" stroke-width="2" stroke-miterlimit="10" d="M116.9,125.9v5.3c0,0,4.1,4.1,13.3,0.7l-0.2-6
		H116.9z"/>
	<ellipse fill="#221910" stroke="#CEB64F" stroke-width="2" stroke-miterlimit="10" cx="123.4" cy="125.9" rx="6.5" ry="3.9"/>
</g>
<g>
	<path fill="#221910" d="M109.2,174c0,0-18.7-10.1-11.3-26c5-10.8,7.1-9.2,10.6-12.6c3.4-3.4,0.8-5.7,3.2-9
		c7.9-10.6,1.4,7.1,15.7,5.9c14.4-1.2,12.3-7.4,12.3-12.3s12,4.4,7.1,9.8c-4.9,5.4,20.4-5.4,15,27.5
		C156.3,190.2,109.2,174,109.2,174z"/>
	<path fill="#CEB64F" d="M109.1,174c0,0-0.8-0.4-2.1-1.3c-1.3-0.9-3.2-2.3-5.3-4.5c-2-2.2-4.5-5.1-5.6-9.2c-0.6-2.1-0.7-4.4-0.3-6.8
		c0.4-2.4,1.4-4.8,2.5-7.1c1.2-2.3,2.5-4.8,4.6-6.8c1.1-1,2.4-1.7,3.5-2.5c0.5-0.4,1.1-0.9,1.5-1.3c0.5-0.6,0.8-1,1.1-1.5
		c0.3-0.5,0.4-1.1,0.5-1.8c0.1-0.7,0.1-1.4,0.2-2.3c0.1-0.8,0.4-1.7,0.9-2.4c0.5-0.8,0.9-1.3,1.5-1.9c0.5-0.6,1.1-1.2,1.8-1.7
		c0.4-0.2,0.8-0.6,1.5-0.5c0.4,0,0.7,0.2,0.9,0.4c0.2,0.2,0.4,0.4,0.5,0.6c0.4,0.8,0.6,1.5,0.9,2.3c0.3,0.7,0.6,1.4,0.9,2.1
		c0.7,1.3,1.8,2.5,3.1,3.2c1.4,0.7,3,1,4.6,1c0.4,0,0.8,0,1.2,0l1.2-0.1c0.4,0,0.8-0.1,1.2-0.1l1.2-0.2c1.6-0.3,3.2-0.7,4.7-1.5
		c1.4-0.7,2.6-1.9,3.2-3.4c0.5-1.5,0.4-3.2,0.3-4.9c0-0.4-0.1-0.9-0.1-1.3l0-0.4l0-0.3c0-0.2,0.1-0.6,0.3-0.8c0.3-0.5,1-0.7,1.5-0.7
		c0.5,0,1,0.2,1.4,0.4c1.7,0.8,3,2,4.1,3.3c1.1,1.4,2,3.1,2.1,5c0,1-0.3,2-0.8,2.8l-0.4,0.6l-0.2,0.2l-0.1,0.2
		c-0.1,0.1-0.1,0.3-0.1,0.2c0,0,0-0.1,0-0.2c0,0,0,0,0,0c0.2,0.1,0.6,0.2,1,0.2l1.2,0.2c0.8,0.1,1.7,0.2,2.6,0.4
		c1.7,0.3,3.4,0.9,5,1.8c1.6,0.9,2.9,2.2,3.9,3.7c1,1.5,1.7,3.1,2.1,4.8c0.9,3.3,1,6.7,0.8,10c-0.1,1.6-0.3,3.2-0.5,4.8
		c-0.1,0.4-0.1,0.7-0.2,1.2l-0.2,1.1c-0.2,0.8-0.3,1.5-0.6,2.3c-0.3,0.8-0.5,1.6-0.8,2.3c-0.3,0.7-0.6,1.4-1,2.2
		c-0.4,0.7-0.8,1.4-1.2,2c-0.4,0.7-0.9,1.2-1.4,1.9c-1.9,2.4-4.3,4.3-6.9,5.6c-2.5,1.3-5.2,2.2-7.8,2.7c-5.2,1-9.9,0.8-14.1,0.4
		c-4.2-0.4-7.7-1.1-10.6-1.7L109.1,174L109.1,174z M109.2,173.9c0.1,0,0.9,0.3,2.3,0.7c1.5,0.4,3.8,1,6.7,1.6
		c2.9,0.6,6.5,1,10.6,1.2c2.1,0.1,4.3,0.1,6.6-0.1c2.3-0.2,4.7-0.5,7.1-1.1c2.4-0.6,4.9-1.5,7.2-2.7c2.3-1.3,4.5-3,6.2-5.2
		c1.7-2.2,3.1-4.8,3.8-7.6c0.3-0.7,0.4-1.5,0.5-2.2l0.2-1.1c0.1-0.3,0.1-0.7,0.2-1.1c0.2-1.5,0.4-3.1,0.5-4.6
		c0.2-3.1,0.2-6.3-0.6-9.3c-0.7-3-2.4-5.8-5.1-7.4c-1.3-0.8-2.8-1.4-4.4-1.7c-0.8-0.2-1.6-0.3-2.4-0.4l-1.3-0.2
		c-0.4-0.1-0.9-0.1-1.5-0.5c-0.2-0.1-0.3-0.2-0.5-0.5c-0.1-0.2-0.2-0.5-0.2-0.8c0.1-0.5,0.2-0.7,0.4-0.9l0.2-0.3l0.2-0.2l0.3-0.4
		c0.4-0.6,0.7-1.3,0.7-2c0.1-1.5-0.7-3-1.6-4.3c-1-1.3-2.2-2.5-3.6-3.2c-0.7-0.3-1.6-0.5-1.8-0.1c0,0.1-0.1,0.1-0.1,0.2
		c0,0.1-0.1,0.1-0.1,0.2l0,0.3l0,0.3c0,0.4,0,0.8,0,1.3c0.1,1.7,0.1,3.5-0.4,5.2c-0.6,1.7-2,3-3.5,3.8c-1.5,0.8-3.2,1.3-4.8,1.6
		l-1.2,0.2c-0.4,0.1-0.8,0.1-1.2,0.1l-1.2,0.2c-0.4,0-0.8,0.1-1.3,0.1c-1.7,0.1-3.4-0.2-5-0.9c-1.6-0.7-2.8-2-3.7-3.4
		c-0.4-0.7-0.8-1.5-1.1-2.2c-0.3-0.7-0.6-1.5-0.9-2.1c-0.2-0.3-0.4-0.4-0.4-0.4c-0.1,0-0.3,0.1-0.6,0.3c-0.5,0.4-1,1-1.5,1.6
		c-0.4,0.6-1,1.2-1.3,1.8c-0.3,0.6-0.5,1.2-0.6,1.8c-0.1,0.7-0.1,1.4-0.1,2.2c-0.1,0.8-0.2,1.7-0.6,2.4c-0.3,0.7-0.9,1.5-1.4,2
		c-0.6,0.6-1.1,1.1-1.7,1.5c-1.2,0.9-2.4,1.5-3.3,2.4c-1.9,1.7-3.2,4-4.4,6.2c-1.2,2.3-2.3,4.4-2.7,6.6c-0.5,2.2-0.5,4.4,0,6.3
		c0.9,4,3,7,5,9.2c2,2.2,3.9,3.6,5.2,4.5C108.4,173.4,109.2,173.8,109.2,173.9z"/>
</g>
<g>
	<path fill="#4A3F29" stroke="#CEB64F" stroke-width="4" stroke-miterlimit="10" d="M87.8,167.3H74c-0.6,0-1,0.4-1,1.3
		c0,0.9,0.3,1.4,1,1.4h6.8c6.1,0,9.2,2.9,9.2,8.7c0,1.8-0.2,3.3-0.7,4.6c-0.5,1.3-1.2,2.5-2,3.4c-0.9,0.9-1.9,1.6-3,2.1
		c-1.2,0.5-2.4,0.7-3.8,0.7H63.9l0.9-11.2h15.4c0.6,0,1-0.4,1-1.3c0-0.8-0.3-1.2-1-1.2h-7c-5.9,0-8.9-2.9-8.9-8.7
		c0-1.5,0.2-3,0.7-4.3c0.5-1.3,1.1-2.5,2-3.5c0.9-1,1.9-1.7,3.2-2.3s2.7-0.8,4.3-0.8h14.1L87.8,167.3z"/>
	<path fill="#4A3F29" stroke="#CEB64F" stroke-width="4" stroke-miterlimit="10" d="M107.6,189.5v-12.6h-5v12.6H92v-33.3h10.6v12.1
		h5v-12.1h10.5v33.3H107.6z"/>
	<path fill="#4A3F29" stroke="#CEB64F" stroke-width="4" stroke-miterlimit="10" d="M137.8,156.1c1.3,0,2.6,0.3,3.7,1
		c1.1,0.7,2.1,1.6,2.9,2.8c0.8,1.2,1.5,2.6,1.9,4.2c0.5,1.6,0.7,3.3,0.7,5.1v7.1c0,1.9-0.2,3.6-0.7,5.2c-0.5,1.6-1.1,3-1.9,4.2
		c-0.8,1.2-1.8,2.1-2.9,2.8c-1.1,0.7-2.4,1-3.7,1h-8.1c-1.4,0-2.7-0.3-3.8-1c-1.1-0.7-2.1-1.6-2.9-2.8c-0.8-1.2-1.5-2.6-1.9-4.2
		c-0.5-1.6-0.7-3.3-0.7-5.1v-7.1c0-1.7,0.2-3.3,0.7-4.9c0.4-1.6,1.1-3,1.9-4.2c0.8-1.2,1.8-2.2,2.9-2.9s2.4-1.1,3.8-1.1H137.8z
		 M138.5,168.8c0-0.5-0.2-0.9-0.6-1.3c-0.4-0.4-0.8-0.6-1.2-0.6h-5.8c-0.4,0-0.8,0.2-1.2,0.6c-0.4,0.4-0.6,0.9-0.6,1.3v7.1
		c0,0.5,0.2,1,0.6,1.4c0.4,0.4,0.8,0.6,1.2,0.6h5.8c0.4,0,0.8-0.2,1.2-0.6c0.4-0.4,0.6-0.9,0.6-1.4V168.8z"/>
	<path fill="#4A3F29" stroke="#CEB64F" stroke-width="4" stroke-miterlimit="10" d="M149.3,156.1h16.1c6.8,0,10.2,3.7,10.2,11.1
		c0,7.5-3.4,11.2-10.3,11.2h-7v11.1h-9V156.1z M158.3,166.4v3.3h6.7c1,0,1.5-0.6,1.5-1.7c0-1.1-0.5-1.6-1.5-1.6H158.3z"/>
</g>
<g>
	<path fill="#221910" stroke="#CEB64F" stroke-width="2" stroke-miterlimit="10" d="M118.5,118.9v5.3c0,0,4.1,4.1,13.3,0.7l-0.2-6
		H118.5z"/>
	<ellipse fill="#221910" stroke="#CEB64F" stroke-width="2" stroke-miterlimit="10" cx="125" cy="118.9" rx="6.5" ry="3.9"/>
</g>
<g>
	<path fill="#221910" stroke="#CEB64F" stroke-width="2" stroke-miterlimit="10" d="M113.7,112.1v5.3c0,0,4.1,4.1,13.3,0.7l-0.2-6
		H113.7z"/>
	<ellipse fill="#221910" stroke="#CEB64F" stroke-width="2" stroke-miterlimit="10" cx="120.2" cy="112.1" rx="6.5" ry="3.9"/>
</g>
<g>
	<path fill="#221910" stroke="#CEB64F" stroke-width="2" stroke-miterlimit="10" d="M132.2,119.7l1,5.2c0,0,4.8,3.2,13.2-1.9
		l-1.4-5.9L132.2,119.7z"/>
	
		<ellipse transform="matrix(0.9809 -0.1943 0.1943 0.9809 -20.3732 29.1864)" fill="#221910" stroke="#CEB64F" stroke-width="2" stroke-miterlimit="10" cx="138.6" cy="118.5" rx="6.5" ry="3.9"/>
</g>
<g>
	<path fill="#221910" stroke="#CEB64F" stroke-width="2" stroke-miterlimit="10" d="M132.7,124.9l-3,4.4c0,0,1,5.7,10.5,8.2l3.3-5.1
		L132.7,124.9z"/>
	
		<ellipse transform="matrix(0.8191 0.5736 -0.5736 0.8191 98.736 -55.914)" fill="#221910" stroke="#CEB64F" stroke-width="2" stroke-miterlimit="10" cx="138" cy="128.6" rx="6.5" ry="3.9"/>
</g>
</svg>
