<!-- Generator: Adobe Illustrator 18.1.1, SVG Export Plug-In  -->
<svg version="1.0"
	 xmlns="http://www.w3.org/2000/svg" xmlns:xlink="http://www.w3.org/1999/xlink" xmlns:a="http://ns.adobe.com/AdobeSVGViewerExtensions/3.0/"
	 x="0px" y="0px" width="206.2px" height="191.3px" viewBox="0 0 206.2 191.3" enable-background="new 0 0 206.2 191.3"
	 xml:space="preserve">
<defs>
</defs>
<g>
	<circle fill="#4E381A" cx="100.1" cy="103.6" r="82.5"/>
	<g>
		<path fill="#CEB64F" d="M41.7,45.3c0,0,0.4-0.4,1.1-1c0.7-0.7,1.7-1.7,3.2-2.9c2.8-2.5,7.2-6,13.4-9.6c3-1.8,6.6-3.5,10.6-5.2
			c4-1.6,8.4-3.1,13.2-4.2c9.7-2.2,21.1-3,33.3-1c12.2,2,25.1,7,36.6,15.6c1.5,1,2.8,2.2,4.3,3.4c0.7,0.6,1.4,1.2,2.1,1.8l1,0.9l1,1
			c0.6,0.6,1.3,1.3,1.9,1.9c0.6,0.6,1.3,1.4,1.9,2.1c1.3,1.4,2.5,2.9,3.7,4.3c2.4,3,4.6,6.1,6.6,9.5c1,1.7,1.9,3.4,2.9,5.1
			c0.4,0.9,0.9,1.8,1.3,2.7l0.6,1.4l0.6,1.4c3.1,7.4,5.2,15.3,6.2,23.6c0.9,8.2,0.7,16.7-0.8,25.1c-3,16.8-11.4,32.9-23.7,45.2
			l-2.3,2.2c-0.4,0.4-0.7,0.7-1.1,1.1l-1.3,1.1c-0.9,0.7-1.7,1.5-2.6,2.1l-2.6,2c-3.5,2.5-7.2,4.9-11,6.9c-3.8,2-7.8,3.7-11.9,5.1
			c-4.1,1.4-8.2,2.5-12.4,3.2c-8.4,1.6-16.9,1.8-25.1,0.9c-8.2-1-16.2-3.1-23.6-6.2l-1.4-0.6l-1.4-0.6c-0.9-0.4-1.8-0.8-2.7-1.3
			c-1.7-1-3.5-1.8-5.1-2.9c-3.4-2-6.5-4.3-9.5-6.6c-1.5-1.2-2.9-2.4-4.3-3.7c-0.7-0.6-1.4-1.3-2.1-1.9c-0.7-0.7-1.3-1.3-2-2l-1-1
			l-0.9-1c-0.6-0.7-1.2-1.3-1.8-2c-1.1-1.4-2.4-2.9-3.4-4.3C24.9,145,19.9,132.1,17.9,120c-2-12.2-1.2-23.6,1-33.3
			c1.1-4.8,2.5-9.3,4.2-13.2c1.6-4,3.3-7.5,5.2-10.6c3.6-6.1,7-10.5,9.6-13.4c1.2-1.5,2.3-2.5,2.9-3.2
			C41.4,45.6,41.7,45.3,41.7,45.3z M41.7,45.3c0,0-0.3,0.4-1,1.1c-0.7,0.7-1.7,1.7-2.9,3.2c-2.5,2.9-6,7.2-9.4,13.4
			c-3.4,6.2-6.8,14.2-8.6,23.9c-1.8,9.6-2.1,20.9,0.7,32.6c1.4,5.8,3.4,11.7,6.2,17.5c2.8,5.7,6.5,11.3,10.9,16.4
			c1.1,1.3,2.2,2.5,3.4,3.7c0.6,0.6,1.3,1.2,1.9,1.9l1,0.9l0.9,0.8c0.6,0.6,1.3,1.1,1.9,1.7c0.7,0.6,1.4,1.1,2,1.6
			c1.3,1.1,2.8,2.1,4.2,3.1c2.9,1.9,5.9,3.8,9.1,5.4c3.2,1.6,6.5,3,9.9,4.2c6.8,2.4,14,3.8,21.4,4.2c3.7,0.2,7.4,0.2,11.1-0.1
			l2.8-0.3c0.9-0.1,1.8-0.3,2.8-0.4c0.9-0.1,1.8-0.3,2.7-0.5c0.9-0.2,1.8-0.3,2.7-0.5c7.3-1.6,14.3-4.3,20.9-7.9
			c3.3-1.8,6.4-3.9,9.4-6.1l2.2-1.7c0.8-0.6,1.4-1.2,2.1-1.8l1-0.9c0.3-0.3,0.7-0.7,1.1-1l2.1-2c2.6-2.7,5.1-5.5,7.4-8.5
			c0.6-0.7,1.1-1.5,1.6-2.3l0.8-1.2l0.8-1.2c0.5-0.8,1-1.6,1.5-2.4l1.4-2.4c3.6-6.6,6.2-13.6,7.9-20.9c3.2-14.5,2.3-29.8-2.4-43.4
			l-0.4-1.3l-0.5-1.3c-0.3-0.8-0.7-1.7-1-2.5c-0.7-1.6-1.4-3.3-2.3-4.9c-1.6-3.2-3.4-6.2-5.4-9.1c-1-1.4-2-2.9-3.1-4.2
			c-0.5-0.7-1-1.3-1.6-2c-0.6-0.7-1.2-1.3-1.8-2l-0.8-0.9l-0.9-0.9c-0.6-0.6-1.2-1.2-1.8-1.8c-1.3-1.2-2.5-2.4-3.8-3.4
			c-5.1-4.4-10.6-8.1-16.4-10.9c-5.8-2.8-11.7-4.9-17.5-6.2c-11.7-2.7-23-2.5-32.6-0.7c-9.7,1.8-17.7,5.2-23.9,8.6
			c-6.2,3.4-10.6,6.9-13.4,9.4c-1.5,1.2-2.5,2.3-3.2,2.9C42.1,44.9,41.7,45.3,41.7,45.3z"/>
	</g>
</g>
<g>
	<polygon fill="#221910" points="154.1,57.3 127.3,53.3 124.5,34.7 155.3,34.3 	"/>
	<g>
		<path fill="#CEB64F" d="M154,57.6c-1.2,0.1-2.3,0.1-3.4,0.2c-1.1,0-2.3,0-3.4,0c-2.3,0-4.5-0.2-6.8-0.4c-2.3-0.2-4.5-0.5-6.7-0.8
			c-1.1-0.2-2.2-0.4-3.3-0.6c-1.1-0.2-2.2-0.5-3.3-0.8l-1.5-0.4l0-1.2c-0.1-3.1-0.1-6.3-0.4-9.4c-0.1-1.6-0.3-3.1-0.6-4.7
			c-0.1-0.8-0.3-1.5-0.4-2.3c-0.2-0.8-0.3-1.5-0.5-2.3l-0.3-1l1.2-0.1c2.6-0.2,5.1-0.6,7.7-0.9c2.6-0.3,5.1-0.5,7.7-0.6
			c2.6-0.2,5.1-0.3,7.7-0.4c2.6-0.1,5.1-0.1,7.7-0.1l2.9,0.1l-0.2,2.7c-0.2,1.9-0.4,3.8-0.6,5.7c-0.1,1-0.2,1.9-0.4,2.9l-0.4,2.9
			c-0.3,1.9-0.6,3.8-1,5.7c-0.4,1.9-0.8,3.8-1.3,5.7l-0.1,0.2L154,57.6z M153.8,57c-0.3-1.8-0.5-3.6-0.6-5.5
			c-0.2-1.9-0.3-3.9-0.4-5.8l-0.1-2.9c0-1,0-1.9,0-2.9c0-1.9,0-3.8,0-5.8l2.7,2.8c-2.6,0.1-5.1,0.2-7.7,0.1c-2.6,0-5.1-0.1-7.7-0.2
			c-2.6-0.1-5.1-0.2-7.7-0.4c-2.6-0.2-5.1-0.5-7.7-0.7l1-1.1c0,0.8,0.1,1.6,0.2,2.3c0.1,0.8,0.2,1.6,0.3,2.3
			c0.2,1.6,0.5,3.1,0.8,4.6c0.6,3.1,1.6,6.1,2.4,9.1l-1.6-1.6c1.1,0.1,2.3,0.1,3.4,0.2c1.1,0.1,2.2,0.2,3.4,0.4
			c2.2,0.4,4.5,0.8,6.7,1.2c2.2,0.5,4.4,1,6.6,1.6c1.1,0.3,2.2,0.6,3.3,1C151.8,56.2,152.8,56.6,153.8,57z"/>
	</g>
</g>
<g>
	<path fill="#221910" d="M154.7,24.1l-74.2-10c0,0-21.7,12.6-22.7,39.3s-0.5,59.8-40.6,66.8L66,139.3l36.8-0.1L134.5,65l6.7-33
		L154.7,24.1z"/>
	<g>
		<path fill="#CEB64F" d="M154.3,24.2c-6.1-0.6-12.1-1.3-18.2-2c-3.1-0.3-6.2-0.7-9.3-1.1l-9.3-1.1l-9.3-1.1l-9.3-1.2l-18.6-2.4
			l0.8-0.2c-2.2,1.4-4.4,3.1-6.4,5c-0.5,0.5-1,1-1.5,1.4c-0.5,0.5-1,1-1.4,1.5l-1.4,1.5l-1.3,1.6c-0.9,1-1.6,2.2-2.4,3.3
			c-0.8,1.1-1.4,2.3-2.1,3.5c-0.6,1.2-1.2,2.4-1.8,3.6c-0.5,1.3-1,2.5-1.5,3.8l-1.2,3.9l-0.8,4c-0.3,2.7-0.6,5.4-0.7,8.2
			c-0.3,5.6-0.6,11.2-1.2,16.8c-0.7,5.6-1.6,11.2-3.3,16.5c-0.8,2.7-1.9,5.3-3.1,7.9c-1.3,2.5-2.7,5-4.5,7.2c-1.8,2.2-3.8,4.2-6,6
			c-2.2,1.8-4.6,3.3-7.1,4.6c-2.6,1.2-5.1,2.4-7.9,3.2c-1.3,0.5-2.7,0.8-4.1,1.2c-1.4,0.3-2.8,0.6-4.1,0.9l0.1-1.4l24.5,9.2
			l24.5,9.4l-0.5-0.1l36.8-0.3l-1.5,1l7.9-18.5l8-18.5l16.2-36.9l-0.1,0.2l3.6-16.4c1.2-5.5,2.4-11,3.7-16.4l0.1-0.2l0.2-0.1
			C145.4,29.1,149.8,26.6,154.3,24.2z M154.8,24.2c-4.4,2.8-8.8,5.5-13.3,8.3l0.3-0.4c-1,5.5-2,11-3.1,16.6l-3.1,16.5l0,0.1l0,0.1
			l-15.5,37.2l-7.9,18.6l-8,18.5l-0.4,1l-1,0L66,140.7l-0.3,0l-0.2-0.1l-24.3-9.8l-24.2-9.9l-2.3-1l2.5-0.5c1.4-0.3,2.7-0.5,4.1-0.8
			c1.3-0.3,2.7-0.6,4-1l2-0.6l1.9-0.7c1.3-0.4,2.5-1.1,3.8-1.6c2.5-1.3,4.8-2.7,7-4.4c2.2-1.7,4.1-3.7,5.9-5.8
			c1.8-2.1,3.2-4.5,4.4-7c1.2-2.5,2.2-5.1,3-7.7c0.8-2.7,1.4-5.4,1.8-8.1c0.5-2.7,0.8-5.5,1-8.3c0.5-5.5,0.6-11.1,0.7-16.7
			c0-2.8,0.2-5.6,0.5-8.5l0.7-4.2l1.1-4.2c0.5-1.4,1-2.7,1.5-4c0.6-1.3,1.2-2.6,1.9-3.9c0.7-1.2,1.4-2.5,2.2-3.7
			c0.8-1.2,1.6-2.4,2.5-3.5l1.3-1.7l1.4-1.6c0.5-0.5,1-1.1,1.5-1.6c0.5-0.5,1-1,1.5-1.5c2.1-2,4.3-3.7,6.9-5.3l0.4-0.2l0.5,0.1
			l18.5,2.6l9.3,1.3l9.3,1.4l9.3,1.4c3.1,0.5,6.2,0.9,9.3,1.4c6.2,1,12.3,1.9,18.5,3l0.4,0.1L154.8,24.2z"/>
	</g>
</g>
<g>
	<path fill="#221910" d="M87.6,118L9.3,108c0,0-17.1,11.4-3.8,30.8l90.6,11.5L87.6,118z"/>
	<g>
		<path fill="#CEB64F" d="M87.5,118.2c-3.3-0.2-6.5-0.5-9.7-0.8c-3.3-0.3-6.6-0.6-9.8-0.9c-6.5-0.7-13.1-1.4-19.6-2.2
			c-3.3-0.4-6.5-0.8-9.8-1.2c-3.3-0.4-6.5-0.9-9.8-1.3c-1.6-0.2-3.3-0.5-4.9-0.7l-4.9-0.8l-9.7-1.5l0.5-0.1
			c-0.5,0.4-1.1,0.8-1.7,1.3c-0.5,0.5-1.1,0.9-1.6,1.4c-1,1-1.9,2.1-2.6,3.3c-0.4,0.6-0.7,1.2-1.1,1.8c-0.3,0.6-0.6,1.3-0.8,2
			c-0.2,0.7-0.4,1.3-0.6,2c-0.2,0.7-0.3,1.4-0.3,2.1c-0.1,0.7-0.1,1.4-0.1,2.1l0,1.1l0.1,1.1c0.1,0.7,0.2,1.4,0.4,2.1
			c0.2,0.7,0.4,1.4,0.6,2c0.2,0.7,0.5,1.3,0.8,2c0.3,0.7,0.6,1.3,0.9,1.9c0.3,0.6,0.7,1.2,1.1,1.8l1.2,1.8l-0.5-0.3l11.4,1.2
			c3.8,0.4,7.6,0.8,11.4,1.2c7.6,0.8,15.1,1.7,22.7,2.6c3.8,0.4,7.6,0.9,11.3,1.4c3.8,0.5,7.6,0.9,11.3,1.5c7.5,1,15.1,2.1,22.6,3.2
			l-1.4,1.6c-0.6-2.7-1.3-5.4-1.9-8.1l-1.9-8.2c-0.6-2.7-1.3-5.4-1.9-8.2C88.6,123.6,88,120.9,87.5,118.2z M87.7,118
			c0.9,2.7,1.7,5.3,2.5,8c0.8,2.7,1.6,5.3,2.4,8l2.4,8c0.8,2.7,1.5,5.4,2.3,8l0.5,1.8l-1.9-0.2c-7.6-0.8-15.1-1.7-22.7-2.6
			c-3.8-0.4-7.6-0.9-11.3-1.4c-3.8-0.5-7.5-1-11.3-1.5c-7.5-1.1-15.1-2-22.6-3.2c-3.8-0.5-7.5-1.1-11.3-1.7l-11.3-1.7l-0.3-0.1
			l-0.1-0.2l-1.2-1.9c-0.3-0.7-0.7-1.3-1-2c-0.3-0.7-0.6-1.3-0.9-2c-0.3-0.7-0.6-1.4-0.8-2.1c-0.2-0.7-0.4-1.4-0.6-2.1
			c-0.1-0.7-0.3-1.5-0.4-2.2L0,125.8l0-1.1c0-0.7,0-1.5,0.1-2.2c0.1-0.7,0.2-1.5,0.4-2.2c0.2-0.7,0.4-1.4,0.6-2.1
			c0.3-0.7,0.5-1.4,0.9-2.1c0.3-0.7,0.7-1.3,1.1-2c0.8-1.3,1.7-2.5,2.7-3.6c0.5-0.6,1-1.1,1.6-1.6c0.5-0.5,1.1-1,1.7-1.5l0.2-0.1
			l0.3,0l9.8,1l4.9,0.5c1.6,0.2,3.3,0.3,4.9,0.5c3.3,0.4,6.5,0.7,9.8,1.2c3.3,0.4,6.5,0.9,9.8,1.3c6.5,0.9,13,1.8,19.5,2.8
			c3.2,0.5,6.5,1,9.7,1.6c3.2,0.6,6.5,1.1,9.7,1.7L87.7,118L87.7,118z"/>
	</g>
</g>
<g>
	<path fill="#221910" d="M75.7,132.7l10.9,0c0,0-0.2,7.3,5.4,10c5.6,2.7,13.2-12.8,3.1-21.9s-27.3,6.3-15.6,21.4
		c11.7,15.1,33,6.7,41.3-19.7s12.6-36.9,15.2-66.6s14.3-38.2,23.9-28.4s2.4,35-5.7,29.9c-10.6-6.7-4.3-13.1-0.9-16.9l-13.3,0.7"/>
	<path fill="#CEB64F" d="M75.7,132.6l5.4-0.2l5.4-0.1l0.5,0l0,0.6c0.1,3.1,1.3,6.3,3.5,8.2c0.3,0.2,0.6,0.4,0.9,0.6l0.5,0.3l0.2,0.1
		l0.1,0c-0.1,0,0,0,0,0l0.1,0.1l0.3,0.1c0.1,0,0.1,0,0.2,0l0.2,0l0.2,0c0.3,0,0.6-0.1,0.9-0.2c1.2-0.5,2.2-1.7,2.9-2.9
		c1.5-2.6,2-5.8,1.6-8.7c-0.4-3-1.7-5.8-3.9-7.9c-0.3-0.2-0.6-0.6-0.8-0.7c-0.3-0.2-0.6-0.5-0.9-0.7c-0.3-0.2-0.6-0.4-0.9-0.5
		c-0.3-0.1-0.6-0.3-1-0.4c-1.3-0.5-2.7-0.7-4.2-0.5c-2.8,0.3-5.5,1.9-7.4,4.2c-1.9,2.2-2.9,5.1-3,8.1c0,1.5,0.2,3,0.7,4.4
		c0.5,1.4,1.1,2.8,1.9,4.1l0.7,1c0.1,0.1,0.2,0.4,0.3,0.4l0.4,0.5c0.5,0.7,1,1.2,1.5,1.7c1.1,1.1,2.3,2.1,3.6,2.9
		c2.6,1.6,5.7,2.4,8.8,2.2c3.1-0.1,6.2-1.2,8.9-2.8c2.7-1.6,5.2-3.7,7.3-6.1c4.2-4.8,7.1-10.7,9.1-16.8c1.9-6.2,3.8-12.4,5.6-18.6
		c1.8-6.2,3.5-12.5,4.8-18.8c1.3-6.3,2.3-12.7,3-19.1c0.4-3.2,0.7-6.4,1-9.6l0.2-2.4c0.1-0.8,0.1-1.6,0.2-2.4
		c0.2-1.6,0.4-3.3,0.7-4.9c1.1-6.5,2.7-13.1,6.5-18.9c1-1.4,2.1-2.8,3.5-4c1.4-1.1,3.2-2.1,5.1-2.4c1-0.2,2-0.1,2.9,0
		c0.9,0.2,1.9,0.4,2.7,0.8c1.7,0.8,3.1,1.9,4.4,3.1l0.2,0.2c0,0,0,0,0.1,0.1l0.1,0.1l0.1,0.1l0.4,0.5c0.3,0.3,0.5,0.7,0.8,1.1
		c0.3,0.4,0.5,0.8,0.7,1.2c0.2,0.4,0.4,0.8,0.6,1.2c0.8,1.6,1.3,3.3,1.6,5c0.6,3.4,0.6,6.8,0.1,10.1c-0.5,3.3-1.5,6.6-3.4,9.6
		c-0.5,0.7-1,1.5-1.7,2.1c-0.6,0.6-1.5,1.2-2.4,1.6c-1,0.3-2.1,0.4-3.1,0c-0.3-0.1-0.5-0.2-0.7-0.3c-0.2-0.1-0.4-0.2-0.7-0.4l-1-0.7
		c-0.7-0.4-1.3-1.1-2-1.6c-0.3-0.3-0.6-0.6-0.9-1c-0.3-0.3-0.6-0.7-0.8-1.1c-1-1.4-1.6-3.4-1.3-5.2c0.2-1.8,1.1-3.4,2.1-4.7
		c1-1.4,2.1-2.6,3.3-3.7l0.5,0.9c-4.4,0.1-8.8,0.2-13.3,0.3l0-0.3c4.4-0.4,8.8-0.7,13.2-1.1l1.4-0.1l-0.9,1.1
		c-1.1,1.2-2.1,2.5-2.9,3.8c-0.8,1.3-1.5,2.7-1.6,4.1c-0.1,1.4,0.3,2.8,1.2,4c0.2,0.3,0.4,0.6,0.7,0.9c0.3,0.3,0.5,0.6,0.8,0.8
		c0.6,0.5,1.1,1,1.8,1.4l1,0.7c0.2,0.1,0.6,0.3,0.8,0.4c0.6,0.2,1.1,0.2,1.7-0.1c1.1-0.4,2.1-1.6,2.9-2.8c1.5-2.6,2.4-5.7,2.8-8.7
		c0.4-3.1,0.3-6.2-0.3-9.2c-0.3-1.5-0.8-2.9-1.5-4.2c-0.2-0.3-0.3-0.7-0.5-1c-0.2-0.3-0.4-0.6-0.6-0.9c-0.2-0.3-0.4-0.5-0.7-0.8
		l-0.4-0.5l-0.1-0.1l-0.1-0.1c0.1,0.1,0,0,0,0l-0.2-0.2c-2.1-2.1-4.8-3.5-7.4-3c-2.6,0.4-4.8,2.5-6.5,5c-1.7,2.5-2.9,5.4-3.9,8.4
		c-1,3-1.7,6.1-2.3,9.2c-0.3,1.6-0.5,3.1-0.7,4.7c-0.1,0.8-0.2,1.6-0.3,2.4l-0.3,2.4c-0.3,3.2-0.7,6.5-1.1,9.7
		c-0.8,6.5-2,12.9-3.5,19.2c-1.5,6.3-3.5,12.6-5.5,18.7l-6.2,18.5c-2.1,6.2-5.1,12.1-9.3,17.1c-2.1,2.5-4.6,4.7-7.4,6.5
		c-2.8,1.7-6,3-9.4,3.3c-3.4,0.4-6.9-0.4-9.9-2c-1.5-0.8-2.9-1.9-4.1-3c-0.6-0.6-1.2-1.2-1.7-1.8l-0.4-0.5c-0.2-0.2-0.3-0.4-0.4-0.5
		l-0.8-1c-0.9-1.4-1.8-2.9-2.4-4.6c-0.6-1.6-0.9-3.4-0.9-5.2c-0.1-3.5,1.2-7.1,3.5-9.8c2.3-2.7,5.5-4.7,9.2-5
		c1.8-0.2,3.7,0.1,5.4,0.8c0.4,0.2,0.8,0.4,1.2,0.6c0.4,0.2,0.8,0.5,1.2,0.8c0.4,0.3,0.6,0.5,1,0.8c0.4,0.4,0.6,0.6,1,0.9
		c1.2,1.3,2.2,2.7,3,4.3c0.7,1.6,1.2,3.3,1.4,5c0.4,3.5-0.4,7-2.2,10c-0.5,0.7-1,1.5-1.6,2.1c-0.6,0.6-1.4,1.2-2.3,1.5
		c-0.5,0.2-1,0.3-1.5,0.3c-0.5,0-1.2-0.2-1.5-0.3l-0.1-0.1l-0.1-0.1l-0.1,0l-0.3-0.2l-0.6-0.3c-0.4-0.2-0.7-0.5-1.1-0.8
		c-1.3-1.2-2.2-2.8-2.8-4.4c-0.5-1.6-0.8-3.3-0.7-5l0.5,0.5l-5.4-0.2l-5.4-0.2L75.7,132.6z"/>
</g>
<g>
	<path fill="#4A3F29" stroke="#CEB64F" stroke-width="4" stroke-miterlimit="10" d="M89.2,113.4c1.3,0,2.6,0.3,3.7,1
		c1.1,0.7,2.1,1.6,2.9,2.8c0.8,1.2,1.5,2.6,1.9,4.2c0.5,1.6,0.7,3.3,0.7,5.1v5.8c0,1.9-0.2,3.6-0.7,5.2c-0.5,1.6-1.1,3-1.9,4.2
		s-1.8,2.1-2.9,2.8c-1.1,0.7-2.4,1-3.7,1h-8.3l-1.6,3.3c1-0.3,2-0.6,3-0.7c1.1-0.2,2.1-0.3,3.2-0.3c1.1,0,2.2,0.2,3.1,0.5
		c0.9,0.3,1.8,0.6,2.6,1s1.6,0.7,2.4,1c0.8,0.3,1.6,0.5,2.4,0.5c0.8,0,1.5-0.2,2.1-0.7s1.1-1.2,1.4-2.3l1.9,0.4
		c-0.1,1.3-0.5,2.5-1,3.5c-0.6,1-1.3,1.9-2.2,2.6c-0.9,0.7-1.9,1.3-3,1.6s-2.2,0.6-3.4,0.6s-2.4-0.2-3.5-0.6s-2.4-0.8-3.6-1.3
		s-2.4-0.9-3.6-1.3c-1.2-0.4-2.4-0.6-3.6-0.6c-1,0-2,0.1-2.9,0.3c-0.9,0.2-1.9,0.6-2.9,1.2l-1.2-1.6l7.4-7.8c-1-0.4-1.8-1-2.6-1.8
		c-0.8-0.8-1.4-1.8-2-2.9c-0.5-1.1-1-2.3-1.3-3.7s-0.4-2.7-0.4-4.1v-5.8c0-1.7,0.2-3.3,0.7-4.9s1.1-3,1.9-4.2
		c0.8-1.2,1.8-2.2,2.9-2.9s2.4-1.1,3.8-1.1H89.2z M89.8,127c0-0.5-0.2-0.9-0.6-1.3c-0.4-0.4-0.8-0.6-1.2-0.6h-5.8
		c-0.4,0-0.8,0.2-1.2,0.6c-0.4,0.4-0.6,0.9-0.6,1.3v5.8c0,0.5,0.2,1,0.6,1.4c0.4,0.4,0.8,0.6,1.2,0.6h5.8c0.4,0,0.8-0.2,1.2-0.6
		c0.4-0.4,0.6-0.9,0.6-1.4V127z"/>
	<path fill="#4A3F29" stroke="#CEB64F" stroke-width="4" stroke-miterlimit="10" d="M121.2,144.5c-1.4,1.5-3.5,2.2-6.3,2.2h-5
		c-6.2,0-9.4-4.4-9.4-13.1v-20.2h9v20.3c0,1.3,0.6,1.9,1.9,1.9h4.8c1,0,1.4-0.6,1.4-1.9v-20.3h8.3v33.3
		C123.9,146.7,122.3,145.9,121.2,144.5z"/>
	<path fill="#4A3F29" stroke="#CEB64F" stroke-width="4" stroke-miterlimit="10" d="M128.1,146.7v-33.3h23.1v8.2H139v3.4h11.5v8.6
		H139v3.7h12.2v9.4H128.1z"/>
	<path fill="#4A3F29" stroke="#CEB64F" stroke-width="4" stroke-miterlimit="10" d="M176.9,124.5h-13.8c-0.6,0-1,0.4-1,1.3
		c0,0.9,0.3,1.4,1,1.4h6.8c6.1,0,9.2,2.9,9.2,8.7c0,1.8-0.2,3.3-0.7,4.6c-0.5,1.3-1.2,2.5-2,3.4c-0.9,0.9-1.9,1.6-3,2.1
		c-1.2,0.5-2.4,0.7-3.8,0.7H153l0.9-11.2h15.4c0.6,0,1-0.4,1-1.3c0-0.8-0.3-1.2-1-1.2h-7c-5.9,0-8.9-2.9-8.9-8.7
		c0-1.5,0.2-3,0.7-4.3c0.5-1.3,1.1-2.5,2-3.5c0.9-1,1.9-1.7,3.2-2.3s2.7-0.8,4.3-0.8h14.1L176.9,124.5z"/>
	<path fill="#4A3F29" stroke="#CEB64F" stroke-width="4" stroke-miterlimit="10" d="M197.5,122.2v24.5h-10.4v-24.5h-6.5v-8.8h23.6
		v8.8H197.5z"/>
</g>
<g>
	<path fill="#4A3F29" stroke="#CEB64F" stroke-width="3" stroke-miterlimit="10" d="M144.2,174.5V166l-3.1,8.5h-5.3l-3.1-8.5v8.5
		h-6.3v-22.1h7l5.1,13.6l5.1-13.6h6.9v22.1H144.2z"/>
	<path fill="#4A3F29" stroke="#CEB64F" stroke-width="3" stroke-miterlimit="10" d="M163.5,152.4c0.9,0,1.7,0.2,2.4,0.7
		s1.4,1.1,2,1.9c0.6,0.8,1,1.7,1.3,2.8c0.3,1.1,0.5,2.2,0.5,3.4v4.7c0,1.2-0.2,2.4-0.5,3.4c-0.3,1.1-0.7,2-1.3,2.8
		c-0.6,0.8-1.2,1.4-2,1.8s-1.6,0.7-2.4,0.7h-5.4c-0.9,0-1.8-0.2-2.5-0.7c-0.8-0.5-1.4-1.1-2-1.9s-1-1.7-1.3-2.8
		c-0.3-1.1-0.5-2.2-0.5-3.4v-4.7c0-1.1,0.1-2.2,0.4-3.3c0.3-1.1,0.7-2,1.3-2.8s1.2-1.4,2-1.9c0.8-0.5,1.6-0.7,2.6-0.7H163.5z
		 M163.9,160.8c0-0.3-0.1-0.6-0.4-0.9c-0.3-0.3-0.5-0.4-0.8-0.4h-3.9c-0.2,0-0.5,0.1-0.8,0.4s-0.4,0.6-0.4,0.9v4.7
		c0,0.3,0.1,0.7,0.4,0.9c0.3,0.3,0.6,0.4,0.8,0.4h3.9c0.2,0,0.5-0.1,0.8-0.4c0.3-0.3,0.4-0.6,0.4-0.9V160.8z"/>
	<path fill="#4A3F29" stroke="#CEB64F" stroke-width="3" stroke-miterlimit="10" d="M171.1,174.5v-22.1h8.7c4.9,0,7.3,2.9,7.3,8.7
		v4.7c0,5.8-2.4,8.7-7.3,8.7H171.1z M179.8,166.8c1.1,0,1.6-0.7,1.6-2.1v-3.2c0-1.4-0.5-2-1.6-2h-3v7.3H179.8z"/>
	<path fill="#4A3F29" stroke="#CEB64F" stroke-width="3" stroke-miterlimit="10" d="M188.6,174.5v-22.1h15.3v5.4h-8.1v2.3h7.6v5.7
		h-7.6v2.4h8.1v6.3H188.6z"/>
</g>
<g>
	<g>
		<path fill="#221910" d="M39.5,0.3c3.5,17.4-5.6,25.2-5.6,25.2l4.4,3.9l-5.6,0.3c-1.2,6.8-2.1,10-2.1,10l6,3.8l-7-0.5
			c-0.5,3-2.2,16.8-2.2,16.8c5.8-2.1,7.9,3.8,7.9,3.8c-1.4-1-6.9,3.5-6.9,3.5c4.4,36.8,29.4,47.9,29.4,47.9
			c9.4-11.7,7.8-25.4,5.3-33.5c-6,0.5-10.5,0.8-10.5,0.8c2.6-4.5,4.5-5.2,7.8-7c-0.3-0.7-0.5-1-0.5-1c-2.8-5.5-3.9-14.8-4.3-23.8
			c-4.7,0.4-8.8,0.8-8.8,0.8c1.4-2.4,5-5.8,8.8-6.9c-0.3-11.4,0.4-18.5,0.4-18.5C53,26.3,51.3,27,51.3,27c1.6-4.4,3.9-5.2,3.9-5.2
			C54.8,8.9,39.5,0.3,39.5,0.3z"/>
		<g>
			<path fill="#CEB64F" d="M39.7,0.6c0.2,1,0.4,1.9,0.6,2.9c0.2,1.1,0.3,2.2,0.4,3.4c0.1,2.3,0.1,4.6-0.3,6.8c-0.4,2.3-1,4.5-2,6.6
				c-0.5,1.1-1,2.1-1.7,3.1c-0.3,0.5-0.7,1-1,1.4c-0.4,0.5-0.7,0.9-1.2,1.4l0-1.4l4.5,3.9l1.9,1.7l-2.6,0.2l-5.6,0.4l1.1-0.9
				c-0.3,1.7-0.6,3.4-0.9,5.1l-0.5,2.5c-0.2,0.9-0.4,1.7-0.6,2.6l-0.5-1.4l6,3.8l4.3,2.7l-5.1-0.3l-7-0.4l1.4-1.1
				c-0.2,1.3-0.4,2.8-0.6,4.1l-0.6,4.2l-1.1,8.4l-1.7-1.3c0.9-0.3,1.8-0.5,2.8-0.5c1,0,2,0.3,2.9,0.7c0.9,0.5,1.6,1.1,2.2,1.9
				c0.3,0.4,0.6,0.8,0.8,1.2c0.1,0.2,0.2,0.4,0.3,0.6c0.1,0.2,0.2,0.4,0.3,0.7l-1.7,1.2c0.1,0.1,0.1,0.1,0.1,0.1c0,0-0.1,0-0.2,0
				c-0.2,0-0.5,0.1-0.7,0.2c-0.5,0.2-1.1,0.5-1.6,0.8c-1.1,0.6-2.2,1.4-3.2,2.2l0.3-0.8l0.4,3.6c0.2,1.2,0.4,2.4,0.6,3.6
				c0.2,1.2,0.4,2.4,0.8,3.5l0.4,1.8l0.5,1.7c0.3,1.2,0.7,2.3,1.1,3.4c0.4,1.1,0.8,2.3,1.3,3.4c0.5,1.1,1,2.2,1.5,3.3
				c0.5,1.1,1.1,2.1,1.7,3.2c0.6,1,1.2,2.1,1.9,3.1c0.7,1,1.4,2,2.1,2.9c0.7,1,1.5,1.9,2.3,2.8c0.8,0.9,1.6,1.8,2.5,2.6
				c1.7,1.7,3.5,3.3,5.5,4.7c1,0.7,2,1.4,3,2c1,0.6,2.1,1.2,3.1,1.7l-0.8,0.2c0.4-0.6,0.9-1.2,1.3-1.8c0.4-0.6,0.8-1.2,1.1-1.8
				c0.7-1.2,1.4-2.5,1.9-3.9c1.1-2.7,1.8-5.4,2.1-8.3c0.7-5.7,0-11.5-1.8-16.9l1.4,0.9c-3.5,0.4-7,0.7-10.6,0.9L50,83.9l1.4-2.4
				c0.5-0.8,1-1.6,1.5-2.4c0.6-0.8,1.2-1.5,2-2.2c0.8-0.7,1.6-1.2,2.4-1.7c0.8-0.5,1.6-0.9,2.3-1.3L59,75.9
				c-0.2-0.4-0.4-0.9-0.6-1.4l-0.3-0.7L57.7,73c-0.2-0.5-0.4-1.1-0.6-1.6l-0.5-1.6c-0.6-2.1-1-4.3-1.4-6.4c-0.3-2.1-0.6-4.3-0.8-6.4
				c-0.2-2.1-0.3-4.3-0.4-6.4l1.7,1.5L47,52.8L44,53l1.5-2.5c0.6-0.9,1.2-1.8,1.9-2.5c0.7-0.8,1.5-1.5,2.3-2.1
				c1.6-1.2,3.4-2.3,5.6-2.8l-1,1.4c0-3.1,0-6.2,0.1-9.3c0-1.6,0.1-3.1,0.2-4.7c0.1-1.6,0.2-3.1,0.4-4.7l1.3,1.3
				c-0.8,0.1-1.5,0.2-2.3,0.4c-0.4,0.1-0.8,0.2-1.1,0.3l-0.5,0.2L52,27.9L51.7,28l-2.3,0.8l0.8-2.1c0.2-0.6,0.4-1.1,0.7-1.6
				c0.3-0.5,0.6-1.1,0.9-1.5c0.4-0.5,0.8-1,1.2-1.4c0.2-0.2,0.5-0.4,0.8-0.6c0.1-0.1,0.3-0.2,0.4-0.3c0.2-0.1,0.3-0.2,0.6-0.2
				l-0.6,0.9c0-0.5,0-1.1-0.1-1.6c0-0.5-0.2-1.1-0.3-1.6c-0.1-0.5-0.2-1.1-0.4-1.6c-0.2-0.5-0.4-1-0.6-1.6c-0.9-2.1-2-4-3.4-5.8
				c-1.4-1.8-3-3.5-4.7-5C43.3,3.2,41.5,1.8,39.7,0.6z M39.6,0.1c2.1,1.1,4,2.4,5.8,3.9c1.8,1.5,3.5,3.1,5.1,4.8
				c1.5,1.8,2.9,3.8,3.9,5.9c0.2,0.5,0.5,1.1,0.7,1.7c0.2,0.6,0.4,1.1,0.5,1.7c0.1,0.6,0.3,1.2,0.4,1.8c0.1,0.6,0.1,1.2,0.2,1.8
				l-0.6,0.9c0,0-0.1,0.1-0.2,0.1c-0.1,0.1-0.2,0.1-0.3,0.2c-0.2,0.1-0.4,0.3-0.5,0.5c-0.3,0.3-0.6,0.7-0.9,1.1
				c-0.3,0.4-0.5,0.9-0.7,1.3c-0.2,0.5-0.4,0.9-0.6,1.4L50.9,26l0.3-0.1l0.3-0.1l0.6-0.2c0.4-0.1,0.8-0.2,1.2-0.3
				c0.8-0.2,1.7-0.3,2.5-0.5l1.4-0.2L57.2,26c-0.1,1.5-0.2,3-0.2,4.6c0,1.5-0.1,3.1-0.1,4.6c0,3.1,0,6.1,0.2,9.2l0,1.1l-1.1,0.3
				c-0.4,0.1-0.8,0.3-1.2,0.4c-0.4,0.2-0.8,0.4-1.1,0.6c-0.7,0.4-1.5,0.9-2.1,1.5c-1.3,1.1-2.6,2.4-3.4,3.8l-1.5-2.3l8.8-0.8
				l1.6-0.2l0.1,1.7c0.2,4.2,0.5,8.4,1.2,12.5c0.3,2.1,0.7,4.1,1.2,6.1l0.4,1.5c0.2,0.5,0.3,1,0.5,1.4l0.3,0.7l0.3,0.7
				c0.2,0.5,0.4,1,0.7,1.5l0.5,1.3l-1.2,0.7c-1.6,0.9-3.1,1.6-4.3,2.6c-1.2,1-2.1,2.3-3,3.8l-1.3-2.2c3.5-0.2,7-0.4,10.5-0.7
				l1.1-0.1l0.3,1c0.8,2.9,1.4,5.9,1.7,8.9c0.2,3,0.2,6.1-0.3,9.1c-0.5,3-1.3,5.9-2.6,8.7c-1.2,2.8-2.9,5.3-4.8,7.6l-0.4,0.4
				l-0.5-0.2c-1.2-0.6-2.2-1.2-3.2-1.9c-1-0.7-2-1.4-3-2.2c-1.9-1.5-3.8-3.2-5.5-4.9c-0.9-0.9-1.7-1.8-2.5-2.7
				c-0.8-0.9-1.6-1.9-2.3-2.9c-0.7-1-1.5-2-2.1-3c-0.7-1-1.3-2.1-2-3.1c-0.6-1.1-1.2-2.1-1.8-3.2c-0.6-1.1-1.1-2.2-1.6-3.3
				c-0.5-1.1-1-2.3-1.4-3.4c-0.4-1.2-0.9-2.3-1.2-3.5l-0.6-1.7l-0.5-1.8c-0.4-1.2-0.6-2.4-0.9-3.6c-0.3-1.2-0.5-2.4-0.8-3.6
				l-0.6-3.6l-0.1-0.5l0.4-0.3c1.1-0.9,2.1-1.7,3.3-2.5c0.6-0.4,1.2-0.7,1.9-1.1c0.3-0.2,0.7-0.3,1.1-0.4c0.2,0,0.5-0.1,0.8-0.1
				c0.3,0,0.7,0.1,1.1,0.4L34.3,64c0-0.1-0.1-0.3-0.2-0.4c-0.1-0.2-0.2-0.3-0.3-0.5c-0.2-0.3-0.4-0.6-0.6-0.8
				c-0.5-0.5-1-0.9-1.6-1.2c-1.1-0.5-2.5-0.5-3.8,0l-1.9,0.7l0.2-2c0.3-2.8,0.6-5.6,1-8.4l0.5-4.2c0.2-1.4,0.4-2.8,0.6-4.3l0.2-1.2
				l1.2,0.1l7,0.5l-0.8,2.4l-5.9-3.8l-0.8-0.5l0.2-0.9c0.2-0.8,0.4-1.6,0.6-2.4l0.6-2.5c0.4-1.7,0.7-3.3,1-5l0.2-0.9l0.9,0l5.6-0.2
				l-0.6,1.8l-4.3-4l-0.8-0.7l0.8-0.7c0.3-0.3,0.7-0.7,1.1-1.1c0.4-0.4,0.7-0.8,1-1.2c0.6-0.9,1.2-1.8,1.7-2.8c1-1.9,1.7-4,2.2-6.1
				c0.5-2.1,0.7-4.4,0.7-6.6c0-0.6,0-1.1,0-1.7c0-0.6-0.1-1.1-0.1-1.7c-0.1-1.1-0.2-2.2-0.4-3.3l0-0.3L39.6,0.1z"/>
		</g>
	</g>
	<g>
		<path fill="#CEB64F" d="M54.1,117.5c0,0-0.3-0.4-0.7-1.2c-0.5-0.8-1.1-1.9-1.9-3.4c-1.6-2.9-3.7-7.2-5.9-12.4
			c-2.2-5.3-4.4-11.6-5.7-18.7c-0.3-1.8-0.6-3.6-0.8-5.5c-0.1-1-0.2-1.8-0.2-2.8c-0.1-1-0.1-1.9-0.1-2.8c0-3.7,0.2-7.5,0.5-11.2
			c0.6-7.4,1.6-14.7,2.3-21.5c0.8-6.8,1.3-13.2,1.5-18.7c0.2-5.5-0.1-10-0.6-13.2c-0.1-0.8-0.2-1.5-0.3-2.1
			c-0.1-0.6-0.2-1.1-0.3-1.5c-0.2-0.8-0.3-1.3-0.3-1.3s0.1,0.4,0.4,1.3c0.1,0.4,0.3,0.9,0.4,1.5c0.2,0.6,0.3,1.3,0.5,2.1
			c0.7,3.1,1.3,7.7,1.5,13.3c0.3,5.5,0.1,12-0.1,18.9c-0.2,6.9-0.7,14.2-0.7,21.5c0,3.6,0,7.3,0.3,10.7c0.1,0.9,0.2,1.7,0.3,2.5
			c0.1,0.8,0.2,1.8,0.4,2.5c0.3,1.6,0.8,3.3,1.2,4.8c1.9,6.3,4.6,11.9,7.1,16.6c2.5,4.7,5,8.4,6.7,11c0.9,1.3,1.6,2.3,2.1,2.9
			c0.5,0.6,0.7,1,0.7,1L54.1,117.5z"/>
	</g>
</g>
<g>
	<path fill="#CEB64F" d="M75.1,30.8c0,0,1-0.4,2.9-1c0.9-0.3,2.1-0.6,3.4-0.8c1.4-0.2,2.9-0.4,4.7,0c0.4,0.1,0.9,0.3,1.3,0.5
		c0.4,0.3,0.8,0.7,1.1,1c0.6,0.7,1.1,1.5,1.6,2.3c0.5,0.8,1,1.6,1.6,2.4c0.3,0.4,0.6,0.8,0.9,1.1c0.3,0.3,0.7,0.6,1.1,0.6
		c0.4-0.1,0.6-0.5,0.9-1c0.3-0.5,0.6-0.9,1-1.3c0.7-0.8,1.6-1.5,2.5-2.2c0.5-0.3,0.9-0.6,1.5-0.8c0.5-0.2,1.1-0.4,1.7-0.4
		c0.3,0,0.7,0.2,0.8,0.6c0.1,0.3,0.1,0.6,0.1,0.9c-0.1,0.6-0.2,1.1-0.1,1.6c0.1,1,0.8,1.9,1.7,2.3c0.9,0.5,2,0.7,3,0.9l0.2,0l0,0
		c0,0,0,0,0,0l0,0l0.1,0c0.1,0,0.3,0,0.4,0c0.2,0,0.5-0.1,0.7-0.1c0.5-0.1,0.9-0.3,1.4-0.6c0.9-0.5,1.8-1,2.7-1.6
		c0.9-0.6,1.7-1.1,2.7-1.6c0.5-0.2,1-0.5,1.5-0.6c0.3-0.1,0.6-0.1,0.9,0c0.3,0,0.7,0.3,0.9,0.5c0.4,0.5,0.5,1.1,0.6,1.5
		c0.1,0.5,0.2,0.9,0.3,1.3c0.2,0.9,0.4,1.7,0.8,2.3c0.4,0.6,1,0.8,1.7,0.7c0.7,0,1.4-0.3,2-0.4c0.6-0.2,1.4-0.3,2-0.2
		c0.6,0.1,1.2,0.2,1.6,0.4c0.9,0.5,1.4,1.1,1.7,1.5c0.3,0.4,0.4,0.7,0.4,0.7l-0.1,0c0,0-0.1-0.2-0.5-0.6c-0.3-0.4-0.9-0.9-1.8-1.3
		c-0.4-0.2-0.9-0.3-1.5-0.3c-0.6,0-1.1,0.1-1.8,0.3c-0.6,0.2-1.3,0.5-2.1,0.6c-0.4,0-0.9,0-1.3-0.1c-0.5-0.1-0.9-0.5-1.1-0.9
		c-0.6-0.8-0.8-1.7-1-2.5c-0.1-0.4-0.2-0.9-0.4-1.3c-0.1-0.5-0.2-0.9-0.4-1.1c-0.3-0.4-1.3-0.1-2.1,0.3c-0.9,0.4-1.7,1-2.6,1.6
		c-0.9,0.6-1.8,1.1-2.8,1.6c-0.5,0.2-1,0.5-1.6,0.6c-0.3,0.1-0.6,0.1-0.9,0.1c-0.2,0-0.3,0-0.5,0l-0.1,0l-0.1,0l-0.1,0l-0.2,0
		c-1.1-0.2-2.2-0.5-3.2-1.1c-0.5-0.3-1-0.7-1.3-1.2c-0.3-0.5-0.5-1.1-0.5-1.7c0-0.6,0.1-1.2,0.2-1.7c0.1-0.5,0-1-0.5-1.1
		c-0.5-0.1-1,0.1-1.5,0.3c-0.5,0.2-1,0.5-1.4,0.8c-0.9,0.6-1.7,1.3-2.4,2.1c-0.3,0.4-0.6,0.8-0.9,1.3c-0.2,0.4-0.5,1.1-1.1,1.3
		c-0.3,0.1-0.7,0-1-0.1c-0.3-0.1-0.5-0.3-0.7-0.5c-0.4-0.4-0.7-0.8-1.1-1.2c-0.6-0.8-1.2-1.6-1.7-2.4c-0.5-0.8-1.1-1.5-1.6-2.2
		c-0.3-0.4-0.5-0.6-0.8-0.8c-0.3-0.2-0.7-0.3-1-0.4c-1.5-0.4-3.1-0.2-4.4-0.1c-1.3,0.1-2.5,0.4-3.4,0.6
		C76.2,30.5,75.1,30.8,75.1,30.8L75.1,30.8z"/>
</g>
<g>
	<path fill="#CEB64F" d="M71.1,42.3c0,0,0.9-0.9,2.5-2.2c0.4-0.3,0.9-0.7,1.4-1.1c0.3-0.2,0.6-0.4,0.9-0.6c0.1,0,0.2-0.1,0.3-0.1
		c0.1,0,0.2-0.1,0.5,0c0.1,0,0.3,0.3,0.3,0.3c0,0.1,0,0.2,0,0.3c0,0.1-0.1,0.2-0.1,0.3c-0.7,1.4-1.7,2.7-2.7,4.2
		c-0.3,0.4-0.5,0.8-0.7,1.2c-0.1,0.2-0.2,0.4-0.3,0.6c-0.1,0.2-0.2,0.4-0.2,0.5l0,0c0,0,0-0.1,0-0.1c0,0-0.1-0.1-0.1-0.1
		c0,0,0,0-0.1,0c0,0,0.1,0,0.2,0c0.2-0.1,0.4-0.2,0.6-0.3c0.4-0.2,0.9-0.5,1.3-0.8c0.9-0.5,1.9-1.1,2.9-1.5c1-0.4,2.1-0.8,3.3-0.9
		c0.6-0.1,1.2,0,1.8,0.2c0.6,0.2,1.1,0.8,1.2,1.5c0.1,0.6,0.1,1.2,0,1.8c0,0.6-0.1,1.2-0.1,1.8c0,0.3,0,0.6,0.1,0.8
		c0.1,0.2,0.3,0.5,0.5,0.6c0.5,0.3,1.1,0.5,1.6,0.6c1.2,0.2,2.4,0.3,3.6,0.4c0.6,0,1.2,0,1.8,0c0.6-0.1,1.2-0.1,1.7-0.3
		c1.2-0.2,2.3-0.7,3.4-1.1c2.2-0.8,4.5-1.7,6.9-2.1c0.6-0.1,1.2-0.1,1.8-0.1c0.3,0,0.6,0.1,0.9,0.1c0.3,0,0.6,0.1,0.9,0.2
		c0.6,0.2,1.1,0.4,1.6,0.7l0.7,0.4c0.2,0.2,0.4,0.4,0.6,0.5c0.4,0.4,0.8,0.7,1.1,1.2c0.3,0.4,0.6,0.8,0.9,1.2
		c0.3,0.4,0.6,0.8,0.9,1.2c0.3,0.4,0.6,0.7,0.9,1c1.2,1.2,2.7,2,4.1,2.1c1.4,0.1,2.7-0.3,3.6-0.8c0.9-0.5,1.6-1,2.1-1.3
		c0.4-0.4,0.6-0.6,0.6-0.6l0.1,0.1c0,0-0.2,0.2-0.6,0.7c-0.4,0.4-1.1,1-2,1.5c-0.9,0.6-2.2,1.1-3.8,1.1c-1.6,0-3.3-0.8-4.7-2.1
		c-0.3-0.3-0.7-0.7-1-1c-0.3-0.4-0.6-0.8-0.9-1.1c-0.7-0.8-1.2-1.6-2-2.2c-0.2-0.2-0.4-0.4-0.6-0.5l-0.6-0.4
		c-0.4-0.3-0.9-0.4-1.4-0.6c-0.2-0.1-0.5-0.1-0.8-0.2c-0.3,0-0.5-0.1-0.8-0.1c-0.5,0-1.1,0-1.6,0.1c-2.2,0.3-4.4,1.1-6.7,1.9
		c-1.2,0.4-2.3,0.7-3.6,1c-0.6,0.1-1.3,0.2-1.9,0.2c-0.6,0-1.2,0-1.9-0.1c-1.2-0.2-2.4-0.3-3.6-0.6c-0.6-0.1-1.2-0.3-1.8-0.7
		c-0.3-0.2-0.5-0.5-0.6-0.8c-0.1-0.3-0.1-0.6-0.1-1c0-0.6,0.1-1.2,0.1-1.8c0-0.6,0.1-1.2-0.1-1.7c-0.1-0.5-0.5-1-1-1.1
		c-0.5-0.2-1.1-0.2-1.6-0.1c-2.2,0.4-4.1,1.5-5.9,2.5c-0.4,0.3-0.9,0.6-1.3,0.8c-0.2,0.1-0.5,0.3-0.8,0.4c-0.1,0-0.3,0.1-0.6,0.1
		c-0.1,0-0.1,0-0.2-0.1c-0.1-0.1-0.2-0.1-0.3-0.2c0-0.1-0.1-0.2-0.1-0.3c0-0.1,0-0.1,0-0.2c0.1-0.4,0.2-0.6,0.3-0.9
		c0.1-0.2,0.3-0.4,0.4-0.7c0.3-0.4,0.5-0.8,0.8-1.2c1-1.5,2.1-2.9,2.8-4.1c0-0.1,0.1-0.1,0.1-0.2c0,0,0,0,0,0c0,0,0,0,0,0.1
		c0,0,0.1,0,0.1,0.1c0.1,0,0,0,0,0c-0.1,0-0.1,0-0.2,0.1c-0.3,0.1-0.6,0.3-0.8,0.5c-0.5,0.3-1,0.7-1.5,1c-0.9,0.6-1.6,1.1-2,1.4
		C71.4,42.2,71.2,42.4,71.1,42.3L71.1,42.3z"/>
</g>
<g>
	<path fill="#CEB64F" d="M67.1,56.4c0,0,0.1,0.3,0.4,0.9c0.3,0.5,0.7,1.4,1.4,2.3c0.2,0.2,0.4,0.4,0.6,0.7c0.2,0.2,0.5,0.4,0.7,0.3
		c0.4,0,0.7-0.9,1-1.6c0.4-0.7,0.8-1.5,1.3-2.3c0.3-0.4,0.6-0.8,1.1-1.1c0.4-0.3,1-0.5,1.6-0.5c1.2,0.1,2.1,0.9,2.8,1.8
		c0.4,0.4,0.7,0.9,1,1.4c0.3,0.5,0.6,1,0.8,1.5c0.5,1,0.9,2.2,1.3,3.3c0.2,0.5,0.4,1.1,0.7,1.5c0.3,0.4,0.8,0.6,1.3,0.6
		c1.2-0.1,2.2-0.8,3.1-1.7c0.8-0.9,1.5-2,2.2-3.1c0.3-0.6,0.6-1.1,1-1.7c0.2-0.3,0.3-0.6,0.6-0.8c0.1-0.1,0.2-0.1,0.3-0.2
		c0.1,0,0.3,0,0.4,0.1c0.2,0.2,0.2,0.3,0.3,0.5c0.4,1.3,0.4,2.7,0.4,4c0,0.7,0.1,1.3,0.2,1.9c0.1,0.3,0.2,0.6,0.3,0.8
		c0.1,0.2,0.3,0.2,0.5,0.1c0.5-0.2,1-0.6,1.4-1c0.4-0.4,0.9-0.9,1.3-1.4c0.4-0.5,0.8-1,1.3-1.5c0.1-0.1,0.3-0.2,0.5-0.3
		c0.2-0.1,0.5-0.2,0.9,0c0.3,0.2,0.4,0.4,0.5,0.6l0.1,0.1c0,0,0,0,0,0.1l0,0.1l0.1,0.2c0.4,1.3,0.2,2.8,1,3.1
		c0.8,0.4,2.2,0.2,3.3,0.1c1.1-0.1,2.3-0.4,3.6-0.3c2.5,0.2,4.4,1.3,6.2,2.3c1.7,1,3.3,1.6,4.9,1.8c1.6,0.2,2.9,0,4.1,0
		c0.6,0,1.1,0,1.6,0.1c0.5,0.2,0.8,0.4,1,0.7c0.2,0.3,0.3,0.5,0.3,0.7c0.1,0.2,0.1,0.2,0.1,0.2l-0.1,0c0,0,0-0.1-0.1-0.2
		c-0.1-0.1-0.1-0.4-0.3-0.6c-0.2-0.2-0.5-0.4-0.9-0.5c-0.4-0.1-0.9,0-1.5,0c-1.1,0.2-2.5,0.4-4.2,0.3c-1.7-0.1-3.5-0.7-5.3-1.7
		c-0.9-0.5-1.8-0.9-2.8-1.3c-1-0.4-2-0.7-3-0.7c-1.1-0.1-2.2,0.2-3.4,0.3c-0.6,0.1-1.2,0.1-1.9,0.1c-0.6,0-1.3,0-2-0.4
		c-0.4-0.2-0.7-0.5-0.8-0.9c-0.2-0.4-0.2-0.7-0.3-1c-0.1-0.7-0.1-1.3-0.3-1.8l-0.1-0.2l0-0.1c0,0,0,0,0,0l0-0.1
		c0-0.1-0.1-0.2-0.1-0.1c0.1,0,0.1,0,0,0c-0.1,0-0.2,0.1-0.3,0.2c-0.4,0.4-0.8,0.9-1.3,1.4c-0.4,0.5-0.9,1-1.4,1.5
		c-0.5,0.4-1.1,0.9-1.8,1.1c-0.2,0.1-0.4,0.1-0.7,0c-0.2-0.1-0.5-0.2-0.6-0.4c-0.3-0.4-0.3-0.7-0.4-1.1c-0.1-0.7-0.1-1.4-0.1-2
		c0-1.3,0.1-2.6-0.2-3.9c0-0.1-0.1-0.3-0.2-0.4c0-0.1-0.1-0.1-0.2,0c-0.2,0.2-0.4,0.5-0.6,0.7c-0.3,0.5-0.7,1.1-1,1.7
		c-0.7,1.1-1.3,2.3-2.2,3.2C86,64.1,85.5,64.6,85,65c-0.6,0.4-1.2,0.6-1.8,0.7c-0.2,0-0.3,0-0.5,0c-0.2,0-0.4,0-0.5-0.1
		c-0.2,0-0.3-0.1-0.5-0.3c-0.2-0.1-0.3-0.2-0.4-0.4c-0.4-0.5-0.7-1.1-0.9-1.7c-0.5-1.1-0.9-2.2-1.4-3.2c-0.2-0.5-0.5-1-0.8-1.4
		c-0.3-0.5-0.6-0.9-0.9-1.3c-0.6-0.8-1.4-1.5-2.2-1.5c-0.8,0-1.5,0.6-2,1.3c-0.5,0.7-1,1.4-1.4,2.1c-0.2,0.4-0.4,0.7-0.6,1
		c-0.2,0.3-0.5,0.8-1,0.8c-0.5,0-0.8-0.3-1.1-0.5c-0.2-0.2-0.4-0.5-0.6-0.8c-0.6-1-1-1.9-1.2-2.4C67.1,56.8,67,56.5,67.1,56.4
		L67.1,56.4z"/>
</g>
<g>
	<path fill="#CEB64F" d="M66,71.6c0,0,0.8-0.4,2.3-0.5c0.8-0.1,1.7-0.1,2.8,0.2c1.1,0.2,2.2,0.8,3.2,1.6c1,0.8,1.9,2.1,2.6,3.3
		c0.4,0.6,0.8,1.3,1.2,1.9c0.2,0.3,0.4,0.6,0.7,0.8c0.3,0.2,0.4,0.3,0.7,0c0.5-0.5,0.9-1.3,1.3-2c0.4-0.7,0.9-1.4,1.3-2.1
		c0.2-0.4,0.5-0.7,0.7-1.1c0.3-0.3,0.5-0.7,1.1-0.9c0.2,0,0.3,0,0.5,0.1c0.1,0.1,0.2,0.2,0.2,0.3c0.1,0.2,0.2,0.4,0.2,0.7
		c0.1,0.4,0.2,0.9,0.2,1.3c0.1,0.9,0.1,1.7,0.2,2.5c0.1,0.8,0.3,1.6,0.7,2.2c0.8,1.2,2.5,1.4,4,1.3c1.5-0.1,3-0.5,4.4-0.8
		c1.4-0.4,2.8-0.7,4.2-0.7c1.3,0,2.6,0.2,3.5,0.7c1,0.4,1.8,0.9,2.4,1.4c0.6,0.5,1,1,1.2,1.3c0.2,0.3,0.3,0.5,0.3,0.5l-0.1,0.1
		c0,0-0.1-0.2-0.4-0.4c-0.3-0.3-0.7-0.7-1.3-1.1c-0.6-0.4-1.4-0.8-2.3-1.2c-1-0.3-2.1-0.5-3.3-0.4c-1.2,0.1-2.5,0.4-3.9,0.8
		c-1.4,0.4-3,0.7-4.6,0.8c-0.8,0.1-1.7,0-2.6-0.2c-0.9-0.2-1.8-0.8-2.3-1.6c-0.5-0.8-0.7-1.7-0.7-2.6c0-0.8,0-1.7,0-2.6
		c0-0.4,0-0.8-0.1-1.2c-0.1-0.4-0.2-0.9-0.4-0.8c-0.3,0.1-0.6,0.4-0.8,0.7c-0.3,0.3-0.5,0.7-0.7,1c-0.5,0.7-0.9,1.4-1.3,2.1
		c-0.4,0.7-0.7,1.5-1.2,2.2c-0.1,0.1-0.2,0.2-0.3,0.2c-0.1,0.1-0.3,0.1-0.4,0.1c-0.3,0-0.5-0.1-0.7-0.3c-0.4-0.3-0.6-0.6-0.9-0.9
		c-0.5-0.6-0.9-1.2-1.3-1.9c-0.8-1.3-1.5-2.4-2.4-3.2c-0.9-0.8-1.9-1.3-2.9-1.6c-1-0.3-1.8-0.4-2.6-0.4c-0.7,0-1.3,0-1.7,0.1
		C66.2,71.6,66,71.7,66,71.6L66,71.6z"/>
</g>
</svg>
