<!-- Generator: Adobe Illustrator 18.1.1, SVG Export Plug-In  -->
<svg version="1.0"
	 xmlns="http://www.w3.org/2000/svg" xmlns:xlink="http://www.w3.org/1999/xlink" xmlns:a="http://ns.adobe.com/AdobeSVGViewerExtensions/3.0/"
	 x="0px" y="0px" width="39.5px" height="56.1px" viewBox="0 0 39.5 56.1" overflow="scroll" enable-background="new 0 0 39.5 56.1"
	 xml:space="preserve">
<defs>
</defs>
<g>
	<path fill="#EFDB65" d="M6.2,8.6c0,0,1.6,18.3,10.9,20.2h5.4c0,0,12.8-5.1,8-20.2C30.6,8.6,17.8,2.5,6.2,8.6z"/>
	<polygon fill="#A77F45" points="0,3.5 1,9.6 35.8,10.1 34.8,0 	"/>
	<path fill="#EFDB65" d="M7.5,50.5c0,0,0.3-20,9.6-21.9h5.4c0,0,11.9,6.2,10.6,21C33.1,49.6,19,56.6,7.5,50.5z"/>
	<polygon fill="#A77F45" points="3.2,50.7 39.5,48.1 37.5,53.1 2.2,56.1 	"/>
</g>
</svg>
