<!-- Generator: Adobe Illustrator 18.1.1, SVG Export Plug-In  -->
<svg version="1.0"
	 xmlns="http://www.w3.org/2000/svg" xmlns:xlink="http://www.w3.org/1999/xlink" xmlns:a="http://ns.adobe.com/AdobeSVGViewerExtensions/3.0/"
	 x="0px" y="0px" width="75.9px" height="23.2px" viewBox="0 0 75.9 23.2" overflow="scroll" enable-background="new 0 0 75.9 23.2"
	 xml:space="preserve">
<defs>
</defs>
<g>
	<path fill="#CDB64E" d="M11.3,0.4v3.1H3.4v7.7h7.8v3H3.4v8.5H0V0.4H11.3z"/>
	<path fill="#CDB64E" d="M17.8,0.4v22.4h-3.4V0.4H17.8z"/>
	<path fill="#CDB64E" d="M24.6,0.4l7.9,15h0.1v-15h3.2v22.4H33L24.7,7.3h-0.1v15.6h-3.2V0.4H24.6z"/>
	<path fill="#CDB64E" d="M42.8,0.4v22.4h-3.4V0.4H42.8z"/>
	<path fill="#CDB64E" d="M47.8,17.6c0.4,0.7,0.9,1.3,1.6,1.9c0.7,0.5,1.7,0.8,2.9,0.8c1.1,0,2-0.3,2.6-0.8c0.6-0.5,1-1.3,1-2.5
		c0-0.8-0.2-1.5-0.5-2c-0.4-0.5-0.8-0.9-1.4-1.2c-0.7-0.4-1.5-0.7-2.3-1c-0.9-0.3-1.7-0.7-2.6-1.2c-0.5-0.3-0.9-0.6-1.2-0.9
		c-0.4-0.3-0.7-0.7-0.9-1.1s-0.4-0.9-0.6-1.4c-0.1-0.5-0.2-1.1-0.2-1.8c0-2.1,0.6-3.7,1.7-4.8S50.5,0,52.6,0c0.9,0,1.7,0.1,2.4,0.3
		c0.7,0.2,1.3,0.5,1.8,0.8s0.9,0.8,1.2,1.2c0.3,0.5,0.6,1,0.8,1.5l-2.3,1.4c-0.2-0.7-0.7-1.2-1.3-1.6C54.7,3.2,53.8,3,52.7,3
		c-1.1,0-1.9,0.2-2.6,0.7c-0.6,0.5-0.9,1.3-0.9,2.5c0,0.8,0.2,1.5,0.5,1.9c0.3,0.4,0.9,0.8,1.6,1.2c0.8,0.4,1.7,0.7,2.6,1
		c1,0.3,1.8,0.8,2.7,1.3c0.7,0.5,1.3,1.1,1.7,2c0.5,0.8,0.7,1.9,0.7,3.3c0,1.1-0.2,2.1-0.5,2.9c-0.3,0.8-0.8,1.5-1.4,2
		c-0.6,0.5-1.3,0.9-2.1,1.1c-0.8,0.2-1.7,0.4-2.7,0.4c-1,0-1.9-0.1-2.7-0.4c-0.8-0.2-1.5-0.5-2-0.9c-0.6-0.4-1-0.8-1.4-1.3
		c-0.4-0.5-0.6-1-0.8-1.6L47.8,17.6z"/>
	<path fill="#CDB64E" d="M65.3,0.4v10.8h7.2V0.4h3.4v22.4h-3.4v-8.5h-7.2v8.5h-3.4V0.4H65.3z"/>
</g>
</svg>
