<!-- Generator: Adobe Illustrator 18.1.1, SVG Export Plug-In  -->
<svg version="1.0"
	 xmlns="http://www.w3.org/2000/svg" xmlns:xlink="http://www.w3.org/1999/xlink" xmlns:a="http://ns.adobe.com/AdobeSVGViewerExtensions/3.0/"
	 x="0px" y="0px" width="74px" height="15.1px" viewBox="0 0 74 15.1" overflow="scroll" enable-background="new 0 0 74 15.1"
	 xml:space="preserve">
<defs>
</defs>
<g>
	<path fill="#CDB64E" d="M7.6,4v11.1H2.9V4H0V0h10.7v4H7.6z"/>
	<path fill="#CDB64E" d="M15.5,0h4.3l4.5,15.1h-4.7l-0.4-1.5H16l-0.3,1.5H11L15.5,0z M16.7,10.3h1.8l-0.9-4L16.7,10.3z"/>
	<path fill="#CDB64E" d="M29.5,8.9v6.2h-4.8V0h8.7c0.5,0,0.9,0.1,1.3,0.3c0.4,0.2,0.8,0.5,1.1,0.8c0.3,0.4,0.6,0.8,0.7,1.2
		s0.3,1,0.3,1.5c0,0.6-0.1,1.2-0.4,1.7s-0.7,0.9-1.2,1.1c0.3,0.2,0.7,0.4,0.9,0.7c0.3,0.3,0.5,0.6,0.6,0.9c0.2,0.5,0.3,1,0.3,1.5
		c0,0.5,0.1,1,0.1,1.5s0.2,0.9,0.4,1.3c0.2,0.4,0.5,0.7,1,1v1.3h-5.4c-0.4-0.2-0.6-0.5-0.8-0.8s-0.3-0.8-0.3-1.2S32,12.1,32,11.6
		s0-0.9-0.1-1.3c-0.1-0.4-0.2-0.7-0.4-1c-0.2-0.3-0.5-0.4-0.9-0.4H29.5z M29.5,4.5V6H32c0.2,0,0.3-0.1,0.4-0.2s0.2-0.3,0.2-0.5
		c0-0.2-0.1-0.4-0.2-0.5c-0.1-0.1-0.3-0.2-0.4-0.2H29.5z"/>
	<path fill="#CDB64E" d="M45.1,6h6.1v9.1c-1,0-1.7-0.3-2.1-0.9c-0.7,0.6-1.7,0.9-2.9,0.9h-2.9c-2.7,0-4.1-1.4-4.1-4.3V6.5
		c0-1,0.1-1.8,0.3-2.6s0.5-1.5,0.9-2c0.4-0.6,0.9-1,1.4-1.3C42.3,0.2,43,0,43.7,0h6.8l0.4,5h-6.6c-0.7,0-1,0.4-1,1.1v3.2
		c0,0.7,0.3,1.1,1,1.1h2.4c0.4,0,0.7-0.2,0.7-0.7V9.1h-2.2V6z"/>
	<path fill="#CDB64E" d="M52.2,15.1V0h10.5v3.7h-5.5v1.6h5.2v3.9h-5.2v1.7h5.5v4.3H52.2z"/>
	<path fill="#CDB64E" d="M71,4v11.1h-4.7V4h-2.9V0H74v4H71z"/>
</g>
</svg>
