<!-- Generator: Adobe Illustrator 18.1.1, SVG Export Plug-In  -->
<svg version="1.0"
	 xmlns="http://www.w3.org/2000/svg" xmlns:xlink="http://www.w3.org/1999/xlink" xmlns:a="http://ns.adobe.com/AdobeSVGViewerExtensions/3.0/"
	 x="0px" y="0px" width="116.7px" height="15.1px" viewBox="0 0 116.7 15.1"
	 overflow="scroll" enable-background="new 0 0 116.7 15.1" xml:space="preserve">
<defs>
</defs>
<g>
	<path fill="#CDB64E" d="M5,4.9c-0.4,0-0.6,0.3-0.6,0.9V9c0,0.6,0.2,0.9,0.6,0.9h4.5v5.2H4.2c-0.6,0-1.2-0.2-1.7-0.5
		c-0.5-0.3-1-0.7-1.3-1.3s-0.7-1.2-0.9-1.9C0.1,10.8,0,10,0,9.2V5.9c0-0.8,0.1-1.6,0.3-2.3c0.2-0.7,0.5-1.4,0.9-1.9s0.8-1,1.3-1.3
		C3.1,0.2,3.6,0,4.2,0h5.2v4.9H5z"/>
	<path fill="#CDB64E" d="M18.2,0c0.6,0,1.2,0.2,1.7,0.5c0.5,0.3,1,0.7,1.3,1.3s0.7,1.2,0.9,1.9c0.2,0.7,0.3,1.5,0.3,2.3v3.2
		c0,0.8-0.1,1.6-0.3,2.3c-0.2,0.7-0.5,1.4-0.9,1.9s-0.8,1-1.3,1.3s-1.1,0.5-1.7,0.5h-3.7c-0.6,0-1.2-0.2-1.7-0.5
		c-0.5-0.3-1-0.7-1.3-1.3s-0.7-1.2-0.9-1.9s-0.3-1.5-0.3-2.3V5.9c0-0.8,0.1-1.5,0.3-2.2c0.2-0.7,0.5-1.4,0.9-1.9
		c0.4-0.5,0.8-1,1.3-1.3C13.3,0.2,13.9,0,14.6,0H18.2z M18.5,5.7c0-0.2-0.1-0.4-0.3-0.6c-0.2-0.2-0.4-0.3-0.5-0.3h-2.6
		c-0.2,0-0.4,0.1-0.5,0.3c-0.2,0.2-0.3,0.4-0.3,0.6v3.2c0,0.2,0.1,0.4,0.3,0.6c0.2,0.2,0.4,0.3,0.5,0.3h2.6c0.2,0,0.3-0.1,0.5-0.3
		s0.3-0.4,0.3-0.6V5.7z"/>
	<path fill="#CDB64E" d="M35.6,15.1V9.3l-2.1,5.8h-3.6l-2.1-5.8v5.8h-4.3V0h4.7l3.5,9.3L35.1,0h4.7v15.1H35.6z"/>
	<path fill="#CDB64E" d="M40.8,0h7.3c3.1,0,4.6,1.7,4.6,5c0,3.4-1.5,5.1-4.6,5.1h-3.2v5h-4.1V0z M44.9,4.7v1.5h3
		c0.4,0,0.7-0.3,0.7-0.8c0-0.5-0.2-0.7-0.7-0.7H44.9z"/>
	<path fill="#CDB64E" d="M54,15.1V0h4.7v10h3.9v5.1H54z"/>
	<path fill="#CDB64E" d="M63.3,15.1V0h10.5v3.7h-5.5v1.6h5.2v3.9h-5.2v1.7h5.5v4.3H63.3z"/>
	<path fill="#CDB64E" d="M82.1,4v11.1h-4.7V4h-2.9V0h10.7v4H82.1z"/>
	<path fill="#CDB64E" d="M85.9,15.1V0h4.7v15.1H85.9z"/>
	<path fill="#CDB64E" d="M99.5,0c0.6,0,1.2,0.2,1.7,0.5c0.5,0.3,1,0.7,1.3,1.3s0.7,1.2,0.9,1.9c0.2,0.7,0.3,1.5,0.3,2.3v3.2
		c0,0.8-0.1,1.6-0.3,2.3c-0.2,0.7-0.5,1.4-0.9,1.9s-0.8,1-1.3,1.3s-1.1,0.5-1.7,0.5h-3.7c-0.6,0-1.2-0.2-1.7-0.5
		c-0.5-0.3-1-0.7-1.3-1.3s-0.7-1.2-0.9-1.9s-0.3-1.5-0.3-2.3V5.9c0-0.8,0.1-1.5,0.3-2.2c0.2-0.7,0.5-1.4,0.9-1.9
		c0.4-0.5,0.8-1,1.3-1.3C94.6,0.2,95.2,0,95.8,0H99.5z M99.7,5.7c0-0.2-0.1-0.4-0.3-0.6c-0.2-0.2-0.4-0.3-0.5-0.3h-2.6
		c-0.2,0-0.4,0.1-0.5,0.3c-0.2,0.2-0.3,0.4-0.3,0.6v3.2c0,0.2,0.1,0.4,0.3,0.6c0.2,0.2,0.4,0.3,0.5,0.3H99c0.2,0,0.3-0.1,0.5-0.3
		s0.3-0.4,0.3-0.6V5.7z"/>
	<path fill="#CDB64E" d="M113.1,15.1L109,8.4v6.7h-4.3V0h3.4l4.5,6.8V0h4.2v15.1H113.1z"/>
</g>
</svg>
