<!-- Generator: Adobe Illustrator 18.1.1, SVG Export Plug-In  -->
<svg version="1.0"
	 xmlns="http://www.w3.org/2000/svg" xmlns:xlink="http://www.w3.org/1999/xlink" xmlns:a="http://ns.adobe.com/AdobeSVGViewerExtensions/3.0/"
	 x="0px" y="0px" width="419.7px" height="795.6px" viewBox="0 0 419.7 795.6" enable-background="new 0 0 419.7 795.6"
	 xml:space="preserve">
<defs>
</defs>
<g>
	<rect x="6.7" y="7.7" fill="#4A3F29" width="404.9" height="781.3"/>
	<path fill="#CEB64F" d="M412.3,789.7l-26,0.7l-25.3,0.6l-25.3,0.6l-25.3,0.5l-25.3,0.5l-25.3,0.4l-50.6,0.8l-50.6,0.6l-50.6,0.5
		l-50.6,0.4l-50.6,0.3l-6.5,0l0-6.6l-0.2-48.8L0,691.3l0.2-48.8l0.4-48.8l0.6-48.8L1.9,496l1.5-97.7l0.3-24.4L4,349.5l0.4-48.8
		l0.1-48.8L4.4,203l-0.1-24.4l-0.2-24.4c-0.1-16.3-0.2-32.6-0.4-48.8L3.3,56.5L2.6,7.7l-0.1-4l4.2-0.1L108,2.2l50.6-0.6l25.3-0.2
		l25.3-0.2l101.2-0.6L411.6,0l7.6,0l0,7.7l0.2,48.8l0.1,48.8l0,48.8l-0.1,48.8l-0.2,48.8l-0.3,48.8l-0.7,97.7l-0.2,24.4l-0.3,24.4
		l-0.5,48.8l-0.6,48.8l-0.7,48.8l-0.8,48.8l-0.9,48.8c-0.6,32.6-1.3,65.1-2.2,97.7L412.3,789.7z M410.8,788.2
		c-0.8-32.3-1.6-64.6-2.2-96.9l-0.9-48.8l-0.8-48.8l-0.7-48.8l-0.6-48.8l-0.5-48.8l-0.3-24.4l-0.2-24.4l-0.7-97.7l-0.3-48.8
		l-0.2-48.8l-0.1-48.8l0-48.8l0.1-48.8l0.2-48.8l7.7,7.7l-101.2-0.5l-101.2-0.6L183.9,14l-25.3-0.2L108,13.2L6.7,11.8l4.1-4.1
		l-0.6,48.8l-0.5,48.8c-0.2,16.3-0.2,32.6-0.4,48.8l-0.2,24.4L9.1,203L9,251.9l0.1,48.8l0.4,48.8l0.3,24.4l0.3,24.4l1.5,97.7
		l0.7,48.8l0.6,48.8l0.4,48.8l0.2,48.8l-0.1,48.8L13.3,789l-6.5-6.5l50.6,0.3l50.6,0.4l50.6,0.5l50.6,0.6l50.6,0.8l25.3,0.4
		l25.3,0.5l25.3,0.5l25.3,0.6l25.3,0.6L410.8,788.2z"/>
</g>
</svg>
