<!-- Generator: Adobe Illustrator 18.1.1, SVG Export Plug-In  -->
<svg version="1.0"
	 xmlns="http://www.w3.org/2000/svg" xmlns:xlink="http://www.w3.org/1999/xlink" xmlns:a="http://ns.adobe.com/AdobeSVGViewerExtensions/3.0/"
	 x="0px" y="0px" width="391.9px" height="595.7px" viewBox="0 0 391.9 595.7" enable-background="new 0 0 391.9 595.7"
	 xml:space="preserve">
<defs>
</defs>
<g>
	<rect x="6.7" y="8" fill="#4A3F29" width="377.1" height="581"/>
	<path fill="#CEB64F" d="M384.5,589.7l-24.3,0.9l-23.6,0.7c-15.7,0.5-31.4,0.8-47.1,1.2l-47.1,0.9l-23.6,0.4l-23.6,0.4l-47.1,0.6
		l-47.1,0.4l-47.1,0.3l-47.1,0.2l-6.7,0l0-6.8l0-36.3l0.2-36.3L0.6,480l0.6-36.3l0.7-36.3l0.7-36.3l0.7-36.3l0.6-36.3l0.4-36.3
		l0.2-36.3l0-36.3l-0.1-36.3l-0.3-36.3C4,104.8,3.9,92.7,3.7,80.6L3.2,44.3L2.6,8l-0.1-4l4.2-0.1L101,2.3l47.1-0.6l47.1-0.4
		l94.3-0.7L383.8,0l7.9,0l0,8l0.1,36.3l0,36.3l-0.1,36.3l-0.1,36.3l-0.2,36.3l-0.3,36.3l-0.7,72.6l-1,72.6l-1.3,72.6l-0.7,36.3
		l-0.8,36.3l-0.9,36.3L384.5,589.7z M383,588.2l-1.1-35.5l-0.9-36.3l-0.8-36.3l-0.7-36.3l-1.3-72.6l-1-72.6l-0.7-72.6l-0.3-36.3
		l-0.2-36.3l-0.1-36.3l-0.1-36.3l0-36.3L375.9,8l7.9,7.9l-94.3-0.5l-94.3-0.7l-47.1-0.4L101,13.7L6.7,12.1L10.8,8l-0.6,36.3
		L9.8,80.6c-0.2,12.1-0.3,24.2-0.4,36.3l-0.3,36.3L9,189.5l0,36.3l0.2,36.3l0.4,36.3l0.6,36.3l0.7,36.3l0.7,36.3l0.7,36.3l0.6,36.3
		l0.4,36.3l0.2,36.3l0,36.3l-6.7-6.7l47.1,0.2l47.1,0.3l47.1,0.4l47.1,0.6l23.6,0.4l23.6,0.4l47.1,0.9c15.7,0.4,31.4,0.7,47.1,1.2
		l23.6,0.7L383,588.2z"/>
</g>
</svg>
