<!-- Generator: Adobe Illustrator 18.1.1, SVG Export Plug-In  -->
<svg version="1.0"
	 xmlns="http://www.w3.org/2000/svg" xmlns:xlink="http://www.w3.org/1999/xlink" xmlns:a="http://ns.adobe.com/AdobeSVGViewerExtensions/3.0/"
	 x="0px" y="0px" width="65.1px" height="65.1px" viewBox="0 0 65.1 65.1" overflow="scroll" enable-background="new 0 0 65.1 65.1"
	 xml:space="preserve">
<defs>
</defs>
<g>
	<g>
		<circle fill="#221910" cx="30.8" cy="30.8" r="30"/>
		<g>
			<path fill="#CDB64E" d="M9.5,9.5c0,0,0.5-0.5,1.6-1.4c0.3-0.2,0.5-0.5,0.9-0.8c0.3-0.3,0.7-0.5,1.1-0.8c0.4-0.3,0.8-0.6,1.3-1
				c0.5-0.3,1-0.6,1.6-1C18.2,3.3,21,1.9,24.6,1c3.5-0.9,7.7-1.3,12.3-0.7c4.5,0.6,9.4,2.3,14,5.3c0.6,0.4,1.1,0.8,1.7,1.2l0.8,0.6
				l0.4,0.3l0.4,0.4c1,0.9,1.9,1.7,2.9,2.9c0.5,0.6,1,1.2,1.5,1.8c0.4,0.6,0.9,1.2,1.3,1.8c0.5,0.6,0.8,1.3,1.2,1.9
				c0.4,0.7,0.8,1.3,1.1,2c1.3,2.8,2.2,5.9,2.7,9.1c0.4,3.2,0.4,6.5-0.1,9.9c-0.5,3.3-1.6,6.6-3.2,9.6c-1.5,3.1-3.7,5.8-6,8.3
				l-0.6,0.5l-0.4,0.4l-0.8,0.7l-0.4,0.4c-0.1,0.1-0.3,0.2-0.5,0.4l-1.1,0.8l-1.1,0.8L50,60l-0.6,0.3c-0.7,0.4-1.5,0.8-2.2,1.3
				c-3.1,1.5-6.3,2.6-9.6,3.2c-3.3,0.5-6.6,0.5-9.9,0.1c-3.2-0.5-6.3-1.4-9.1-2.7c-2.8-1.3-5.4-3-7.5-5c-1.1-0.9-2.1-2-3.1-3
				l-0.4-0.5l-0.3-0.4l-0.6-0.8c-0.4-0.5-0.8-1-1.2-1.6c-0.7-1.2-1.6-2.4-2.1-3.6c-0.3-0.6-0.6-1.2-0.9-1.8C2.4,45,2.2,44.4,2,43.8
				c-0.9-2.3-1.4-4.7-1.7-7c-0.6-4.6-0.1-8.7,0.7-12.3c0.9-3.5,2.3-6.4,3.6-8.6c0.3-0.5,0.7-1.1,1-1.6c0.3-0.5,0.7-0.9,1-1.3
				c0.3-0.4,0.6-0.8,0.8-1.1c0.3-0.3,0.5-0.6,0.8-0.9C9,10.1,9.5,9.5,9.5,9.5z M9.5,9.5c0,0-0.5,0.6-1.4,1.6
				c-0.2,0.3-0.5,0.5-0.8,0.9c-0.2,0.3-0.5,0.7-0.8,1.1c-0.3,0.4-0.6,0.8-0.9,1.3c-0.3,0.5-0.6,1-0.9,1.6c-1.2,2.3-2.5,5.2-3,8.7
				c-0.6,3.5-0.5,7.6,0.6,11.7c0.6,2,1.4,4.1,2.5,6.1c0.3,0.5,0.6,1,0.9,1.5c0.3,0.5,0.7,0.9,1,1.4c0.6,1,1.5,1.7,2.2,2.6
				c0.4,0.4,0.9,0.9,1.4,1.3l0.7,0.7l0.4,0.3c0.1,0.1-0.1-0.1,0-0.1l0,0l0.1,0.1l0.2,0.1c1,0.7,1.9,1.5,3,2.1c2,1.3,4.3,2.2,6.7,2.9
				c0.6,0.2,1.2,0.3,1.8,0.5c0.6,0.1,1.2,0.2,1.8,0.3l0.9,0.2l0.9,0.1c0.6,0,1.2,0.1,1.8,0.1c2.5,0,4.9-0.3,7.3-0.9l1.8-0.5
				c0.6-0.1,1.1-0.5,1.7-0.6l0.9-0.3c0.3-0.1,0.6-0.3,0.8-0.4c0.5-0.3,1.1-0.5,1.6-0.8c0.5-0.3,1-0.7,1.6-1l0.4-0.2l0.3-0.3l0.7-0.5
				l0.7-0.5c0.1-0.1,0.2-0.2,0.4-0.3l0.4-0.4l0.8-0.7l0.4-0.4l0.2-0.2l0.1-0.1l0.1,0c-0.1,0.1,0.2-0.2-0.1,0.1
				c1.7-1.8,3.2-3.7,4.5-5.8c0.3-0.5,0.6-1.1,0.8-1.6c0.1-0.3,0.3-0.5,0.4-0.8l0.3-0.9c0.2-0.6,0.5-1.1,0.7-1.7l0.5-1.8
				c0.6-2.4,0.9-4.8,0.9-7.3c0-0.6-0.1-1.2-0.1-1.8l-0.1-0.9l-0.2-0.9c-0.1-0.6-0.2-1.2-0.3-1.8c-0.2-0.6-0.3-1.2-0.5-1.8
				c-0.1-0.6-0.4-1.2-0.6-1.7c-0.2-0.6-0.4-1.2-0.7-1.7c-0.3-0.6-0.5-1.1-0.8-1.7c-0.3-0.5-0.6-1-0.9-1.5c-0.5-1-1.4-2.1-2.2-3.1
				l-0.1-0.2l-0.1-0.1l0,0c0,0,0.1,0.1,0,0l-0.3-0.3l-0.6-0.7c-0.4-0.4-0.8-0.9-1.2-1.3c-3.4-3.3-7.5-5.5-11.7-6.6
				c-4.1-1.1-8.2-1.2-11.7-0.6c-3.5,0.5-6.4,1.8-8.7,3c-0.6,0.3-1.1,0.6-1.6,0.9c-0.5,0.3-0.9,0.6-1.3,0.9c-0.4,0.3-0.8,0.6-1.1,0.8
				c-0.3,0.3-0.6,0.5-0.9,0.8C10.1,9,9.5,9.5,9.5,9.5z"/>
		</g>
	</g>
	<polygon fill="#EFDB65" points="46.4,25.6 33.6,25.6 33.6,12.7 27.3,12.7 27.3,25.6 14.4,25.6 14.4,31.9 27.3,31.9 27.3,44.7 
		33.6,44.7 33.6,31.9 46.4,31.9 	"/>
</g>
</svg>
