<!-- Generator: Adobe Illustrator 18.1.1, SVG Export Plug-In  -->
<svg version="1.0"
	 xmlns="http://www.w3.org/2000/svg" xmlns:xlink="http://www.w3.org/1999/xlink" xmlns:a="http://ns.adobe.com/AdobeSVGViewerExtensions/3.0/"
	 x="0px" y="0px" width="254.4px" height="223.5px" viewBox="0 0 254.4 223.5"
	 overflow="scroll" enable-background="new 0 0 254.4 223.5" xml:space="preserve">
<defs>
</defs>
<g>
	<polygon fill="#221910" points="189,70.2 156.1,65.3 152.7,42.5 190.4,42 	"/>
	<g>
		<path fill="#CDB64E" d="M188.9,70.4c-1.4,0.1-2.8,0.1-4.2,0c-1.4,0-2.8-0.1-4.2-0.1c-2.8-0.1-5.5-0.4-8.3-0.6
			c-2.8-0.3-5.5-0.6-8.2-1c-1.4-0.2-2.7-0.4-4.1-0.7c-1.4-0.3-2.7-0.6-4.1-0.9l-1.5-0.4l-0.1-1.2c-0.2-3.8-0.3-7.7-0.7-11.5
			c-0.2-1.9-0.5-3.8-0.8-5.7c-0.2-0.9-0.3-1.9-0.5-2.8c-0.2-0.9-0.4-1.9-0.6-2.8l-0.2-1l1.2-0.1c3.1-0.2,6.3-0.6,9.4-0.9
			c3.1-0.3,6.3-0.5,9.4-0.7c3.1-0.2,6.3-0.3,9.4-0.4c3.1-0.1,6.3-0.2,9.4-0.1l2.9,0l-0.2,2.7c-0.2,2.3-0.4,4.7-0.7,7
			c-0.1,1.2-0.2,2.3-0.4,3.5l-0.4,3.5c-0.3,2.3-0.6,4.7-1,7c-0.4,2.3-0.8,4.7-1.3,7l-0.1,0.2L188.9,70.4z M188.7,69.8
			c-0.3-2.3-0.4-4.5-0.6-6.8c-0.1-2.4-0.2-4.7-0.3-7.1l-0.1-3.5c0-1.2,0-2.4,0-3.5c0-2.4,0-4.7,0.1-7.1l2.7,2.8
			c-3.1,0.1-6.3,0.2-9.4,0.1c-3.1,0-6.3-0.1-9.4-0.2c-3.1-0.1-6.3-0.2-9.4-0.4c-3.1-0.2-6.3-0.5-9.4-0.7l1-1.1
			c0.1,1,0.2,1.9,0.3,2.9c0.1,1,0.2,1.9,0.3,2.9c0.3,1.9,0.6,3.8,0.9,5.7c0.7,3.8,1.8,7.5,2.7,11.2l-1.6-1.6
			c1.4,0.1,2.8,0.2,4.1,0.3c1.4,0.1,2.7,0.3,4.1,0.5c2.7,0.4,5.5,0.9,8.2,1.5c2.7,0.6,5.4,1.1,8.1,1.8c1.3,0.3,2.7,0.7,4,1.1
			C186.2,69,187.5,69.4,188.7,69.8z"/>
	</g>
</g>
<g>
	<path fill="#221910" d="M189.8,29.4L98.9,17.2c0,0-26.6,15.5-27.8,48.1s-0.6,73.3-49.7,81.8L81,170.6l45.1-0.2L165,79.6l8.2-40.4
		L189.8,29.4z"/>
	<g>
		<path fill="#CDB64E" d="M189,29.6c-3.5-0.3-7.1-0.6-10.6-1l-11.4-1.2c-3.8-0.4-7.6-0.8-11.4-1.2l-11.4-1.3l-11.4-1.3l-11.4-1.4
			l-11.4-1.4l-11.4-1.5l1.4-0.3c-1.3,0.8-2.7,1.8-3.9,2.8l-1.9,1.6l-1.8,1.7c-0.6,0.5-1.2,1.2-1.8,1.7l-0.9,0.9l-0.8,0.9l-1.7,1.8
			l-1.6,1.9c-1.1,1.3-2,2.7-2.9,4c-0.5,0.7-0.9,1.4-1.3,2.1L80,40.6c-0.8,1.5-1.5,2.9-2.2,4.4c-0.6,1.5-1.3,3.1-1.8,4.6l-1.5,4.7
			l-1,4.9c-0.4,3.3-0.8,6.6-0.9,10c-0.4,6.8-0.8,13.7-1.6,20.6c-0.4,3.4-0.9,6.8-1.6,10.2c-0.7,3.4-1.5,6.8-2.5,10.1
			c-1,3.3-2.3,6.5-3.9,9.7c-0.4,0.8-0.8,1.6-1.2,2.3c-0.4,0.7-0.8,1.5-1.3,2.2l-1.4,2.2l-1.6,2.1c-2.2,2.7-4.6,5.2-7.3,7.4
			c-2.7,2.2-5.7,4.1-8.7,5.7l-2.4,1.1c-0.8,0.4-1.6,0.7-2.4,1.1l-2.4,1l-2.5,0.8c-1.6,0.6-3.3,1-5,1.5c-1.7,0.4-3.4,0.8-5.1,1.1
			l0.2-2.4l30.1,11.2l15,5.7l15,5.7l-0.8-0.2l45.1-0.5l-2.4,1.6l9.7-22.7l9.9-22.7l10-22.6l10.1-22.6l-0.1,0.4l4.6-20.1l2.3-10.1
			c0.7-3.4,1.6-6.7,2.4-10l0.1-0.4l0.3-0.2l8.4-4.6C183.8,32.4,186.4,31,189,29.6z M189.9,29.7c-2.7,1.7-5.4,3.5-8.1,5.2l-8.1,5.1
			l0.4-0.6c-0.6,3.4-1.1,6.8-1.8,10.2l-1.8,10.1L166.9,80l0,0.2l-0.1,0.2l-9.4,22.9l-9.5,22.8l-9.6,22.8l-9.8,22.7l-0.7,1.6l-1.7,0
			L81,172.9l-0.5,0l-0.4-0.2l-14.9-6l-14.8-6.1l-29.6-12.3l-3.9-1.6l4.1-0.8c1.7-0.3,3.3-0.6,5-0.9c1.6-0.4,3.3-0.7,4.9-1.2l2.4-0.7
			l2.4-0.9c1.6-0.5,3.1-1.3,4.7-2c3-1.5,5.9-3.3,8.6-5.3c2.6-2.1,5-4.5,7.1-7.1c2.1-2.6,3.9-5.5,5.4-8.5c1.5-3,2.7-6.2,3.7-9.4
			c0.9-3.3,1.7-6.6,2.2-9.9c0.6-3.3,0.9-6.7,1.2-10.1c0.5-6.8,0.6-13.6,0.7-20.5c0-3.4,0.2-6.9,0.5-10.5l0.9-5.2l1.4-5.1
			c0.6-1.7,1.2-3.3,1.9-5c0.7-1.6,1.5-3.2,2.3-4.8c0.9-1.5,1.7-3.1,2.7-4.6c1-1.4,2-3,3.1-4.3l1.7-2.1l1.8-2
			c0.6-0.7,1.2-1.3,1.8-1.9c0.6-0.6,1.3-1.3,1.9-1.8l2-1.8l2.1-1.7c1.4-1.1,2.8-2.1,4.5-3.1l0.6-0.4l0.7,0.1l11.4,1.6l11.3,1.7
			l11.3,1.7l11.3,1.7l11.3,1.8c3.8,0.6,7.6,1.2,11.3,1.8l11.3,1.9c3.8,0.6,7.5,1.3,11.3,2l0.6,0.1L189.9,29.7z"/>
	</g>
</g>
<g>
	<path fill="#221910" d="M107.5,144.5l-95.9-12.2c0,0-21,13.9-4.7,37.7l111,14.1L107.5,144.5z"/>
	<g>
		<path fill="#CDB64E" d="M107.3,144.8c-4-0.2-7.9-0.4-11.9-0.7c-2-0.1-4-0.3-6-0.5l-6-0.5c-4-0.4-8-0.7-12-1.2c-4-0.4-8-0.8-12-1.3
			c-4-0.5-8-0.9-12-1.4l-6-0.8l-6-0.9c-2-0.3-4-0.6-6-0.9l-6-1l-11.9-2l0.8-0.2c-0.7,0.4-1.4,1-2,1.5c-0.7,0.5-1.3,1.1-1.9,1.7
			c-0.6,0.6-1.2,1.3-1.7,1.9c-0.5,0.7-1,1.4-1.5,2.1c-0.5,0.7-0.9,1.5-1.3,2.2c-0.4,0.8-0.7,1.6-1,2.4l-0.4,1.2l-0.3,1.2
			c-0.2,0.8-0.4,1.7-0.4,2.5c-0.1,0.4-0.1,0.9-0.1,1.3c0,0.4-0.1,0.9,0,1.3l0.1,1.3l0.1,1.3c0.1,0.9,0.3,1.7,0.5,2.5
			c0.2,0.8,0.4,1.7,0.8,2.5c0.3,0.8,0.6,1.6,1,2.4c0.3,0.8,0.8,1.6,1.2,2.3c0.4,0.8,0.9,1.5,1.3,2.2l1.5,2.1l-0.8-0.5l13.9,1.3
			c4.6,0.4,9.3,0.9,13.9,1.3l13.9,1.5l13.9,1.6c4.6,0.5,9.3,1,13.9,1.6l6.9,0.9c2.3,0.3,4.6,0.6,6.9,0.9c4.6,0.7,9.2,1.3,13.9,2
			c4.6,0.7,9.2,1.4,13.8,2.1l-2.3,2.6c-0.8-3.3-1.6-6.7-2.3-10c-0.7-3.3-1.5-6.7-2.2-10c-0.7-3.3-1.4-6.7-2.1-10
			C108.6,151.4,107.9,148.1,107.3,144.8z M107.8,144.5c1.1,3.2,2.2,6.5,3.2,9.8c1.1,3.3,2.1,6.5,3.1,9.8c1,3.3,2,6.5,3,9.8
			c1,3.3,1.9,6.6,2.9,9.8l0.9,2.9l-3.2-0.3c-4.6-0.4-9.3-1-13.9-1.4c-4.6-0.5-9.3-1.1-13.9-1.6c-2.3-0.3-4.6-0.5-6.9-0.8l-6.9-0.9
			c-4.6-0.6-9.2-1.2-13.9-1.9l-13.9-2l-13.8-2c-4.6-0.7-9.2-1.4-13.8-2.2l-13.8-2.2l-0.6-0.1L6,170.7l-1.4-2.3
			c-0.4-0.8-0.9-1.6-1.3-2.4c-0.4-0.8-0.8-1.6-1.1-2.5c-0.3-0.9-0.7-1.7-0.9-2.6c-0.3-0.9-0.5-1.8-0.7-2.7c-0.2-0.9-0.4-1.8-0.4-2.7
			L0,154.1l0-1.4c0-0.5,0-0.9,0-1.4c0-0.5,0.1-0.9,0.1-1.4c0.1-0.9,0.3-1.8,0.4-2.7l0.3-1.3l0.4-1.3c0.3-0.9,0.7-1.7,1.1-2.5
			c0.4-0.8,0.8-1.6,1.3-2.4c0.5-0.8,1-1.6,1.5-2.3c0.6-0.7,1.1-1.5,1.7-2.1c0.6-0.7,1.2-1.4,1.9-2c0.7-0.6,1.3-1.2,2.1-1.8l0.3-0.2
			l0.5,0l12,1l6,0.5c2,0.2,4,0.4,6,0.6l6,0.6l6,0.7c4,0.5,8,1.1,12,1.6c4,0.5,8,1.2,12,1.7c4,0.6,8,1.3,11.9,1.9l6,1
			c2,0.3,4,0.7,6,1.1c4,0.7,7.9,1.5,11.9,2.3l0.2,0L107.8,144.5z"/>
	</g>
</g>
<g>
	<path fill="#221910" d="M92.9,162.6l13.3,0c0,0-0.3,8.9,6.6,12.2s16.2-15.7,3.8-26.8s-33.4,7.7-19.1,26.2s40.4,8.2,50.5-24.1
		s15.4-45.2,18.7-81.7c3.3-36.4,17.5-46.8,29.3-34.8s2.9,42.9-7,36.6c-13-8.2-5.3-16-1.1-20.7l-16.2,0.9"/>
	<path fill="#CDB64E" d="M92.9,162.3l6.7-0.3l6.7-0.3l0.8,0l0,1c0.2,3.7,1.6,7.5,4.3,9.7c0.4,0.2,0.7,0.5,1.1,0.7l0.6,0.3l0.3,0.2
		l0.1,0c-0.2-0.1,0,0,0,0l0.2,0.1l0.4,0.1c0.1,0,0.1,0,0.2,0c0.1,0,0.1,0,0.2,0l0.2,0c0.3,0,0.6-0.1,0.9-0.2
		c1.3-0.6,2.5-1.9,3.3-3.5c1.7-3.1,2.3-6.9,1.9-10.4c-0.2-1.8-0.7-3.5-1.5-5.1c-0.8-1.6-1.8-3-3.1-4.2l-0.5-0.5l-0.2-0.2l-0.1-0.1
		c0,0-0.1-0.1,0,0l-0.1-0.1c-0.4-0.3-0.8-0.6-1.1-0.9c-0.3-0.2-0.6-0.4-1-0.6c-0.4-0.2-0.7-0.4-1.1-0.5c-1.5-0.6-3.2-0.8-4.8-0.6
		c-3.3,0.3-6.4,2.3-8.6,4.9c-2.2,2.6-3.5,6.1-3.5,9.5c0,1.7,0.2,3.5,0.8,5.2c0.6,1.7,1.3,3.3,2.3,4.9l0.8,1.1
		c0.1,0.2,0.3,0.4,0.4,0.5l0.5,0.6c0.3,0.4,0.6,0.8,0.9,1.1l0.9,1c1.3,1.3,2.7,2.5,4.3,3.5c3.1,1.9,6.8,2.9,10.6,2.7
		c3.7-0.1,7.5-1.4,10.8-3.3c3.3-1.9,6.3-4.5,8.9-7.4c5.1-5.9,8.7-13.1,11.1-20.5c1.2-3.8,2.3-7.6,3.4-11.4l3.3-11.4
		c2.2-7.6,4.1-15.3,5.7-23c1.6-7.7,2.7-15.5,3.6-23.3c0.4-3.9,0.8-7.8,1.1-11.8l0.3-3c0.1-1,0.2-2,0.3-3c0.2-2,0.5-4,0.8-6
		c1.3-8,3.3-16.1,8-23.4c1.2-1.8,2.7-3.5,4.5-5c1.8-1.5,4.1-2.7,6.6-3c1.3-0.2,2.5-0.1,3.8,0c1.2,0.2,2.4,0.6,3.5,1.1
		c2.2,1,4,2.4,5.5,4l0.3,0.3c0.1,0.1,0,0,0.2,0.2l0.1,0.1l0.1,0.1l0.5,0.6c0.3,0.3,0.7,0.9,1,1.4c0.4,0.5,0.7,1,0.9,1.5
		c0.3,0.5,0.6,1,0.8,1.5c1,2,1.6,4.1,2,6.2c0.8,4.2,0.7,8.5,0.1,12.6c-0.7,4.1-1.9,8.2-4.3,12c-0.6,0.9-1.3,1.8-2.2,2.6
		c-0.8,0.8-1.9,1.6-3.2,2c-1.3,0.4-2.8,0.5-4.1,0c-0.3-0.1-0.6-0.2-0.9-0.4c-0.3-0.2-0.5-0.3-0.9-0.5l-1.2-0.9
		c-0.8-0.5-1.6-1.3-2.4-2.1c-0.4-0.4-0.7-0.8-1.1-1.2c-0.4-0.4-0.7-0.8-1-1.3c-1.3-1.8-2-4.3-1.6-6.6c0.3-2.3,1.4-4.3,2.7-6
		c1.2-1.7,2.7-3.1,4.1-4.5l0.7,1.6l-8.1,0.1c-2.7,0-5.4,0-8.1,0.1l0-0.5c2.7-0.3,5.4-0.6,8.1-0.8l8.1-0.7l2.2-0.2l-1.5,1.8
		c-1.3,1.5-2.5,3-3.5,4.6c-1,1.6-1.8,3.3-1.9,4.9c-0.1,1.7,0.4,3.2,1.5,4.6c0.2,0.4,0.5,0.7,0.8,1c0.3,0.3,0.6,0.7,0.9,0.9
		c0.7,0.6,1.3,1.1,2.2,1.7l1.2,0.8c0.1,0.1,0.3,0.1,0.4,0.2c0.2,0.1,0.3,0.2,0.5,0.2c0.6,0.2,1.2,0.1,1.7-0.1
		c0.6-0.2,1.2-0.6,1.7-1.2c0.6-0.6,1-1.3,1.5-2c1.8-3.1,2.8-6.8,3.2-10.5c0.5-3.7,0.4-7.5-0.4-11.1c-0.4-1.8-1-3.5-1.8-5
		c-0.2-0.4-0.4-0.8-0.6-1.1c-0.2-0.4-0.4-0.7-0.7-1c-0.2-0.3-0.4-0.6-0.8-1l-0.5-0.6l-0.1-0.1l-0.1-0.1c0.2,0.2,0,0,0,0l-0.2-0.2
		c-2.5-2.5-5.6-4.1-8.4-3.5c-2.8,0.4-5.5,2.9-7.5,5.8c-1,1.5-1.9,3.1-2.6,4.8c-0.8,1.7-1.4,3.5-2,5.3c-1.2,3.6-2.1,7.4-2.8,11.2
		c-0.3,1.9-0.6,3.8-0.9,5.7c-0.1,0.9-0.2,1.9-0.3,2.9l-0.3,2.9c-0.4,4-0.9,7.9-1.4,11.9c-1.1,7.9-2.5,15.8-4.4,23.6
		c-1.9,7.8-4.4,15.4-6.9,22.9c-2.5,7.6-5.2,15-7.7,22.6c-2.6,7.6-6.3,14.9-11.5,21.1c-2.6,3-5.6,5.9-9.1,8
		c-3.5,2.2-7.4,3.8-11.6,4.2c-4.2,0.5-8.6-0.5-12.3-2.4c-1.9-1-3.6-2.3-5.2-3.7l-1.2-1.2c-0.4-0.4-0.7-0.8-1-1.1l-0.5-0.6
		c-0.3-0.3-0.3-0.4-0.5-0.7l-1-1.3c-1.2-1.8-2.2-3.7-3-5.7c-0.7-2.1-1.1-4.3-1.2-6.5c-0.1-4.5,1.6-9,4.4-12.4
		c2.8-3.4,7-5.9,11.6-6.4c2.3-0.2,4.7,0.1,6.9,1c0.5,0.2,1,0.5,1.6,0.8c0.5,0.3,1,0.7,1.5,1c0.5,0.3,0.8,0.6,1.2,1l0.1,0.1
		c0.2,0.2,0.1,0.1,0.2,0.1l0.1,0.1l0.3,0.3l0.6,0.6c1.5,1.6,2.8,3.4,3.7,5.4c0.9,2,1.5,4.2,1.7,6.3c0.2,2.2,0.1,4.4-0.4,6.5
		c-0.5,2.1-1.3,4.2-2.4,6c-0.6,0.9-1.3,1.8-2.1,2.6c-0.8,0.8-1.8,1.5-3,2c-0.6,0.2-1.3,0.4-2,0.3c-0.6,0-1.7-0.3-2-0.4l-0.2-0.1
		l-0.2-0.1l-0.1-0.1l-0.4-0.2l-0.7-0.4c-0.5-0.3-0.9-0.7-1.3-1c-1.6-1.5-2.8-3.5-3.4-5.5c-0.6-2-1-4.1-0.9-6.2l0.9,0.9l-6.7-0.3
		l-6.7-0.4L92.9,162.3z"/>
</g>
<text transform="matrix(1 0 0 1 86.721 179.687)" fill="#4A3F29" stroke="#CDB64E" stroke-width="4" stroke-miterlimit="10" font-family="'Meposa-Regular'" font-size="56.8201">QUEST</text>
<text transform="matrix(1 0 0 1 154.1653 213.7787)" fill="#4A3F29" stroke="#CDB64E" stroke-width="3" stroke-miterlimit="10" font-family="'Meposa-Regular'" font-size="37.72">MODE</text>
<g>
	<g>
		<path fill="#5A738D" d="M48.6,0.3c4.3,21.4-6.9,30.9-6.9,30.9l5.4,4.8l-6.9,0.4c-1.5,8.4-2.5,12.3-2.5,12.3l7.3,4.7l-8.5-0.6
			c-0.7,3.7-2.7,20.6-2.7,20.6c7.2-2.6,9.7,4.6,9.7,4.6c-1.7-1.3-8.4,4.3-8.4,4.3c5.4,45,36.1,58.6,36.1,58.6
			c11.6-14.3,9.6-31.1,6.5-41c-7.4,0.7-12.9,1-12.9,1c3.2-5.5,5.6-6.3,9.5-8.5c-0.3-0.8-0.6-1.3-0.6-1.3c-3.4-6.8-4.8-18.2-5.3-29.2
			c-5.8,0.5-10.8,0.9-10.8,0.9c1.7-3,6.1-7.2,10.8-8.4c-0.4-14,0.5-22.7,0.5-22.7c-3.8,0.5-5.8,1.4-5.8,1.4c1.9-5.4,4.8-6.3,4.8-6.3
			C67.3,10.8,48.6,0.3,48.6,0.3z"/>
		<g>
			<path fill="#CDB64E" d="M48.8,0.6l0.4,1.6l0.4,2c0.1,0.7,0.2,1.4,0.3,2.1C49.9,7.1,50,7.7,50,8.4c0.2,2.8,0,5.6-0.4,8.3
				c-0.1,0.7-0.2,1.4-0.4,2.1c-0.1,0.7-0.3,1.4-0.5,2c-0.4,1.3-0.9,2.7-1.5,3.9c-0.6,1.3-1.3,2.5-2.1,3.7c-0.4,0.6-0.8,1.2-1.3,1.7
				c-0.5,0.6-0.9,1.1-1.5,1.6l0-1.4l5.5,4.7l1.9,1.6L47.1,37l-6.9,0.5l1.1-0.9c-0.3,2.1-0.7,4.1-1.1,6.2l-0.6,3.1
				c-0.2,1-0.4,2.1-0.7,3.1l-0.5-1.4l7.3,4.6l4.3,2.7l-5.1-0.3l-8.5-0.5l1.4-1.1c-0.3,1.7-0.5,3.4-0.7,5.1l-0.7,5.1L35,73.5
				l-1.7-1.3c1.1-0.4,2.2-0.6,3.4-0.6c1.2,0,2.4,0.3,3.4,0.9c1.1,0.6,1.9,1.3,2.7,2.2c0.4,0.4,0.7,0.9,1,1.4
				c0.1,0.2,0.3,0.5,0.4,0.7c0.1,0.3,0.2,0.5,0.3,0.8l-1.7,1.2c0.1,0,0.1,0,0,0c-0.1,0-0.2,0-0.3,0c-0.3,0.1-0.6,0.2-0.9,0.3
				c-0.7,0.3-1.4,0.7-2,1.1c-1.3,0.8-2.7,1.7-3.9,2.7l0.3-0.8l0.6,4.4c0.3,1.5,0.4,2.9,0.7,4.4c0.3,1.4,0.6,2.9,0.9,4.3l0.5,2.2
				l0.6,2.1c0.4,1.4,0.9,2.8,1.4,4.2c0.5,1.4,1,2.8,1.6,4.1c0.6,1.4,1.2,2.7,1.9,4c0.6,1.3,1.4,2.6,2.1,3.9c0.8,1.3,1.5,2.5,2.4,3.8
				c0.4,0.6,0.8,1.2,1.3,1.8c0.4,0.6,0.9,1.2,1.3,1.8c0.9,1.2,1.9,2.3,2.8,3.4c1,1.1,2,2.2,3,3.2c2.1,2.1,4.3,4,6.7,5.8
				c1.2,0.9,2.4,1.7,3.7,2.5c1.2,0.8,2.6,1.5,3.8,2.1l-0.8,0.2c0.5-0.7,1.1-1.4,1.6-2.1c0.5-0.7,1-1.5,1.4-2.2
				c0.5-0.8,0.9-1.5,1.3-2.3c0.4-0.8,0.8-1.6,1.1-2.4c1.3-3.3,2.2-6.7,2.6-10.2c0.8-7,0-14.2-2.1-20.9l1.4,0.9
				c-4.3,0.4-8.6,0.8-12.9,1.1l-2.7,0.2l1.4-2.3c0.6-1,1.2-1.9,1.9-2.9c0.7-0.9,1.5-1.8,2.4-2.6c0.9-0.8,1.9-1.5,2.9-2
				c1-0.6,1.9-1.1,2.9-1.6l-0.7,1.9c-0.3-0.6-0.5-1.1-0.8-1.7l-0.4-0.9l-0.4-1c-0.3-0.7-0.5-1.3-0.7-1.9L70,85.4
				c-0.4-1.3-0.7-2.6-0.9-3.9c-0.3-1.3-0.5-2.6-0.7-3.9c-0.4-2.6-0.7-5.2-1-7.9c-0.2-2.6-0.4-5.2-0.5-7.9l1.7,1.5l-10.8,0.9l-3,0.2
				l1.5-2.5c0.7-1.1,1.5-2.1,2.3-3c0.8-0.9,1.8-1.8,2.7-2.5c1-0.8,2-1.5,3.1-2c0.6-0.3,1.1-0.6,1.7-0.8c0.6-0.2,1.2-0.4,1.8-0.6
				l-1,1.4c-0.1-3.8,0-7.6,0.1-11.4c0.1-1.9,0.1-3.8,0.2-5.7c0.1-1.9,0.2-3.8,0.4-5.7l1.3,1.3c-1,0.1-1.9,0.3-2.9,0.5
				c-0.5,0.1-0.9,0.2-1.4,0.3l-0.7,0.2l-0.3,0.1L63.5,34l-2.3,0.8l0.8-2.2c0.3-0.7,0.5-1.3,0.9-2c0.3-0.6,0.7-1.3,1.1-1.9
				c0.4-0.6,0.9-1.2,1.5-1.7c0.3-0.3,0.6-0.5,0.9-0.7c0.2-0.1,0.3-0.2,0.5-0.3c0.2-0.1,0.3-0.2,0.6-0.3L67,26.7c0-0.7,0-1.4-0.1-2
				c-0.1-0.7-0.2-1.3-0.3-2c-0.2-0.7-0.3-1.3-0.5-2c-0.2-0.7-0.4-1.3-0.7-1.9c-1.1-2.5-2.5-4.9-4.2-7.1c-1.7-2.2-3.7-4.2-5.8-6.1
				C53.2,3.7,51.1,2.1,48.8,0.6z M48.7,0.1c2.5,1.4,4.9,3,7.1,4.8c2.2,1.8,4.3,3.8,6.2,6c1.9,2.2,3.5,4.6,4.7,7.3
				c0.3,0.7,0.6,1.3,0.8,2c0.3,0.7,0.4,1.4,0.7,2.1c0.2,0.7,0.3,1.4,0.4,2.2c0.1,0.7,0.2,1.5,0.2,2.2l0.1,0.6l-0.7,0.3
				c0,0-0.2,0.1-0.3,0.2c-0.1,0.1-0.2,0.1-0.3,0.2c-0.2,0.2-0.5,0.4-0.7,0.6c-0.4,0.4-0.8,0.9-1.2,1.4c-0.4,0.5-0.6,1.1-0.9,1.6
				c-0.3,0.6-0.5,1.2-0.7,1.8L62.6,32l0.4-0.2l0.4-0.1l0.8-0.3c0.5-0.2,1-0.3,1.5-0.4c1-0.2,2-0.4,3.1-0.6l1.4-0.2l-0.1,1.4
				c-0.1,1.8-0.2,3.7-0.3,5.6c-0.1,1.9-0.1,3.8-0.1,5.6c0,3.8,0,7.5,0.2,11.3l0,1.1l-1.1,0.3c-0.5,0.1-1,0.3-1.5,0.5
				c-0.5,0.2-1,0.4-1.4,0.7c-0.9,0.5-1.8,1.1-2.7,1.8c-0.8,0.7-1.6,1.4-2.4,2.2c-0.7,0.8-1.4,1.7-1.9,2.5l-1.5-2.3l10.8-1L70,60
				l0.1,1.7c0.3,5.2,0.6,10.3,1.4,15.4c0.4,2.5,0.9,5,1.5,7.5l0.5,1.8c0.2,0.6,0.4,1.2,0.6,1.7l0.3,0.8l0.4,0.9
				c0.3,0.6,0.5,1.2,0.8,1.8l0.5,1.3L75,93.6c-2,1.1-3.8,2-5.3,3.2c-0.7,0.6-1.4,1.3-2,2.1c-0.6,0.8-1.2,1.7-1.7,2.6l-1.3-2.2
				c4.3-0.2,8.6-0.6,12.9-0.9l1.1-0.1l0.3,1c1,3.5,1.7,7.2,2.1,10.9c0.3,3.7,0.2,7.4-0.3,11.1c-0.6,3.7-1.6,7.2-3.1,10.6
				c-0.4,0.8-0.8,1.7-1.2,2.5c-0.4,0.8-0.9,1.6-1.4,2.4c-0.5,0.8-1,1.5-1.5,2.3c-0.5,0.8-1.1,1.5-1.7,2.2l-0.4,0.4l-0.5-0.2
				c-1.4-0.7-2.7-1.5-4-2.3c-1.3-0.8-2.5-1.7-3.7-2.6c-1.2-0.9-2.3-1.9-3.5-2.9c-1.1-1-2.2-2-3.3-3.1c-1-1.1-2.1-2.2-3.1-3.3
				c-1-1.1-1.9-2.3-2.8-3.5c-0.5-0.6-0.9-1.2-1.3-1.8c-0.4-0.6-0.9-1.2-1.3-1.9c-0.8-1.2-1.6-2.5-2.4-3.8c-0.7-1.3-1.5-2.6-2.2-3.9
				c-0.7-1.3-1.3-2.7-2-4.1c-0.6-1.4-1.2-2.8-1.7-4.2c-0.5-1.4-1.1-2.8-1.5-4.2l-0.7-2.1l-0.6-2.2c-0.4-1.4-0.8-2.9-1.1-4.4
				c-0.4-1.5-0.6-2.9-0.9-4.4c-0.3-1.5-0.5-3-0.7-4.5L34,81.8l0.4-0.3c1.3-1.1,2.6-2.1,4-3c0.7-0.5,1.4-0.9,2.3-1.3
				c0.4-0.2,0.8-0.4,1.4-0.5c0.3-0.1,0.5-0.1,0.9-0.1c0.3,0,0.8,0.1,1.2,0.4l-1.7,1.2c-0.1-0.1-0.2-0.4-0.3-0.6
				c-0.1-0.2-0.2-0.4-0.3-0.6c-0.2-0.4-0.5-0.7-0.8-1.1c-0.6-0.7-1.2-1.2-2-1.6c-0.7-0.4-1.5-0.5-2.4-0.5c-0.8,0-1.7,0.2-2.5,0.5
				l-1.9,0.7l0.2-2c0.4-3.4,0.8-6.9,1.2-10.3l0.7-5.2c0.2-1.7,0.5-3.4,0.8-5.2l0.2-1.2l1.2,0.1L45,52l-0.8,2.4L37,49.7l-0.8-0.5
				l0.2-0.9c0.3-1,0.5-2,0.7-3l0.7-3c0.4-2,0.8-4.1,1.2-6.1l0.2-0.9l0.9,0l6.9-0.3l-0.6,1.8l-5.3-4.9l-0.8-0.7l0.8-0.7
				c0.4-0.4,0.9-0.9,1.3-1.4c0.4-0.5,0.8-1,1.2-1.6c0.8-1.1,1.5-2.2,2.1-3.4c1.2-2.4,2.1-4.9,2.6-7.6c0.6-2.6,0.8-5.4,0.8-8.1
				c0-0.7,0-1.4-0.1-2c0-0.7-0.1-1.4-0.1-2l-0.2-2L48.4,0L48.7,0.1z"/>
		</g>
	</g>
	<path fill="#CDB64E" d="M67.4,143.2c0,0-0.3-0.5-0.9-1.5c-0.6-0.9-1.4-2.3-2.3-4.1c-1.9-3.6-4.6-8.7-7.3-15.1
		c-2.7-6.4-5.5-14-7.2-22.6c-0.4-2.2-0.8-4.4-1-6.6c-0.1-1.2-0.2-2.2-0.3-3.4c-0.1-1.2-0.1-2.3-0.1-3.5c-0.1-4.6,0.2-9.1,0.5-13.6
		c0.7-9,1.8-18,2.6-26.3c0.9-8.4,1.5-16.2,1.6-22.9c0.1-3.4,0-6.4-0.1-9.2c-0.2-2.7-0.4-5.1-0.7-7c-0.1-1-0.3-1.8-0.4-2.6
		c-0.1-0.8-0.3-1.4-0.4-1.9c-0.2-1-0.4-1.6-0.4-1.6s0.2,0.5,0.5,1.5c0.2,0.5,0.3,1.1,0.5,1.9c0.2,0.7,0.4,1.6,0.6,2.6
		c0.4,1.9,0.8,4.3,1.1,7c0.3,2.7,0.5,5.8,0.7,9.2c0.3,6.8,0.1,14.7-0.3,23.1c-0.4,8.4-0.9,17.4-1.1,26.3c-0.1,4.5-0.1,8.9,0.3,13.2
		c0.1,1.1,0.2,2.1,0.3,3.1c0.1,1,0.3,2.2,0.5,3.1c0.4,2,0.9,4,1.4,6c2.3,7.8,5.5,14.8,8.6,20.6c3.1,5.8,6,10.4,8.1,13.6
		c1.1,1.6,1.9,2.8,2.5,3.6c0.6,0.8,0.9,1.2,0.9,1.2L67.4,143.2z"/>
</g>
<path fill="#CDB64E" d="M92.2,37.5c0,0,0.3-0.2,0.9-0.4c0.6-0.3,1.5-0.7,2.6-1.1c1.1-0.4,2.5-0.9,4.2-1.2c1.7-0.3,3.6-0.7,6-0.2
	c0.6,0.1,1.2,0.3,1.8,0.7c0.3,0.2,0.6,0.4,0.9,0.7l0.1,0.1l0.1,0.1l0.1,0.2l0.3,0.3c0.8,0.9,1.4,1.9,2,2.9c0.6,1,1.2,2,1.8,3
	c0.3,0.5,0.6,1,1,1.4c0.3,0.4,0.7,0.6,0.8,0.6c0.1,0,0.2-0.1,0.4-0.2c0.2-0.2,0.3-0.4,0.5-0.7c0.4-0.6,0.8-1.2,1.3-1.7
	c0.9-1,2-1.9,3.1-2.7c0.6-0.4,1.2-0.7,1.8-1c0.7-0.3,1.3-0.6,2.2-0.5c0.2,0,0.5,0.1,0.7,0.2c0.2,0.2,0.4,0.4,0.5,0.7
	c0.2,0.5,0.2,1,0.1,1.4c0,0.3-0.1,0.7-0.1,1c0,0.3,0,0.6,0.1,0.9c0.3,2.3,3,2.8,5.4,3.2l0.2,0l0.1,0c0.1,0-0.1,0-0.1,0l0,0l0.1,0
	l0.3,0l0.1,0c0.1,0,0.2,0,0.3,0c0.1,0,0.2-0.1,0.4-0.1c0.5-0.1,1-0.4,1.5-0.7c1.1-0.6,2.1-1.3,3.1-2c1-0.7,2.1-1.4,3.3-2.1
	c0.6-0.3,1.3-0.6,2.1-0.8c0.4-0.1,0.9-0.1,1.5,0c0.6,0.1,1.2,0.5,1.6,0.9c0.2,0.2,0.4,0.5,0.5,0.7c0.1,0.2,0.2,0.4,0.3,0.6l0.1,0.3
	l0.1,0.2l0.1,0.4c0.1,0.6,0.2,1.1,0.4,1.6c0.2,1,0.5,2,0.8,2.6c0.2,0.3,0.3,0.4,0.5,0.5c0.1,0.1,0.2,0.1,0.4,0.1c0.2,0,0.3,0,0.5,0
	c0.4,0,0.8-0.1,1.1-0.1c0.4-0.1,0.8-0.2,1.2-0.3c0.2,0,0.4-0.1,0.6-0.1c0.2,0,0.5-0.1,0.7-0.1c0.5-0.1,0.9,0,1.3,0
	c0.8,0.1,1.5,0.3,2.1,0.7c1.2,0.7,1.8,1.5,2.1,2.1c0.3,0.6,0.4,0.9,0.4,0.9l-0.3,0.1c0,0-0.2-0.3-0.6-0.7c-0.4-0.4-1.1-1-2.2-1.3
	c-0.5-0.1-1.1-0.2-1.7-0.2c-0.3,0.1-0.6,0.1-0.9,0.2c-0.2,0-0.3,0.1-0.5,0.1c-0.2,0.1-0.4,0.1-0.6,0.2c-0.4,0.2-0.8,0.3-1.2,0.5
	c-0.5,0.2-1,0.3-1.5,0.4c-0.3,0-0.6,0-0.9,0.1c-0.3-0.1-0.7,0-1-0.2c-0.4-0.1-0.7-0.3-1-0.5c-0.3-0.2-0.6-0.5-0.8-0.8
	c-0.8-1.2-1.1-2.3-1.4-3.3c-0.2-0.5-0.3-1.1-0.5-1.6c-0.2-0.6-0.3-0.9-0.3-0.9c0,0,0.1,0.1,0.1,0.1c0,0-0.1,0-0.3,0
	c-0.3,0.1-0.8,0.3-1.3,0.5c-1,0.5-2,1.2-3.1,1.8c-1.1,0.7-2.2,1.4-3.5,2c-0.7,0.3-1.4,0.6-2.1,0.8c-0.2,0-0.4,0.1-0.6,0.1
	c-0.2,0-0.4,0.1-0.7,0.1l-0.4,0l-0.2,0l-0.1,0l0,0c0,0-0.2,0-0.1,0l-0.1,0l-0.3-0.1c-1.4-0.3-2.8-0.7-4.2-1.5
	c-0.7-0.4-1.3-1-1.8-1.7c-0.5-0.7-0.7-1.6-0.7-2.4c0-0.4,0-0.8,0.1-1.2c0.1-0.4,0.2-0.7,0.2-1c0.1-0.3,0.1-0.5,0.1-0.7
	c0-0.1-0.1-0.2-0.3-0.2c-0.4-0.1-1.1,0.1-1.7,0.3c-0.6,0.2-1.2,0.6-1.7,0.9c-1.1,0.7-2.1,1.6-2.8,2.6c-0.4,0.5-0.7,1-0.9,1.6
	c-0.3,0.5-0.5,1.5-1.6,1.9c-0.6,0.2-1.1,0-1.5-0.1c-0.4-0.2-0.7-0.4-1-0.6c-0.6-0.5-1-0.9-1.5-1.4c-0.9-1-1.6-2-2.2-2.9
	c-0.7-1-1.3-1.9-1.9-2.7l-0.2-0.3l-0.1-0.2l0,0c0,0,0,0,0,0l0,0c-0.1-0.1-0.2-0.2-0.4-0.3c-0.3-0.2-0.7-0.3-1.1-0.5
	c-1.6-0.5-3.5-0.4-5.1-0.3c-1.6,0.1-3,0.3-4.2,0.5c-2.4,0.4-3.7,0.6-3.7,0.6L92.2,37.5z"/>
<path fill="#CDB64E" d="M87.3,51.7c0,0,0.3-0.3,0.7-0.8c0.5-0.5,1.2-1.3,2.2-2.2c0.5-0.5,1.1-0.9,1.7-1.4c0.3-0.3,0.7-0.5,1.1-0.8
	c0.1-0.1,0.2-0.1,0.4-0.2c0.1,0,0.1-0.1,0.3-0.1c0.2,0,0.3-0.1,0.7,0.1c0.1,0,0.2,0.1,0.2,0.1c0.1,0.1,0.2,0.1,0.2,0.2
	c0.1,0.1,0.1,0.2,0.2,0.3c0,0.1,0,0.1,0,0.2c0,0.1,0,0.2,0,0.4c0,0.1,0,0.1,0,0.2C95,48,95,48.1,94.9,48.3c-0.5,1-1,1.8-1.5,2.7
	c-0.6,0.9-1.1,1.8-1.7,2.7c-0.3,0.5-0.6,0.9-0.9,1.4c-0.1,0.2-0.3,0.5-0.4,0.7c-0.1,0.1-0.1,0.2-0.1,0.3l0,0.1c0,0,0,0,0-0.1
	c0-0.1,0-0.1,0-0.2c0-0.1-0.1-0.3-0.2-0.4c-0.1-0.1-0.3-0.3-0.5-0.4C89.4,55,89.4,55,89.3,55c-0.1,0-0.1,0-0.1,0c0,0,0,0-0.1,0
	c0,0,0,0,0.1,0c0.2-0.1,0.4-0.2,0.6-0.3c0.2-0.1,0.5-0.3,0.7-0.4c0.3-0.2,0.6-0.3,0.8-0.5c1.2-0.6,2.4-1.3,3.8-1.7
	c1.3-0.5,2.8-0.9,4.3-0.9c0.8,0,1.6,0,2.4,0.4c0.2,0.1,0.4,0.2,0.6,0.4l0.5,0.5c0.1,0.2,0.2,0.4,0.3,0.6c0.1,0.2,0.1,0.4,0.2,0.6
	c0.1,0.4,0.1,0.8,0.1,1.2c0,0.4,0,0.7-0.1,1.1c-0.1,0.8-0.2,1.5-0.2,2.2c0,0.3,0.1,0.7,0.1,0.9c0.1,0.2,0.3,0.5,0.6,0.6
	c0.5,0.3,1.2,0.5,1.9,0.6c1.4,0.2,2.9,0.3,4.4,0.4c2.8,0.1,5.5-0.9,8.2-1.9c2.7-1,5.4-2.3,8.5-2.8c1.5-0.2,3.2-0.2,4.7,0.2
	c1.6,0.4,2.9,1.3,4,2.3c0.5,0.5,1,1,1.5,1.6c0.2,0.3,0.4,0.5,0.6,0.8c0.2,0.2,0.3,0.5,0.5,0.7c0.4,0.5,0.7,1,1,1.5
	c0.2,0.3,0.3,0.4,0.5,0.6c0.2,0.2,0.3,0.4,0.5,0.5c1.4,1.4,3,2.3,4.6,2.5c1.6,0.2,3-0.2,4.2-0.6c1.2-0.5,2-1,2.6-1.4
	c0.6-0.4,0.8-0.6,0.8-0.6l0.2,0.2c0,0-0.2,0.3-0.7,0.9c-0.5,0.5-1.2,1.3-2.4,2.1c-1.1,0.8-2.8,1.6-4.9,1.6c-0.5,0-1.1,0-1.6-0.2
	c-0.3-0.1-0.5-0.1-0.8-0.2c-0.3-0.1-0.5-0.2-0.8-0.3c-0.3-0.1-0.5-0.2-0.8-0.4c-0.3-0.1-0.5-0.3-0.8-0.5c-0.5-0.3-1-0.6-1.5-1.1
	c-0.4-0.4-1-0.9-1.4-1.3c-0.4-0.4-0.8-0.9-1.1-1.4l-0.1-0.2l-0.2-0.2l-0.3-0.3c-0.2-0.2-0.3-0.4-0.5-0.6c-0.4-0.4-0.8-0.8-1.2-1.2
	c-0.9-0.7-1.8-1.2-2.8-1.6c-1-0.3-2.2-0.4-3.5-0.2c-2.5,0.3-5.2,1.3-8.1,2.2c-1.4,0.4-2.9,0.9-4.5,1.1c-0.8,0.1-1.6,0.2-2.4,0.2
	c-0.4,0-0.8,0-1.2,0c-0.4,0-0.7-0.1-1.2-0.2c-1.5-0.3-3-0.5-4.5-0.9c-0.7-0.2-1.5-0.4-2.2-0.9c-0.4-0.2-0.7-0.6-0.9-1.1
	c-0.1-0.4-0.2-0.9-0.2-1.3c0-0.8,0.1-1.5,0.1-2.2c0-0.3,0-0.7,0-1.1c-0.1-0.3,0-0.7-0.2-0.9c-0.3-1.2-1.6-1.4-2.8-1.1
	c-2.5,0.6-4.8,2.1-6.9,3.3c-0.3,0.2-0.6,0.4-0.8,0.5c-0.3,0.2-0.6,0.4-0.9,0.5c-0.3,0.2-0.6,0.3-1,0.5c-0.1,0-0.2,0.1-0.4,0.1
	l-0.3,0c-0.1,0-0.2,0-0.4,0c-0.2,0-0.3,0-0.5-0.1c-0.2-0.1-0.5-0.3-0.6-0.5c-0.1-0.2-0.2-0.5-0.3-0.7c0-0.1,0-0.3,0-0.4
	c0-0.2,0.1-0.4,0.1-0.5l0.1-0.3c0.1-0.2,0.2-0.4,0.2-0.5c0.2-0.3,0.3-0.6,0.5-0.9c0.3-0.5,0.7-1,1-1.5c0.7-0.9,1.3-1.8,2-2.6
	c0.6-0.8,1.2-1.6,1.6-2.2c0,0,0.1-0.1,0.1-0.1c0,0,0,0,0,0c0,0.1,0,0.1,0,0.2l0,0.1c0,0.1,0.1,0.2,0.1,0.2c0.1,0.1,0.1,0.1,0.2,0.2
	c0,0,0.1,0.1,0.1,0.1c0.3,0.1,0.3,0.1,0.3,0.1c0.1,0,0,0,0,0c0,0-0.1,0-0.2,0.1c-0.3,0.1-0.7,0.3-1,0.5c-0.7,0.4-1.3,0.7-1.8,1.1
	c-2.2,1.4-3.5,2.2-3.5,2.2L87.3,51.7z"/>
<path fill="#CDB64E" d="M82.5,69c0,0,0.2,0.4,0.6,1c0.4,0.6,1,1.6,1.8,2.6c0.2,0.3,0.5,0.5,0.7,0.7c0.2,0.2,0.5,0.3,0.5,0.2
	c0,0,0,0,0-0.1c0.1-0.1,0.1-0.2,0.2-0.4c0.2-0.4,0.4-0.9,0.6-1.3c0.4-0.9,0.9-1.9,1.6-2.9c0.4-0.5,0.8-1,1.4-1.5
	c0.6-0.5,1.5-0.8,2.4-0.8c0.2,0,0.5,0,0.7,0.1c0.2,0,0.4,0.1,0.6,0.2c0.4,0.1,0.8,0.4,1.1,0.6c0.4,0.2,0.6,0.5,0.9,0.7
	c0.3,0.3,0.5,0.5,0.8,0.8l0.4,0.4c0.1,0.1,0.1,0.1,0.2,0.2l0.1,0.2c0.2,0.3,0.4,0.6,0.6,0.8c0.4,0.6,0.8,1.3,1.1,2
	c0.6,1.3,1.1,2.8,1.5,4.1c0.2,0.7,0.4,1.3,0.7,1.8c0.3,0.4,0.5,0.6,1.1,0.6c0.6,0,1.4-0.2,1.9-0.5c0.6-0.3,1.2-0.8,1.7-1.3
	c1-1.1,1.9-2.4,2.7-3.8c0.4-0.7,0.8-1.4,1.2-2.1c0.2-0.4,0.4-0.7,0.8-1.1c0.1-0.1,0.1-0.1,0.2-0.1c0.1,0,0.2-0.1,0.3-0.1
	c0.3-0.1,0.6,0.1,0.7,0.3c0.3,0.3,0.3,0.5,0.4,0.8c0.5,1.7,0.5,3.4,0.7,5c0.1,0.8,0.1,1.6,0.3,2.3c0.1,0.3,0.2,0.6,0.3,0.7
	c0,0,0-0.1-0.1-0.1c-0.1,0,0,0,0-0.1c0,0,0.1-0.1,0.1-0.1l0.3-0.1l0.3-0.2c0.3-0.2,0.5-0.4,0.7-0.7c0.5-0.5,1-1.1,1.5-1.7
	c0.5-0.6,1-1.3,1.7-1.9c0.2-0.2,0.4-0.4,0.8-0.6c0.2-0.1,0.4-0.2,0.7-0.2c0.3-0.1,0.8,0,1.1,0.2c0.7,0.4,0.9,0.8,1,1.1l0.1,0.2
	c0,0.1,0,0,0.1,0.2l0,0.1l0.1,0.3c0.3,0.9,0.3,1.8,0.5,2.5c0.1,0.3,0.1,0.6,0.2,0.7c0.1,0.1,0.1,0.1,0.2,0.1
	c0.2,0.1,0.8,0.2,1.4,0.2c0.6,0,1.4-0.1,2-0.2c0.7-0.1,1.4-0.2,2.1-0.3c0.8-0.1,1.6-0.1,2.4-0.1c1.6,0.1,3.1,0.6,4.4,1.2
	c1.3,0.6,2.4,1.2,3.5,1.8c0.2,0.1,0.5,0.3,0.7,0.4c0.3,0.1,0.5,0.3,0.8,0.4c0.5,0.3,1,0.5,1.4,0.7c0.4,0.2,0.9,0.3,1.4,0.5
	c0.5,0.1,0.9,0.2,1.4,0.3c1.8,0.3,3.5,0.2,4.9,0.2c0.7,0,1.4,0.1,2,0.2c0.6,0.2,1.1,0.6,1.3,1c0.2,0.4,0.3,0.7,0.4,0.9
	c0.1,0.2,0.1,0.3,0.1,0.3l-0.3,0.1c0,0,0-0.1-0.1-0.3c-0.1-0.2-0.2-0.4-0.5-0.6c-0.2-0.3-0.6-0.4-1-0.5c-0.5,0-1,0-1.7,0.2
	c-1.3,0.3-3.1,0.7-5.2,0.6c-0.5,0-1.1-0.1-1.6-0.2c-0.6-0.1-1.1-0.2-1.7-0.4c-0.6-0.2-1.2-0.4-1.7-0.6c-0.3-0.1-0.5-0.2-0.8-0.3
	c-0.3-0.1-0.6-0.3-0.9-0.4c-1.1-0.5-2.2-1-3.3-1.4c-1.2-0.4-2.3-0.7-3.5-0.8c-0.6,0-1.2,0-1.8,0.1c-0.7,0.1-1.4,0.2-2.1,0.3
	c-0.8,0.1-1.5,0.2-2.4,0.2c-0.9,0-1.8,0-3-0.6c-0.6-0.3-1.1-0.9-1.4-1.5c-0.3-0.6-0.4-1.1-0.4-1.6c-0.1-0.9-0.1-1.6-0.3-2.1
	l-0.1-0.4c0,0,0,0,0.3,0.2c0.2,0.1,0.4,0.1,0.5,0.1c0.1,0,0.2,0,0.2-0.1c0,0-0.1,0.1-0.2,0.1c-0.4,0.4-1,1-1.5,1.6
	c-0.5,0.6-1.1,1.2-1.8,1.8c-0.3,0.3-0.7,0.6-1.1,0.8c-0.2,0.1-0.4,0.3-0.7,0.4l-0.3,0.1c-0.2,0.1-0.3,0.1-0.5,0.2
	c-0.3,0.1-0.7,0.1-1.1,0c-0.5-0.1-0.8-0.4-1.1-0.7c-0.4-0.6-0.5-1.1-0.5-1.6c-0.1-0.9-0.1-1.8,0-2.6c0.1-1.6,0.2-3.2-0.1-4.7
	c0-0.1-0.1-0.3-0.1-0.3c0,0,0.1,0.1,0.2,0c0,0,0,0,0,0l0,0c-0.2,0.1-0.4,0.5-0.6,0.8c-0.4,0.7-0.8,1.4-1.2,2.1
	c-0.8,1.4-1.6,2.8-2.6,4c-0.5,0.6-1.1,1.2-1.8,1.7c-0.8,0.5-1.5,0.8-2.4,1c-0.2,0-0.5,0.1-0.7,0.1c-0.3,0-0.5,0-0.8-0.1
	c-0.1,0-0.3-0.1-0.4-0.1l-0.3-0.2c-0.3-0.2-0.4-0.3-0.6-0.5c-0.6-0.8-0.9-1.5-1.3-2.2c-0.6-1.4-1.1-2.6-1.8-3.8
	c-1.1-2.1-2.9-4.7-4.1-4.7c-0.5-0.1-1.3,0.4-1.9,1.2c-0.6,0.8-1.2,1.6-1.7,2.4c-0.3,0.4-0.5,0.8-0.7,1.2c-0.1,0.2-0.3,0.5-0.6,0.7
	c-0.3,0.2-0.7,0.5-1.1,0.5c-0.5,0-0.8-0.2-1-0.3c-0.3-0.2-0.4-0.3-0.6-0.5c-0.3-0.3-0.5-0.7-0.7-1c-0.7-1.3-1.1-2.4-1.3-3.1
	c-0.2-0.7-0.3-1.1-0.3-1.1L82.5,69z"/>
<path fill="#CDB64E" d="M81,87.6c0,0,0.2-0.1,0.7-0.3c0.5-0.2,1.2-0.4,2.1-0.6c1-0.2,2.2-0.2,3.5,0c1.4,0.2,2.9,0.9,4.3,2
	c1.4,1.1,2.6,2.7,3.4,4.2c0.4,0.8,0.9,1.6,1.3,2.3c0.2,0.4,0.5,0.7,0.7,1c0,0.1,0.1,0.1,0.1,0.1c0,0.1,0,0-0.1,0c0,0-0.1,0-0.1,0.1
	c0,0,0.1,0,0.1-0.1c0.3-0.2,0.6-0.6,0.8-1c0.3-0.4,0.6-0.8,0.8-1.3c0.6-0.8,1.1-1.7,1.7-2.6c0.3-0.4,0.6-0.9,0.9-1.3
	c0.2-0.2,0.3-0.4,0.5-0.7c0.2-0.2,0.4-0.5,0.9-0.6c0.3-0.1,0.6,0,0.8,0.2c0.2,0.2,0.3,0.3,0.4,0.5c0.2,0.3,0.3,0.6,0.3,0.9
	c0.2,0.6,0.3,1.1,0.3,1.6c0.1,0.5,0.1,1.1,0.2,1.6l0,0.4l0,0.1c0-0.1,0,0,0,0l0,0.2l0.1,0.8c0,0.3,0.1,0.4,0.2,0.6
	c0.1,0.2,0.1,0.4,0.2,0.6c0.1,0.2,0.1,0.4,0.2,0.6c0.1,0.2,0.2,0.3,0.3,0.5c0.8,1.1,2.5,1.2,4.2,1.1c1.8-0.2,3.6-0.6,5.3-1
	c0.4-0.1,0.9-0.2,1.3-0.3l0.3-0.1l0.2,0l0.1,0l0.2,0c0.2,0,0.4-0.1,0.6-0.1c0.2,0,0.4-0.1,0.6-0.1c0.2,0,0.5,0,0.7-0.1
	c0.5,0,0.9-0.1,1.4,0c1.7,0.1,3.3,0.5,4.6,1.1c1.3,0.6,2.2,1.4,2.9,2c0.7,0.7,1.1,1.3,1.4,1.7c0.3,0.4,0.4,0.7,0.4,0.7l-0.3,0.2
	c0,0-0.2-0.2-0.6-0.5c-0.4-0.3-0.9-0.7-1.7-1.2c-0.8-0.4-1.7-0.9-2.8-1.1c-1.1-0.3-2.4-0.4-3.8-0.2c-0.4,0-0.7,0.1-1,0.1l-0.5,0.1
	c-0.2,0.1-0.4,0.1-0.6,0.2c-0.2,0.1-0.4,0.1-0.6,0.2l-0.2,0l-0.1,0l0,0c0,0,0.1,0,0.1,0l0,0l-0.3,0.1c-0.4,0.1-0.9,0.3-1.3,0.4
	c-1.8,0.5-3.7,0.9-5.8,1c-1.1,0-2.2,0-3.4-0.4c-1.2-0.3-2.5-1.1-3.2-2.3c-0.7-1.2-0.9-2.4-0.9-3.6l0-0.8l0-0.2l0-0.2l0-0.1l0-0.4
	c0-0.5,0.1-1,0.1-1.5c0-0.5,0-1,0-1.5c0-0.2-0.1-0.5-0.1-0.6c0-0.1-0.1-0.1-0.1-0.1c0,0,0.1,0,0.1,0c0,0-0.2,0.1-0.4,0.2
	c-0.2,0.1-0.3,0.3-0.5,0.5c-0.3,0.4-0.6,0.8-0.9,1.2c-0.6,0.8-1.1,1.7-1.5,2.6c-0.2,0.5-0.4,0.9-0.6,1.4c-0.2,0.5-0.4,0.9-0.8,1.5
	c-0.1,0.1-0.3,0.3-0.4,0.4c-0.2,0.1-0.5,0.2-0.8,0.3c-0.6,0-1-0.2-1.3-0.4c-0.5-0.4-0.9-0.8-1.2-1.1c-0.7-0.8-1.2-1.5-1.8-2.3
	c-1-1.6-1.8-2.8-2.8-3.7c-1-1-2.1-1.6-3.2-2c-1.1-0.4-2.1-0.6-3-0.7c-1.7-0.2-2.8,0-2.8,0L81,87.6z"/>
</svg>
