<!-- Generator: Adobe Illustrator 18.1.1, SVG Export Plug-In  -->
<svg version="1.0"
	 xmlns="http://www.w3.org/2000/svg" xmlns:xlink="http://www.w3.org/1999/xlink" xmlns:a="http://ns.adobe.com/AdobeSVGViewerExtensions/3.0/"
	 x="0px" y="0px" width="639px" height="357px" viewBox="0 0 639 357" overflow="scroll" enable-background="new 0 0 639 357"
	 xml:space="preserve">
<defs>
</defs>
<g>
	<polygon fill="#665233" points="0,357 105,66 141,52.5 175.5,0 226.5,49.5 231,33 283.5,88.5 309,135 342,96 346.5,109.5 406.5,63 
		556.5,204 591,216 639,300 	"/>
	<path fill="#6F5A38" d="M235.5,345c1.9-4.6,36.9-119.6,36.9-119.6l-48-6l-76,129L235.5,345z"/>
	<polygon fill="#6F5A38" points="226.5,49.5 242.4,142.9 283.5,88.5 231,33 	"/>
	<polygon fill="#6F5A38" points="141,52.5 204.4,119.4 91.5,96 105,66 	"/>
	<polygon fill="#6F5A38" points="309,135 327.4,203.4 346.5,109.5 342,96 	"/>
	<polygon fill="#6F5A38" points="406.5,63 466.4,207.4 537.4,232.4 556.5,204 	"/>
	<polygon fill="#78613C" points="283.5,88.5 273.4,152.4 309,135 	"/>
	<polygon fill="#78613C" points="333.4,173.4 406.5,63 346.5,109.5 	"/>
	<path fill="#5E4B2E" d="M309,135l-35.6,17.4L235.5,345c0,0,112.5,1.5,112.5-6c0-7.5-20.6-135.6-20.6-135.6L309,135z"/>
	<polygon fill="#5E4B2E" points="204.4,119.4 154.5,280.4 61.5,180 91.5,96 	"/>
</g>
</svg>
