<!-- Generator: Adobe Illustrator 18.1.1, SVG Export Plug-In  -->
<svg version="1.0"
	 xmlns="http://www.w3.org/2000/svg" xmlns:xlink="http://www.w3.org/1999/xlink" xmlns:a="http://ns.adobe.com/AdobeSVGViewerExtensions/3.0/"
	 x="0px" y="0px" width="75.6px" height="23.2px" viewBox="0 0 75.6 23.2" overflow="scroll" enable-background="new 0 0 75.6 23.2"
	 xml:space="preserve">
<defs>
</defs>
<g>
	<path fill="#CDB64E" d="M2.3,17.6c0.4,0.7,0.9,1.3,1.6,1.9c0.7,0.5,1.7,0.8,2.9,0.8c1.1,0,2-0.3,2.6-0.8c0.6-0.5,1-1.3,1-2.5
		c0-0.8-0.2-1.5-0.5-2c-0.4-0.5-0.8-0.9-1.4-1.2c-0.7-0.4-1.5-0.7-2.3-1c-0.9-0.3-1.7-0.7-2.6-1.2C3,11.3,2.6,11,2.3,10.7
		C1.9,10.4,1.6,10,1.4,9.6S0.9,8.7,0.8,8.2C0.7,7.7,0.6,7.1,0.6,6.4c0-2.1,0.6-3.7,1.7-4.8S5,0,7.1,0C8,0,8.8,0.1,9.5,0.3
		c0.7,0.2,1.3,0.5,1.8,0.8s0.9,0.8,1.2,1.2c0.3,0.5,0.6,1,0.8,1.5L11,5.2c-0.2-0.7-0.7-1.2-1.3-1.6C9.1,3.2,8.3,3,7.2,3
		C6.1,3,5.3,3.3,4.6,3.8C4,4.2,3.7,5.1,3.7,6.3c0,0.8,0.2,1.5,0.5,1.9C4.6,8.6,5.1,9,5.8,9.3c0.8,0.4,1.7,0.7,2.6,1
		c1,0.3,1.8,0.8,2.7,1.3c0.7,0.5,1.3,1.1,1.7,2c0.5,0.8,0.7,1.9,0.7,3.3c0,1.1-0.2,2.1-0.5,2.9c-0.3,0.8-0.8,1.5-1.4,2
		c-0.6,0.5-1.3,0.9-2.1,1.1c-0.8,0.2-1.7,0.4-2.7,0.4c-1,0-1.9-0.1-2.7-0.4c-0.8-0.2-1.5-0.5-2-0.9c-0.6-0.4-1-0.8-1.4-1.3
		c-0.4-0.5-0.6-1-0.8-1.6L2.3,17.6z"/>
	<path fill="#CDB64E" d="M29.7,0.4v3.1h-5.5v19.3h-3.4V3.5h-5.5V0.4H29.7z"/>
	<path fill="#CDB64E" d="M37.7,0.4l6.5,22.4h-3.4l-1.2-4.4h-6.5l-1.1,4.4h-3.5l6.2-22.4H37.7z M33.9,15.6h5L36.4,6h-0.1L33.9,15.6z"
		/>
	<path fill="#CDB64E" d="M53.4,0.4c2.1,0,3.6,0.6,4.7,1.7c1,1.1,1.5,3,1.5,5.5c0,1.2-0.1,2.2-0.3,3s-0.5,1.5-0.8,2.1
		c-0.3,0.6-0.7,1-1.2,1.3c-0.4,0.3-0.9,0.6-1.4,0.8c0.9,1.6,1.6,2.9,2.1,3.8c0.5,0.9,0.9,1.7,1.2,2.2c0.3,0.5,0.5,0.9,0.6,1.2
		c0.1,0.3,0.2,0.5,0.3,0.7h-3.7c-0.1-0.2-0.1-0.4-0.2-0.6c-0.1-0.2-0.3-0.6-0.5-1.1c-0.3-0.5-0.6-1.2-1.1-2.1
		c-0.5-0.9-1.1-2.1-1.9-3.6H50v7.4h-3.4V0.4H53.4z M50,12.4h3.3c1,0,1.8-0.3,2.3-1c0.5-0.6,0.7-1.8,0.7-3.5c0-0.9-0.1-1.6-0.2-2.1
		c-0.1-0.6-0.3-1-0.5-1.4c-0.2-0.4-0.6-0.6-0.9-0.7c-0.4-0.1-0.8-0.2-1.4-0.2H50V12.4z"/>
	<path fill="#CDB64E" d="M75.6,0.4v3.1h-5.5v19.3h-3.4V3.5h-5.5V0.4H75.6z"/>
</g>
</svg>
