<!-- Generator: Adobe Illustrator 18.1.1, SVG Export Plug-In  -->
<svg version="1.0"
	 xmlns="http://www.w3.org/2000/svg" xmlns:xlink="http://www.w3.org/1999/xlink" xmlns:a="http://ns.adobe.com/AdobeSVGViewerExtensions/3.0/"
	 x="0px" y="0px" width="16.5px" height="39px" viewBox="0 0 16.5 39" enable-background="new 0 0 16.5 39" xml:space="preserve">
<defs>
</defs>
<g>
	<path fill="#4A3F29" stroke="#CEB64F" stroke-width="1.5" stroke-miterlimit="10" d="M15.7,38.2h-15V27.8h3.7v5.5H6v-5.1h3.9v5.1
		h1.6v-5.5h4.2V38.2z"/>
	<path fill="#4A3F29" stroke="#CEB64F" stroke-width="1.5" stroke-miterlimit="10" d="M7.9,17.6l7.8-4.1v5.1l-3.9,1.8l3.9,1.8V27
		l-7.9-4.2l-7,4v-5.1L4.1,20l-3.3-1.4v-4.9L7.9,17.6z"/>
	<path fill="#4A3F29" stroke="#CEB64F" stroke-width="1.5" stroke-miterlimit="10" d="M0.8,12.6V5.3c0-3.1,1.7-4.6,5-4.6
		c3.3,0,5,1.5,5,4.6v3.2h5v4H0.8z M5.4,8.5h1.5v-3c0-0.4-0.3-0.7-0.8-0.7c-0.5,0-0.7,0.2-0.7,0.7V8.5z"/>
</g>
</svg>
